<?xml version="1.0" encoding="UTF-8"?>
<svg xmlns="http://www.w3.org/2000/svg" version="1.1" viewBox="0 0 500 500">
  <!-- Generator: Adobe Illustrator 28.7.1, SVG Export Plug-In . SVG Version: 1.2.0 Build 142)  -->
  <g>
    <g id="Background_Complete">
      <g>
        <polygon points="358.57 413.86 358.57 475.04 269.11 475.04 170.44 475.04 170.44 413.86 358.57 413.86" style="fill: #f5f5f5;"/>
        <polygon points="366.46 396.76 366.46 413.86 163.86 413.86 163.86 396.76 269.11 396.76 366.46 396.76" style="fill: #e0e0e0;"/>
        <polygon points="265.16 475.04 170.44 475.04 170.44 413.86 163.86 413.86 163.86 396.76 269.11 396.76 269.11 412.28 265.16 475.04" style="fill: #e0e0e0;"/>
        <rect x="294.11" y="423.73" width="38.15" height="9.21" style="fill: #e0e0e0;"/>
        <rect x="288.18" y="444.45" width="48.99" height="19.44" transform="translate(625.35 908.35) rotate(180)" style="fill: #fff;"/>
      </g>
    </g>
    <g id="Background_Simple" style="display: none;">
      <circle cx="295.89" cy="184.71" r="95.72" transform="translate(-43.95 263.33) rotate(-45)" style="fill: #ebebeb;"/>
      <circle cx="388.86" cy="345.15" r="30.96" style="fill: #ebebeb;"/>
      <circle cx="196.12" cy="73.93" r="18" style="fill: #ebebeb;"/>
    </g>
    <g id="Desk">
      <path d="M464.77,474.48c0,.14-97.96.26-218.76.26s-218.79-.12-218.79-.26,97.94-.26,218.79-.26,218.76.12,218.76.26Z" style="fill: #263238;"/>
    </g>
    <g id="Fingerprint">
      <g>
        <path d="M301.29,90.62l10.54-25.43c.48-1.16-.12-2.1-1.35-2.1h-2.12c-.87,0-1.45-.48-1.51-1.22l-.07-.93c-.06-.74-.65-1.22-1.51-1.22h-10.07c-.79,0-1.67.39-2.33,1.03l-.82.79c-.66.64-1.55,1.03-2.33,1.03h-12.83c-1.23,0-2.6.94-3.06,2.1l-10.45,25.95h37.92Z" style="fill: #0071e3;"/>
        <g style="opacity: .3;">
          <path d="M301.29,90.62l10.54-25.43c.48-1.16-.12-2.1-1.35-2.1h-2.12c-.87,0-1.45-.48-1.51-1.22l-.07-.93c-.06-.74-.65-1.22-1.51-1.22h-10.07c-.79,0-1.67.39-2.33,1.03l-.82.79c-.66.64-1.55,1.03-2.33,1.03h-12.83c-1.23,0-2.6.94-3.06,2.1l-10.45,25.95h37.92Z"/>
        </g>
        <path d="M303.03,81.98l3.97-15.37c.26-1.01-.4-2.03-1.32-2.03h-31.15c-.62,0-1.16.47-1.33,1.14l-5.79,23.13c-.25,1.02.15,1.62,1.08,1.61h31.35c.61,0,1.14-.46,1.31-1.13l1.88-7.37Z" style="fill: #e0e0e0;"/>
        <g>
          <path d="M300.88,89.92l1.69-24.2c.06-.86-.62-1.59-1.48-1.59h-32.28v25.79h32.07Z" style="fill: #ebebeb;"/>
          <path d="M301.24,90.48l-3.84-24.95c-.18-.81-.91-1.39-1.76-1.39h-32.65c-1.29,0-2.16,1.3-1.65,2.46l7.05,22.83,32.85,1.05Z" style="fill: #fafafa;"/>
        </g>
        <path d="M301.29,90.61l-7.92-23.37c-.33-.97-1.21-1.62-2.2-1.62h-33.66c-1.08,0-1.85,1.11-1.5,2.18l7.37,22.82h37.92Z" style="fill: #0071e3;"/>
      </g>
      <g>
        <path d="M386.73,373.85c2.82,3.41,2.34,8.45-1.07,11.26-3.41,2.82-8.45,2.34-11.26-1.07-2.82-3.41-2.34-8.45,1.07-11.26,3.41-2.82,8.45-2.34,11.26,1.07Z" style="fill: #0071e3;"/>
        <path d="M393.81,347.24c2.82,3.41,2.34,8.45-1.07,11.26-3.41,2.82-8.45,2.34-11.26-1.07-2.82-3.41-2.34-8.45,1.07-11.26,3.41-2.82,8.45-2.34,11.26,1.07Z" style="fill: #0071e3;"/>
        <path d="M415.42,373.37c3.06,3.71,2.79,8.99-.62,11.81-3.41,2.82-8.65,2.09-11.71-1.61-3.06-3.7-2.79-8.99.62-11.81,3.41-2.82,8.65-2.09,11.71,1.61Z" style="fill: #0071e3;"/>
        <path d="M406.78,379.18c.06.61-5.97,1.66-13.46,2.35-7.49.69-13.61.77-13.67.16-.06-.61,5.97-1.66,13.46-2.35,7.49-.69,13.61-.77,13.67-.16Z" style="fill: #0071e3;"/>
        <path d="M385.99,352.97c.59.13-.15,5.69-1.67,12.4-1.52,6.71-3.23,12.05-3.82,11.91-.59-.13.15-5.68,1.67-12.4,1.52-6.71,3.23-12.05,3.82-11.91Z" style="fill: #0071e3;"/>
      </g>
      <g>
        <g>
          <path d="M403.54,104.1l-20.59-7.59-20.39,7.48c-2.6,1.26-4.89,2.02-4.89,4.5v12.39c0,8.6,2.2,17.12,6.72,24.65,3.8,6.33,9.69,12.85,18.76,17,8.34-2.78,14.56-10.18,18.36-16.51,4.52-7.52,6.72-16.05,6.72-24.65v-11.14c0-3.55-1.83-5.28-4.69-6.13Z" style="fill: #ebebeb;"/>
          <path d="M403.54,104.1s.47.08,1.3.44c.8.35,2.1,1.05,2.87,2.66.39.79.59,1.77.62,2.83,0,1.06.02,2.21.03,3.44,0,2.48.02,5.31.03,8.45-.04,6.28-1.31,13.98-5.24,21.63-1.97,3.8-4.53,7.57-7.76,11.03-3.24,3.42-7.27,6.54-12.15,8.2l-.09.03-.09-.04c-6.41-2.88-12.43-7.73-16.86-14.02-5.3-7.38-8.08-16.04-8.63-24.28-.15-2.06-.13-4.1-.13-6.09,0-1.99,0-3.95,0-5.88,0-.96,0-1.91,0-2.86,0-.48-.01-.92.02-1.42.03-.49.17-.99.42-1.42.52-.87,1.36-1.4,2.16-1.83.81-.43,1.63-.79,2.42-1.17h.01s.01,0,.01,0c7.75-2.82,14.64-5.33,20.41-7.43l.06-.02.06.02c6.44,2.41,11.57,4.33,15.13,5.66,1.73.66,3.08,1.17,4.03,1.53.43.17.77.3,1.03.41.23.09.35.14.35.15,0,0-.12-.03-.36-.11-.26-.09-.61-.21-1.05-.36-.96-.34-2.31-.82-4.05-1.45-3.57-1.3-8.72-3.16-15.19-5.51h.12c-5.76,2.13-12.64,4.67-20.37,7.53h.02c-.8.38-1.62.74-2.4,1.16-.77.42-1.54.92-1.98,1.66-.46.74-.36,1.66-.37,2.61,0,.94,0,1.9,0,2.86,0,1.92,0,3.88,0,5.88,0,2-.02,4.01.14,6.06.56,8.15,3.32,16.71,8.56,24.01,4.38,6.21,10.31,11,16.64,13.86h-.19c4.77-1.63,8.76-4.68,11.96-8.05,3.2-3.41,5.75-7.15,7.72-10.91,3.92-7.56,5.23-15.19,5.31-21.43.02-3.14.03-5.96.04-8.44-.03-2.46.24-4.64-.55-6.19-.72-1.57-1.97-2.28-2.75-2.65-.4-.2-.72-.32-.94-.39-.22-.08-.32-.12-.32-.13Z" style="fill: #263238;"/>
        </g>
        <g>
          <g>
            <path d="M397.32,137.32h-4.32v-23.54c0-5.54-4.51-10.05-10.05-10.05s-10.05,4.51-10.05,10.05v23.54h-4.32v-23.54c0-7.92,6.45-14.37,14.37-14.37s14.37,6.45,14.37,14.37v23.54Z" style="fill: #455a64;"/>
            <g style="opacity: .4;">
              <path d="M397.32,137.32h-4.32v-23.54c0-5.54-4.51-10.05-10.05-10.05s-10.05,4.51-10.05,10.05v23.54h-4.32v-23.54c0-7.92,6.45-14.37,14.37-14.37s14.37,6.45,14.37,14.37v23.54Z"/>
            </g>
            <rect x="363.58" y="126.85" width="38.74" height="24.85" rx="3.39" ry="3.39" style="fill: #0071e3;"/>
            <g style="opacity: .5;">
              <path d="M386.19,136.04c0-1.79-1.45-3.24-3.24-3.24s-3.24,1.45-3.24,3.24c0,1.48,1,2.71,2.35,3.1v4.84h1.77v-4.84c1.36-.39,2.35-1.62,2.35-3.1Z"/>
            </g>
          </g>
          <path d="M365.65,149.35c-.09,0-.16-4.14-.16-9.26s.07-9.26.16-9.26.16,4.14.16,9.26-.07,9.26-.16,9.26Z" style="fill: #fafafa;"/>
          <path d="M380.42,140.19s-.15-.05-.38-.22c-.23-.16-.53-.44-.83-.85-.6-.79-1.16-2.23-.8-3.78.38-1.55,1.51-2.59,2.41-3.03.45-.23.85-.34,1.13-.39.28-.05.43-.04.44-.02.01.06-.61.12-1.45.61-.83.47-1.86,1.47-2.21,2.9-.33,1.43.14,2.79.67,3.58.53.81,1.07,1.15,1.03,1.2Z" style="fill: #fafafa;"/>
        </g>
      </g>
      <g>
        <g>
          <path d="M438.79,248.14c.81-.49,1.68-.86,2.57-1.12l.53-2.54,4.3-.08.62,2.52c.9.22,1.78.56,2.61,1.03l2.17-1.42,3.09,2.99-1.35,2.22c.49.81.86,1.68,1.12,2.57l2.54.53.08,4.3-2.52.62c-.22.9-.56,1.78-1.03,2.61l1.42,2.17-2.99,3.09-2.22-1.35c-.81.49-1.68.86-2.57,1.12l-.53,2.54-4.3.08-.62-2.52c-.9-.22-1.78-.56-2.61-1.03l-2.17,1.42-3.09-2.99,1.35-2.22c-.49-.81-.86-1.68-1.12-2.57l-2.54-.53-.08-4.3,2.52-.62c.22-.9.56-1.78,1.03-2.61l-1.42-2.17,2.99-3.09,2.22,1.35h0ZM441.08,253.87c-1.77,1.83-1.72,4.75.11,6.52,1.83,1.77,4.75,1.72,6.52-.11,1.77-1.83,1.72-4.75-.11-6.52-1.83-1.77-4.75-1.72-6.52.11Z" style="fill: #0071e3;"/>
          <path d="M441.08,253.87s.24-.34.86-.75c.61-.4,1.67-.85,3.01-.71.66.07,1.39.29,2.05.73.65.44,1.27,1.06,1.65,1.86.2.4.34.84.42,1.29.08.46.09.94.03,1.42-.12.96-.57,1.91-1.28,2.66-.72.73-1.65,1.22-2.61,1.37-.48.09-.96.09-1.42.02-.46-.06-.91-.19-1.31-.37-.82-.36-1.46-.95-1.92-1.59-.46-.64-.7-1.36-.8-2.02-.19-1.34.22-2.41.61-3.03.39-.63.72-.88.72-.88.02.02-.28.3-.63.94-.35.62-.71,1.67-.51,2.95.11.63.35,1.31.79,1.92.45.6,1.06,1.16,1.84,1.49.38.18.8.29,1.24.35.44.06.89.05,1.34-.03.91-.15,1.78-.61,2.47-1.3.67-.71,1.1-1.6,1.21-2.51.07-.45.06-.91-.02-1.34-.07-.44-.2-.85-.39-1.23-.36-.77-.94-1.36-1.56-1.79-.62-.42-1.31-.64-1.95-.72-1.29-.16-2.32.24-2.93.61-.62.38-.89.69-.91.67Z" style="fill: #455a64;"/>
          <path d="M438.79,248.14s-.05-.02-.14-.08c-.1-.06-.24-.14-.43-.25-.39-.23-.95-.56-1.67-.99h.05c-.76.79-1.76,1.84-2.97,3.1v-.08c.44.66.92,1.39,1.44,2.17l.03.04-.02.04c-.42.76-.78,1.64-1.01,2.59v.05s-.06.01-.06.01c-.79.2-1.64.41-2.52.63l.07-.09c.03,1.35.06,2.79.09,4.3l-.08-.1c.79.16,1.66.34,2.55.52h.06s.02.08.02.08c.24.83.61,1.71,1.11,2.54l.04.06-.04.06c-.42.69-.88,1.45-1.34,2.22l-.02-.15c.97.94,2.02,1.95,3.1,2.98h-.15c.68-.46,1.42-.95,2.17-1.44l.06-.04.07.04c.76.42,1.64.78,2.58,1.01l.08.02.02.08c.19.79.41,1.65.62,2.52l-.13-.1c1.36-.02,2.82-.05,4.3-.08l-.13.1c.17-.8.35-1.67.53-2.54l.02-.08.08-.02c.85-.24,1.72-.61,2.54-1.1h0s.07-.04.07-.04l.07.04c.75.45,1.49.9,2.22,1.35l-.16.02c1.01-1.05,2.01-2.08,2.99-3.09l-.02.16c-.48-.73-.95-1.46-1.42-2.17l-.04-.07.04-.07c.46-.82.8-1.69,1.02-2.58l.02-.08.08-.02c.85-.21,1.69-.41,2.52-.62l-.1.12c-.02-1.47-.05-2.9-.07-4.3l.1.12c-.86-.18-1.71-.36-2.54-.53h-.07s-.02-.08-.02-.08c-.26-.91-.63-1.77-1.1-2.54l-.04-.06.04-.06c.46-.76.91-1.5,1.35-2.22l.02.14c-1.09-1.05-2.11-2.05-3.09-2.99h.13c-.77.51-1.48.98-2.18,1.43l-.05.03-.05-.03c-.87-.48-1.73-.81-2.58-1.02h-.05s-.01-.06-.01-.06c-.22-.92-.42-1.74-.61-2.53l.08.06c-1.67.02-3.08.04-4.3.06l.06-.05c-.22,1.01-.4,1.85-.55,2.54v.03s-.03,0-.03,0c-.91.25-1.55.55-1.97.76-.2.1-.35.18-.46.24-.1.06-.15.08-.15.08,0,0,.05-.04.14-.1.1-.06.25-.15.45-.26.41-.22,1.05-.53,1.96-.8l-.03.03c.14-.7.31-1.53.51-2.55v-.05s.06,0,.06,0c1.21-.03,2.63-.06,4.3-.09h.06s.02.06.02.06c.19.78.4,1.61.63,2.52l-.06-.06c.86.21,1.75.54,2.63,1.03h-.1c.69-.45,1.41-.92,2.17-1.43l.07-.04.06.06c.98.94,2.01,1.93,3.1,2.98l.06.06-.05.08c-.44.72-.88,1.46-1.34,2.22v-.12c.48.79.87,1.67,1.13,2.6l-.09-.08c.83.17,1.68.35,2.54.53l.1.02v.1c.03,1.4.05,2.83.08,4.3v.1s-.1.02-.1.02c-.83.2-1.67.41-2.52.62l.09-.09c-.22.91-.57,1.8-1.04,2.64v-.13c.47.72.94,1.44,1.42,2.17l.06.09-.07.08c-.98,1.02-1.98,2.05-2.99,3.09l-.07.08-.09-.05c-.73-.45-1.48-.89-2.22-1.35h.14,0c-.83.51-1.73.89-2.6,1.13l.09-.1c-.18.87-.36,1.74-.53,2.54l-.02.1h-.1c-1.48.03-2.94.05-4.3.08h-.1s-.02-.1-.02-.1c-.21-.87-.42-1.73-.62-2.52l.09.09c-.96-.23-1.86-.61-2.64-1.04h.13c-.75.49-1.5.97-2.17,1.42l-.08.05-.07-.07c-1.07-1.04-2.12-2.05-3.09-2.99l-.07-.07.05-.08c.47-.77.93-1.53,1.35-2.22v.12c-.51-.85-.89-1.75-1.12-2.6l.08.08c-.89-.19-1.76-.37-2.54-.53l-.08-.02v-.08c-.02-1.51-.05-2.95-.07-4.3v-.08s.07-.02.07-.02c.89-.21,1.74-.42,2.53-.61l-.06.06c.24-.97.61-1.85,1.04-2.63v.08c-.51-.78-.98-1.52-1.41-2.18l-.03-.05.04-.04c1.22-1.25,2.23-2.29,3-3.08l.02-.02.03.02c.71.44,1.26.78,1.64,1.02.18.11.32.2.42.27.09.06.14.09.14.1Z" style="fill: #263238;"/>
        </g>
        <g>
          <path d="M413.19,244.25c.49-.29,1-.52,1.54-.67l.32-1.52,2.57-.05.37,1.51c.54.13,1.06.34,1.56.61l1.3-.85,1.85,1.79-.81,1.33c.29.49.52,1,.67,1.54l1.52.32.05,2.57-1.51.37c-.13.54-.34,1.06-.61,1.56l.85,1.3-1.79,1.85-1.33-.81c-.49.29-1,.52-1.54.67l-.32,1.52-2.57.05-.37-1.51c-.54-.13-1.06-.34-1.56-.61l-1.3.85-1.85-1.79.81-1.33c-.29-.49-.52-1-.67-1.54l-1.52-.32-.05-2.57,1.51-.37c.13-.54.34-1.06.61-1.56l-.85-1.3,1.79-1.85,1.33.81h0ZM414.56,247.68c-1.06,1.1-1.03,2.85.07,3.9,1.1,1.06,2.84,1.03,3.9-.07,1.06-1.1,1.03-2.85-.07-3.9-1.1-1.06-2.84-1.03-3.9.07Z" style="fill: #0071e3;"/>
          <path d="M414.56,247.68s.14-.2.51-.45c.36-.24,1-.51,1.8-.43.4.04.83.17,1.22.43.39.26.76.63.99,1.12.12.24.21.5.25.77.05.27.06.56.02.85-.07.58-.34,1.15-.77,1.59-.43.44-.99.73-1.56.82-.29.05-.57.05-.85.01-.28-.04-.54-.11-.78-.22-.49-.21-.87-.57-1.15-.95-.27-.39-.42-.81-.48-1.21-.11-.8.13-1.44.36-1.82.23-.38.43-.53.43-.53.01.01-.17.18-.38.56-.21.37-.43,1-.31,1.77.06.38.21.78.47,1.15.27.36.64.69,1.1.89.23.11.48.17.74.21.26.04.53.03.8-.02.54-.09,1.07-.36,1.48-.78.4-.42.66-.96.73-1.5.04-.27.03-.54-.01-.8-.04-.26-.12-.51-.23-.74-.21-.46-.56-.82-.93-1.07-.37-.25-.79-.38-1.17-.43-.77-.1-1.39.15-1.76.37-.37.23-.53.41-.55.4Z" style="fill: #455a64;"/>
          <path d="M413.19,244.25s-.03-.01-.09-.05c-.06-.04-.15-.08-.26-.15-.23-.14-.57-.34-1-.59h.03c-.45.47-1.05,1.1-1.78,1.86v-.05c.26.39.55.83.86,1.3l.02.02v.02c-.27.46-.48.98-.62,1.55v.03s-.04,0-.04,0c-.47.12-.98.24-1.51.37l.04-.06c.02.81.03,1.67.05,2.57l-.05-.06c.47.1.99.2,1.52.31h.04s.01.05.01.05c.14.5.36,1.03.66,1.52l.02.04-.02.04c-.25.41-.52.87-.8,1.33v-.09c.57.56,1.2,1.17,1.84,1.79h-.09c.4-.27.85-.57,1.3-.86l.04-.02.04.02c.45.25.98.47,1.54.61h.05s.01.06.01.06c.12.47.24.99.37,1.51l-.08-.06c.81-.01,1.69-.03,2.57-.05l-.08.06c.1-.48.21-1,.32-1.52v-.05s.06-.01.06-.01c.51-.14,1.03-.36,1.52-.66h0s.04-.03.04-.03l.04.02c.45.27.89.54,1.33.81h-.1c.6-.61,1.2-1.23,1.79-1.84v.1c-.3-.44-.58-.87-.86-1.3l-.03-.04.02-.04c.27-.49.48-1.01.61-1.54v-.05s.06-.01.06-.01c.51-.13,1.01-.25,1.51-.37l-.06.07c-.01-.88-.03-1.74-.04-2.57l.06.07c-.52-.11-1.02-.21-1.52-.32h-.04s-.01-.05-.01-.05c-.15-.55-.38-1.06-.66-1.52l-.02-.04.02-.04c.28-.46.55-.9.81-1.33v.08c-.64-.63-1.25-1.23-1.84-1.79h.08c-.46.31-.89.59-1.3.86l-.03.02-.03-.02c-.52-.29-1.04-.49-1.55-.61h-.03s0-.04,0-.04c-.13-.55-.25-1.04-.37-1.51l.05.04c-1,.01-1.85.02-2.57.03l.03-.03c-.13.61-.24,1.11-.33,1.52v.02s-.02,0-.02,0c-.54.15-.93.33-1.18.45-.12.06-.21.11-.28.14-.06.03-.09.05-.09.05,0,0,.03-.02.09-.06.06-.04.15-.09.27-.16.25-.13.63-.32,1.17-.48l-.02.02c.08-.42.18-.92.31-1.53v-.03s.03,0,.03,0c.73-.02,1.58-.03,2.57-.06h.04s0,.04,0,.04c.12.47.24.96.38,1.51l-.04-.04c.52.13,1.05.32,1.58.62h-.06c.41-.27.84-.55,1.3-.85l.04-.03.03.03c.59.56,1.2,1.16,1.86,1.78l.04.04-.03.05c-.26.43-.53.87-.8,1.33v-.07c.29.47.52,1,.68,1.56l-.05-.05c.5.1,1.01.21,1.52.32h.06s0,.07,0,.07c.02.84.03,1.69.05,2.57v.06s-.06.01-.06.01c-.5.12-1,.25-1.51.37l.06-.06c-.13.54-.34,1.08-.62,1.58v-.08c.28.43.56.86.85,1.3l.03.05-.04.05c-.59.61-1.18,1.23-1.79,1.85l-.04.05-.05-.03c-.44-.27-.88-.54-1.33-.81h.08,0c-.5.3-1.04.53-1.56.68l.06-.06c-.11.52-.22,1.04-.32,1.52v.06s-.08,0-.08,0c-.89.02-1.76.03-2.57.04h-.06s-.01-.06-.01-.06c-.13-.52-.25-1.04-.37-1.51l.06.06c-.57-.14-1.12-.36-1.58-.62h.08c-.45.29-.9.58-1.3.85l-.05.03-.04-.04c-.64-.62-1.27-1.23-1.85-1.79l-.04-.04.03-.05c.28-.46.56-.92.81-1.33v.07c-.31-.51-.53-1.05-.67-1.56l.05.05c-.53-.11-1.05-.22-1.52-.32h-.05s0-.06,0-.06c-.01-.9-.03-1.76-.04-2.57v-.05s.04-.01.04-.01c.53-.13,1.04-.25,1.51-.37l-.04.04c.14-.58.36-1.11.62-1.57v.05c-.3-.47-.59-.91-.85-1.3l-.02-.03.02-.02c.73-.75,1.34-1.37,1.8-1.84h.01s.02,0,.02,0c.42.26.75.47.98.61.11.07.19.12.25.16.06.04.09.06.09.06Z" style="fill: #263238;"/>
        </g>
        <g>
          <path d="M430.69,207.06c1.28-.33,2.59-.48,3.89-.46l1.73-3.19,5.78,1.63-.19,3.63c1.12.66,2.15,1.47,3.08,2.42l3.48-1.03,2.94,5.24-2.69,2.43c.33,1.29.48,2.59.46,3.89l3.19,1.73-1.62,5.78-3.63-.19c-.66,1.12-1.47,2.15-2.42,3.08l1.03,3.48-5.24,2.94-2.43-2.69c-1.28.33-2.59.48-3.89.46l-1.73,3.19-5.78-1.62.19-3.63c-1.12-.66-2.15-1.47-3.08-2.42l-3.48,1.03-2.94-5.24,2.69-2.43c-.33-1.29-.48-2.59-.46-3.89l-3.19-1.73,1.62-5.78,3.63.19c.66-1.12,1.47-2.15,2.42-3.08l-1.03-3.48,5.24-2.94,2.43,2.69h0ZM431.45,215.64c-3.1,1.74-4.21,5.67-2.46,8.77,1.74,3.1,5.67,4.21,8.77,2.46,3.1-1.74,4.21-5.67,2.46-8.77-1.74-3.1-5.67-4.21-8.77-2.46Z" style="fill: none;"/>
          <path d="M431.45,215.64s.46-.36,1.45-.66c.97-.3,2.57-.47,4.31.26.86.36,1.74.94,2.45,1.79.7.85,1.27,1.92,1.47,3.16.11.61.12,1.26.04,1.9-.07.65-.25,1.3-.54,1.91-.54,1.24-1.53,2.33-2.78,3.04-1.26.69-2.7.97-4.05.79-.67-.08-1.32-.26-1.91-.54-.59-.27-1.14-.61-1.6-1.03-.95-.81-1.57-1.86-1.93-2.9-.36-1.05-.39-2.1-.26-3.02.28-1.87,1.27-3.14,2.03-3.81.78-.69,1.32-.89,1.32-.89.02.04-.49.29-1.22,1-.71.69-1.63,1.95-1.87,3.75-.11.89-.06,1.89.29,2.89.35.98.95,1.98,1.86,2.74.44.39.96.71,1.52.96.56.26,1.17.43,1.81.5,1.27.17,2.63-.1,3.82-.75,1.18-.68,2.11-1.7,2.63-2.87.27-.58.44-1.19.51-1.81.08-.61.08-1.22-.03-1.8-.17-1.17-.71-2.2-1.36-3.02-.66-.82-1.5-1.38-2.31-1.75-1.66-.73-3.21-.61-4.17-.36-.98.26-1.47.57-1.49.53Z" style="fill: #263238;"/>
          <path d="M430.69,207.06s-.06-.05-.16-.16c-.12-.12-.27-.29-.47-.5-.43-.46-1.04-1.13-1.84-2h.07c-1.34.77-3.09,1.77-5.22,2.98l.04-.11c.32,1.05.67,2.22,1.05,3.48l.02.06-.05.05c-.87.85-1.7,1.88-2.39,3.06l-.04.06h-.07c-1.13-.06-2.35-.12-3.63-.18l.13-.1c-.51,1.82-1.05,3.76-1.61,5.79l-.07-.17c.99.53,2.08,1.12,3.2,1.72l.08.04v.09c-.02,1.21.12,2.53.46,3.85l.02.09-.07.07c-.83.75-1.75,1.59-2.69,2.44l.03-.2c.93,1.64,1.92,3.42,2.95,5.23l-.2-.08c1.08-.32,2.27-.68,3.48-1.04l.1-.03.07.08c.85.87,1.89,1.71,3.04,2.39l.09.05v.11c-.06,1.14-.13,2.38-.19,3.63l-.13-.18c1.83.51,3.79,1.06,5.78,1.62l-.21.09c.55-1.01,1.14-2.1,1.73-3.19l.05-.1h.11c1.23.02,2.55-.12,3.84-.45h0s.11-.03.11-.03l.07.08c.82.9,1.63,1.8,2.43,2.69l-.23-.04c1.77-.99,3.52-1.97,5.24-2.94l-.09.21c-.35-1.17-.69-2.33-1.03-3.48l-.03-.11.08-.08c.94-.91,1.74-1.94,2.39-3.04l.06-.09h.11c1.23.07,2.43.13,3.63.19l-.18.13c.56-1.97,1.1-3.9,1.63-5.78l.08.2c-1.08-.59-2.15-1.17-3.19-1.73l-.09-.05v-.1c.02-1.32-.14-2.62-.45-3.85l-.02-.09.07-.06c.92-.83,1.82-1.64,2.7-2.43l-.03.19c-1.03-1.84-2-3.59-2.93-5.24l.16.07c-1.22.36-2.37.7-3.48,1.02l-.08.02-.06-.06c-.96-1-1.99-1.78-3.05-2.41l-.06-.04v-.07c.08-1.32.14-2.5.2-3.63l.08.11c-2.24-.64-4.14-1.18-5.78-1.65l.1-.04c-.7,1.27-1.27,2.31-1.75,3.18l-.02.03h-.04c-1.32-.03-2.29.11-2.93.22-.31.06-.54.1-.72.14-.16.03-.24.05-.24.04,0,0,.08-.03.23-.07.16-.04.39-.1.71-.17.64-.13,1.62-.29,2.95-.28l-.05.03c.47-.87,1.03-1.92,1.71-3.2l.03-.06.06.02c1.64.45,3.55.98,5.79,1.6l.08.02v.09c-.06,1.12-.11,2.31-.18,3.63l-.06-.11c1.07.63,2.13,1.42,3.11,2.43l-.13-.03c1.11-.33,2.25-.68,3.48-1.04l.11-.03.06.1c.93,1.65,1.91,3.39,2.95,5.23l.06.11-.09.08c-.87.79-1.77,1.6-2.69,2.44l.05-.16c.32,1.25.49,2.58.47,3.93l-.09-.15c1.05.57,2.11,1.14,3.19,1.73l.12.06-.04.13c-.53,1.88-1.07,3.81-1.62,5.78l-.04.14h-.14c-1.19-.07-2.4-.13-3.63-.19l.16-.09c-.66,1.13-1.49,2.18-2.45,3.12l.05-.18c.34,1.15.69,2.31,1.03,3.48l.04.14-.13.07c-1.72.97-3.47,1.95-5.24,2.94l-.13.07-.1-.11c-.8-.89-1.62-1.79-2.43-2.69l.18.05h0c-1.32.34-2.67.49-3.93.47l.16-.1c-.59,1.1-1.18,2.18-1.73,3.19l-.07.13-.14-.04c-1.99-.56-3.95-1.11-5.78-1.63l-.14-.04v-.14c.07-1.25.14-2.49.2-3.63l.09.16c-1.18-.7-2.25-1.56-3.11-2.45l.18.05c-1.21.36-2.4.71-3.48,1.03l-.13.04-.07-.12c-1.02-1.82-2.01-3.6-2.93-5.24l-.06-.12.1-.09c.94-.85,1.86-1.68,2.7-2.43l-.05.16c-.35-1.34-.48-2.7-.46-3.93l.08.14c-1.11-.61-2.2-1.2-3.19-1.74l-.1-.06.03-.11c.57-2.03,1.12-3.96,1.64-5.78l.03-.1h.1c1.27.07,2.5.14,3.63.2l-.11.06c.71-1.2,1.56-2.23,2.45-3.09l-.03.11c-.37-1.25-.71-2.43-1.02-3.48l-.02-.07.07-.04c2.14-1.19,3.91-2.17,5.25-2.91l.04-.02.03.04c.77.88,1.37,1.55,1.78,2.02.19.22.34.4.46.53.1.12.15.18.15.19Z" style="fill: #263238;"/>
        </g>
      </g>
      <g>
        <g>
          <g>
            <g>
              <path d="M278.6,78.02l-21.1,3.57c-1.46.25-2.84-.74-3.09-2.19l-4.94-29.21c-.25-1.46.74-2.84,2.19-3.09l13.38-2.27,12.17,8.92,3.58,21.17c.25,1.46-.74,2.84-2.19,3.09Z" style="fill: #ebebeb;"/>
              <path d="M278.6,78.02s.16-.04.44-.15c.28-.11.7-.32,1.08-.77.37-.44.71-1.15.6-1.99-.15-.86-.32-1.84-.52-2.94-.77-4.45-1.87-10.76-3.2-18.38l.08.13c-3.69-2.69-7.8-5.7-12.19-8.9l.18.04c-2.48.42-5.06.86-7.72,1.31-1.33.23-2.68.45-4.04.69-.66.13-1.41.2-2.01.38-.6.2-1.12.66-1.39,1.24-.19.4-.28.86-.23,1.3.06.45.16.95.23,1.42.16.96.32,1.91.48,2.85.32,1.89.63,3.74.94,5.57.61,3.65,1.2,7.18,1.77,10.53.28,1.68.55,3.31.82,4.91.13.8.26,1.58.39,2.35.06.39.13.77.19,1.15.07.38.1.76.23,1.08.24.66.78,1.18,1.41,1.43.31.12.65.18.98.17.32-.01.68-.09,1.03-.14,1.39-.23,2.72-.45,3.99-.66,5.06-.82,9.16-1.49,12.03-1.96,1.4-.22,2.49-.39,3.28-.51.35-.05.64-.09.85-.12.19-.02.29-.03.29-.02,0,0-.1.03-.29.07-.22.04-.5.1-.85.17-.78.14-1.87.34-3.26.6-2.87.5-6.96,1.22-12.01,2.11-1.27.22-2.6.45-3.98.69-.35.05-.68.14-1.08.16-.38.01-.77-.05-1.14-.19-.73-.28-1.35-.88-1.64-1.65-.15-.39-.18-.78-.26-1.15-.07-.38-.13-.76-.2-1.15-.13-.77-.27-1.55-.4-2.35-.27-1.59-.55-3.23-.84-4.9-.57-3.36-1.17-6.88-1.8-10.53-.31-1.83-.63-3.68-.95-5.57-.16-.94-.32-1.89-.48-2.85-.08-.49-.17-.94-.24-1.46-.06-.53.05-1.08.28-1.56.33-.69.95-1.24,1.67-1.48.75-.21,1.39-.26,2.09-.4,1.36-.23,2.71-.46,4.04-.68,2.66-.45,5.24-.88,7.72-1.3l.1-.02.08.06c4.37,3.22,8.47,6.24,12.15,8.95l.07.05v.08c1.27,7.63,2.31,13.96,3.04,18.41.17,1.11.34,2.09.46,2.96.09.91-.29,1.65-.69,2.09-.42.45-.86.65-1.15.75-.3.1-.46.09-.46.09Z" style="fill: #263238;"/>
            </g>
            <path d="M265.04,44.84l1.39,8.22c.23,1.36,1.51,2.27,2.87,2.04l7.9-1.34-12.17-8.92Z" style="fill: #f5f5f5;"/>
            <path d="M266.67,53.76s.23,2.01,2.61,2.28c.09.01.18.01.27.01,1.06,0,8.06.07,8.04-.09-.03-.17-.37-2.21-.37-2.21l-7.9,1.34s-1.98.27-2.64-1.34Z" style="fill: #e0e0e0;"/>
          </g>
          <path d="M264.61,53.03c.02.11-2.15.56-4.85,1.02-2.7.46-4.9.74-4.91.64-.02-.11,2.15-.56,4.85-1.02,2.7-.46,4.9-.74,4.91-.64Z" style="fill: #263238;"/>
          <path d="M271.7,56.61c.02.11-3.56.8-8,1.55-4.44.75-8.05,1.27-8.07,1.17-.02-.11,3.56-.8,8-1.55,4.44-.75,8.05-1.27,8.07-1.17Z" style="fill: #263238;"/>
          <path d="M273.81,60.24c.02.11-3.89.86-8.73,1.67-4.84.82-8.77,1.4-8.79,1.29-.02-.11,3.89-.85,8.73-1.67,4.84-.82,8.77-1.4,8.79-1.29Z" style="fill: #263238;"/>
          <path d="M274.43,63.9c.02.11-3.89.86-8.72,1.67-4.84.82-8.77,1.4-8.79,1.29-.02-.11,3.89-.86,8.73-1.67,4.84-.82,8.77-1.4,8.79-1.29Z" style="fill: #263238;"/>
          <path d="M275.05,67.57c.02.11-3.89.86-8.72,1.67-4.84.82-8.77,1.4-8.79,1.29-.02-.11,3.89-.85,8.73-1.67,4.84-.82,8.77-1.4,8.79-1.29Z" style="fill: #263238;"/>
          <path d="M275.67,71.23c.02.11-3.89.86-8.72,1.67-4.84.82-8.77,1.4-8.79,1.29-.02-.11,3.89-.85,8.73-1.67,4.84-.82,8.77-1.4,8.79-1.29Z" style="fill: #263238;"/>
        </g>
        <path d="M277.21,53.76c.01.07-1.11.32-2.92.67-.95.18-2.02.38-3.18.59-.61.11-1.24.22-1.89.33-.7.12-1.51,0-2.13-.49-.31-.23-.57-.57-.7-.93-.13-.36-.17-.71-.23-1.03-.11-.65-.21-1.28-.31-1.89-.18-1.17-.34-2.25-.49-3.21-.26-1.83-.4-2.96-.33-2.97s.32,1.1.67,2.92c.18.95.38,2.02.59,3.19.11.61.22,1.24.33,1.88.11.67.21,1.29.75,1.66,1.05.84,2.45.21,3.65.1,1.17-.18,2.25-.34,3.21-.49,1.83-.26,2.96-.39,2.97-.33Z" style="fill: #263238;"/>
      </g>
      <path d="M131.92,120.75c3.88-1.63,6.63-5.62,6.66-10.34.02-6.17-4.65-11.2-10.43-11.22-5.78-.03-10.5,4.95-10.52,11.13-.02,4.76,2.76,8.8,6.68,10.43-16.12,2.43-15.39,19.95-15.39,19.95l38.13.18s.87-17.72-15.11-20.13Z" style="fill: #0071e3;"/>
      <g>
        <path d="M404.93,240.68c.92.92,2.42.92,3.34,0s.92-2.42,0-3.34c-.92-.92-2.42-.92-3.34,0s-.92,2.42,0,3.34Z" style="fill: #263238;"/>
        <path d="M406.6,239.01s-.17.23-.54.63c-.42.44-.96,1.02-1.64,1.72-1.5,1.53-3.57,3.66-6.11,6.26-5.25,5.29-12.42,12.5-20.33,20.47-2.2,2.19-4.34,4.33-6.38,6.37l-.13.13-.18-.05c-8.74-2.54-16.41-4.63-21.91-5.98-2.75-.67-4.96-1.15-6.49-1.4-.77-.12-1.36-.18-1.76-.17-.2,0-.35.04-.43.09-.09.05-.08.11-.1.11,0,0-.03-.07.06-.15.09-.07.25-.13.45-.15.41-.05,1.02-.03,1.8.06,1.56.17,3.79.6,6.56,1.22,5.54,1.24,13.23,3.26,21.99,5.77l-.31.08c2.04-2.04,4.17-4.18,6.37-6.38,7.97-7.91,15.18-15.08,20.47-20.33,2.6-2.54,4.72-4.61,6.26-6.11.71-.67,1.28-1.22,1.72-1.64.4-.37.62-.56.63-.54Z" style="fill: #263238;"/>
      </g>
      <g>
        <path d="M266.9,97.58c.92.92,2.42.92,3.34,0s.92-2.42,0-3.34c-.92-.92-2.42-.92-3.34,0s-.92,2.42,0,3.34Z" style="fill: #263238;"/>
        <path d="M268.57,95.91s-.15.22-.49.59c-.39.42-.89.94-1.51,1.59-1.39,1.43-3.3,3.38-5.63,5.78-4.85,4.89-11.46,11.54-18.75,18.89-3.03,3.02-5.94,5.93-8.61,8.59l.09-.23c.34,7.37.63,13.7.84,18.3.08,2.19.14,3.96.19,5.28,0,.56.02,1.03.02,1.41,0,.32,0,.49-.03.49-.02,0-.04-.16-.08-.48-.03-.38-.07-.84-.12-1.4-.09-1.31-.21-3.08-.36-5.27-.27-4.59-.64-10.92-1.07-18.28v-.14s.09-.1.09-.1c2.66-2.67,5.57-5.58,8.59-8.61,7.35-7.3,14-13.9,18.89-18.75,2.39-2.33,4.35-4.24,5.78-5.63.65-.62,1.18-1.11,1.59-1.51.37-.34.57-.51.59-.49Z" style="fill: #263238;"/>
      </g>
      <g>
        <path d="M367.18,367.36c-.24,1.99-2.04,3.42-4.04,3.18-1.99-.24-3.42-2.04-3.18-4.04.24-1.99,2.04-3.42,4.03-3.18,1.99.24,3.42,2.04,3.18,4.04Z" style="fill: #263238;"/>
        <path d="M362.93,366.86c-.11.14-12.76-9.76-28.24-22.12-15.49-12.36-27.95-22.49-27.84-22.63s12.76,9.76,28.24,22.12c15.48,12.35,27.95,22.49,27.83,22.63Z" style="fill: #263238;"/>
      </g>
      <g>
        <path d="M142.65,151.49c.92.92,2.42.92,3.34,0s.92-2.42,0-3.34c-.92-.92-2.42-.92-3.34,0s-.92,2.42,0,3.34Z" style="fill: #263238;"/>
        <path d="M144.13,150.01c.13-.13,6.03,5.57,13.18,12.72,7.15,7.15,12.85,13.05,12.72,13.18-.13.13-6.03-5.57-13.18-12.72-7.15-7.15-12.84-13.05-12.72-13.18Z" style="fill: #263238;"/>
      </g>
      <g>
        <path d="M353.2,147.22c.92.92,2.42.92,3.34,0,.92-.92.92-2.42,0-3.34-.92-.92-2.42-.92-3.34,0-.92.92-.92,2.42,0,3.34Z" style="fill: #263238;"/>
        <path d="M354.29,146.14c.13.13-7.49,7.95-17.01,17.47-9.52,9.53-17.35,17.14-17.48,17.01-.13-.13,7.49-7.95,17.01-17.48s17.35-17.14,17.47-17.01Z" style="fill: #263238;"/>
      </g>
      <path d="M306.3,182.98s-.38-.33-1.09-.99c-.73-.65-1.74-1.7-3.2-2.92-2.85-2.52-7.27-6.04-13.46-9.77-3.13-1.81-6.66-3.75-10.73-5.43-4.04-1.72-8.55-3.36-13.54-4.57-9.94-2.49-21.78-3.65-34.6-1.92-6.4.84-13.01,2.47-19.61,4.95-6.59,2.48-13.2,5.78-19.44,10.12-6.25,4.3-12.21,9.5-17.47,15.65-2.69,3.02-5.09,6.36-7.4,9.81-2.26,3.49-4.3,7.18-6.13,11.03-7.22,15.43-10.33,33.86-7.46,52.24.67,4.59,1.79,9.16,3.19,13.66.68,2.26,1.54,4.47,2.38,6.69.94,2.18,1.87,4.39,2.97,6.51,4.26,8.59,10.06,16.55,16.98,23.55,7,6.92,14.95,12.73,23.55,16.99,2.13,1.11,4.33,2.03,6.52,2.98,2.22.84,4.43,1.71,6.7,2.39,4.5,1.4,9.07,2.53,13.66,3.19,18.38,2.87,36.81-.23,52.25-7.45,3.85-1.83,7.54-3.88,11.04-6.14,3.45-2.31,6.79-4.72,9.81-7.4,6.15-5.26,11.35-11.22,15.65-17.47,4.33-6.24,7.64-12.84,10.11-19.44,2.48-6.6,4.1-13.21,4.94-19.61,1.73-12.82.57-24.66-1.92-34.6-1.22-4.99-2.86-9.5-4.57-13.54-1.69-4.06-3.62-7.6-5.43-10.72-3.74-6.19-7.25-10.61-9.77-13.46-1.22-1.46-2.27-2.47-2.92-3.2-.67-.72-.99-1.09-.99-1.09,0,0,1.45,1.38,4.01,4.21,2.56,2.83,6.11,7.22,9.89,13.41,1.83,3.12,3.79,6.66,5.5,10.73,1.74,4.05,3.4,8.57,4.64,13.57,2.53,9.97,3.73,21.86,2.02,34.75-.83,6.44-2.45,13.09-4.93,19.73-2.48,6.63-5.79,13.29-10.14,19.57-4.32,6.29-9.54,12.3-15.72,17.6-3.04,2.71-6.39,5.13-9.87,7.46-3.51,2.28-7.23,4.34-11.1,6.19-15.53,7.29-34.08,10.43-52.6,7.54-4.63-.67-9.22-1.8-13.76-3.21-2.28-.68-4.5-1.55-6.74-2.4-2.2-.95-4.42-1.88-6.56-2.99-8.66-4.29-16.67-10.13-23.72-17.11-6.97-7.05-12.81-15.06-17.1-23.72-1.11-2.14-2.04-4.36-2.99-6.56-.85-2.24-1.71-4.46-2.4-6.74-1.41-4.54-2.54-9.13-3.21-13.76-2.88-18.51.26-37.06,7.54-52.59,1.85-3.88,3.91-7.59,6.19-11.1,2.33-3.47,4.75-6.82,7.46-9.87,5.3-6.18,11.31-11.4,17.6-15.72,6.28-4.35,12.93-7.66,19.57-10.14,6.64-2.48,13.29-4.1,19.73-4.93,12.89-1.71,24.78-.51,34.75,2.02,5,1.24,9.52,2.9,13.57,4.64,4.07,1.71,7.61,3.67,10.73,5.5,6.19,3.78,10.59,7.34,13.42,9.89,2.83,2.56,4.21,4.01,4.21,4.01Z" style="fill: #263238;"/>
      <path d="M313.16,318.66c-39.78,39.78-104.5,39.78-144.28,0-39.78-39.78-39.78-104.5,0-144.28.74-.74,1.93-.74,2.66,0,.74.74.74,1.93,0,2.66-38.31,38.31-38.31,100.64,0,138.95,38.31,38.31,100.64,38.31,138.95,0s38.31-100.64,0-138.94c-.74-.74-.74-1.93,0-2.66.74-.74,1.93-.74,2.66,0,39.78,39.78,39.78,104.5,0,144.27Z" style="fill: #263238;"/>
      <path d="M235.25,364.02s-.11,0-.32,0c-.24-.02-.55-.04-.93-.07-.86-.07-2.07-.18-3.62-.31-1.59-.1-3.51-.42-5.77-.76-2.27-.28-4.82-.87-7.66-1.46-5.66-1.32-12.42-3.28-19.75-6.35-3.67-1.5-7.46-3.33-11.33-5.44-3.86-2.12-7.8-4.5-11.61-7.41l.33.04c-6.24,2.95-12.93,6.11-19.84,9.37l-.56.26.1-.61c.26-1.67.54-3.46.82-5.26,1.06-6.73,2.09-13.29,3.08-19.57l.1.28c-7.68-7.15-13.48-15.22-17.67-22.97-4.2-7.76-6.86-15.19-8.59-21.47-1.72-6.29-2.53-11.46-2.94-15.02-.2-1.78-.29-3.16-.34-4.1-.01-.44-.02-.79-.03-1.06,0-.24,0-.36.02-.36,0,0,.02.12.04.36.02.27.05.62.09,1.06.08.93.21,2.31.45,4.08.47,3.54,1.34,8.68,3.11,14.94,1.77,6.24,4.46,13.62,8.68,21.32,4.2,7.69,9.98,15.69,17.62,22.77l.12.12-.03.17c-.98,6.28-2.01,12.84-3.06,19.57-.28,1.8-.56,3.59-.82,5.26l-.46-.35c6.92-3.26,13.61-6.41,19.85-9.35l.17-.08.16.12c3.74,2.87,7.68,5.26,11.5,7.38,3.84,2.1,7.6,3.94,11.26,5.46,7.28,3.09,14,5.09,19.63,6.47,2.83.62,5.37,1.23,7.63,1.54,2.24.37,4.16.72,5.74.85,1.55.18,2.75.32,3.61.41.39.05.69.09.93.12.21.03.31.05.31.06Z" style="fill: #263238;"/>
      <g>
        <g>
          <path d="M145.28,301.6c-.08-.06-.11,1.22-1.68,2.38-.76.53-1.95,1-3.24.63-1.26-.35-2.49-1.59-2.74-3.24-.13-.81.06-1.69.53-2.47.46-.78,1.15-1.47,1.95-2.09,1.56-1.22,3.71-2.23,4.95-4.37,1.24-2.04,1.62-4.74.84-7.23-.38-1.24-1-2.43-1.83-3.47-.82-1.06-1.9-1.91-2.95-2.72-1.06-.81-2.12-1.58-2.95-2.51-.83-.92-1.39-2.05-1.42-3.23-.04-1.18.38-2.33.97-3.33.59-1.01,1.36-1.88,2.18-2.67,1.64-1.58,3.41-2.99,4.51-4.82,1.1-1.81,1.5-3.82,1.42-5.59-.07-1.8-.72-3.32-1.26-4.59-.55-1.27-1.02-2.36-1.26-3.3-.52-1.88-.09-2.97-.18-2.97-.01,0-.03.06-.07.19-.03.13-.1.32-.12.58-.09.51-.09,1.3.13,2.26.21.97.65,2.1,1.17,3.38.51,1.28,1.1,2.75,1.14,4.46.05,1.7-.36,3.6-1.42,5.29-1.05,1.71-2.78,3.07-4.47,4.67-.84.8-1.67,1.72-2.3,2.79-.63,1.07-1.11,2.32-1.07,3.67.03,1.35.67,2.65,1.57,3.64.9,1.01,1.99,1.79,3.04,2.6,1.06.8,2.07,1.61,2.84,2.6.78.98,1.37,2.1,1.73,3.26.73,2.32.39,4.83-.75,6.74-1.11,1.97-3.15,2.96-4.77,4.25-.82.65-1.55,1.39-2.05,2.26-.5.86-.72,1.87-.55,2.79.32,1.84,1.69,3.15,3.1,3.51,1.44.37,2.71-.18,3.49-.78.8-.61,1.19-1.33,1.37-1.81.17-.5.16-.78.16-.78Z" style="fill: #21282d;"/>
          <path d="M75.48,238.27c-2.17-.12-4.14-1.4-6.3-1.62-3.09-.32-5.98,1.53-8.29,3.6-2.27,2.03-4.32,4.4-5.51,7.2-1.99,4.66-1.45,10.03-.09,14.91,1.22,4.39,3.01,9.26.85,13.26-.68,1.26-1.71,2.3-2.51,3.49-1.86,2.75-2.45,6.33-1.56,9.54.86,3.09,2.97,5.7,3.96,8.75.98,3.02.79,6.4-.52,9.29-.74,1.63-1.82,3.09-2.51,4.75-1.08,2.59-1.12,5.58-.13,8.2.83,2.21,2.37,4.16,2.78,6.48.65,3.68-1.66,7.36-1.18,11.07,8.98,2.25,18.72,4.44,27.24.85.54-.23,1.12-.53,1.34-1.07.17-.42.08-.89,0-1.33-1.12-5.31-3.27-10.39-6.28-14.9-2.02-3.02-4.54-6.22-4.07-9.81.63-4.76,6.42-8.35,5.31-13.03-.68-2.88-3.73-4.52-5.18-7.09-1.35-2.39-1.18-5.36-.5-8.02.67-2.66,1.81-5.2,2.29-7.91.67-3.74.11-7.79,1.78-11.2" style="fill: #21282d;"/>
          <path d="M79.33,235.36c.7.7.84,1.8.85,2.93,0,1.15-.14,2.36-.41,3.65-.25,1.29-.59,2.47-1.02,3.53-.44,1.04-.99,2-1.91,2.38-.88.37-2.07-.05-3-1.39-.47-.66-.83-1.54-1.04-2.56-.19-1.02-.21-2.17.02-3.34.24-1.17.7-2.23,1.26-3.1.58-.86,1.25-1.53,1.94-1.96,1.38-.88,2.63-.81,3.31-.13Z" style="fill: #0071e3;"/>
          <path d="M68.68,271.13c-1.25-3.56-.11-7.52,1.59-10.89,1.7-3.37,3.95-6.48,5.11-10.07,1.26-3.88,1.18-8.13,2.73-11.91,1.6-3.91,4.97-7.05,8.98-8.38,2.43-.81,5.12-1.01,7.22-2.47,2.17-1.51,3.28-4.08,4.92-6.15,2.66-3.36,5.22-6.25,9.18-7.9,4.51-1.88,11.11-2.58,15.64-.73,2.83,1.16,5.03,3.56,6.43,6.28,1.39,2.73,2.05,5.77,2.47,8.8,4.63.89,7.31,5.63,9.36,9.87,1.16,2.39,2.33,4.86,2.42,7.51.1,2.95-2.44,13.09-3.87,15.68-7.39,13.36-18.38,16.17-31.74,23.56-5.16,2.85-8.35,9.41-14.24,9.18-6.86-.26-13.54-.53-17.52-6.13-3.98-5.6-8.47-10.88-9.06-17.72" style="fill: #21282d;"/>
          <path d="M139.34,250c-.38-9.57-6.43-21.44-15.97-20.66l-29.91,6.81c-2.9.24-5.14,2.65-5.15,5.56l1.48,71.76c-.07.01-.14.03-.21.04,0,0,6.25,20.39,26.05,14.73,3.93-1.12,5.82-5.34,6.7-9.7l.2.03c.02-.52.04-1,.06-1.5.78-5.04.37-9.84.37-9.84h0c.21-5.79.26-8.16.26-8.1,0,0,12.25-1.74,15.16-17.6,1.45-7.89,1.36-20.89.94-31.52Z" style="fill: #996964;"/>
          <path d="M123.24,299.12s-10.73.44-21.19-6.2c0,0,5.09,11.42,21.07,10.3l.13-4.11Z" style="fill: #784d48;"/>
          <path d="M86.84,237.78c1.69-2.1,4.42-2.99,7.02-3.7,11.19-3.07,22.76-4.81,34.36-5.16,1.19,2.49-.45,5.56-2.78,7.06-2.32,1.49-5.16,1.89-7.83,2.6-2.67.7-5.46,1.92-6.78,4.35-1.4,2.58-.77,5.88-2.04,8.53-2.18,4.56-8.94,5.42-11.1,10-1.63,3.46-.57,2.67-.43,6.49.16,4.33-2.51,4.99-5.93,7.64-2.7,2.09-7.91,4.5-11.31,4.22.59-13.66,4.12-20.23,4.71-33.9.12-2.85.32-5.9,2.1-8.13Z" style="fill: #21282d;"/>
          <path d="M105.94,216.05s.09-.08.28-.21c.2-.12.47-.33.86-.52.76-.43,1.94-.94,3.47-1.3,1.53-.37,3.42-.53,5.49-.25,2.06.27,4.29,1.03,6.28,2.39,1.98,1.39,3.47,3.2,4.45,5.04.99,1.84,1.51,3.67,1.7,5.23.2,1.56.14,2.84,0,3.7-.04.44-.14.76-.19.99-.05.22-.08.34-.1.34-.11,0,.49-1.92.03-5-.22-1.53-.76-3.32-1.74-5.11-.98-1.79-2.44-3.55-4.37-4.9-1.94-1.32-4.11-2.07-6.13-2.36-2.02-.29-3.88-.16-5.39.17-3.04.66-4.63,1.89-4.67,1.79Z" style="fill: #0f4f84;"/>
          <path d="M90.63,228.95s.16-.02.46-.01c.3.02.74-.02,1.3-.12.55-.12,1.22-.32,1.94-.69.72-.37,1.49-.87,2.31-1.48.82-.61,1.68-1.33,2.63-2.07.95-.74,2.02-1.51,3.26-2.09,2.46-1.18,5.49-1.86,8.65-1.69,3.16.17,6.1,1.15,8.41,2.63,2.32,1.46,4.03,3.3,5.2,5,1.18,1.7,1.83,3.26,2.19,4.35.18.55.3.98.36,1.27.07.29.1.45.09.45-.04.01-.17-.61-.58-1.68-.4-1.07-1.07-2.59-2.26-4.25-1.18-1.65-2.88-3.45-5.17-4.86-2.27-1.43-5.16-2.39-8.26-2.55-3.1-.17-6.06.49-8.49,1.63-1.22.56-2.26,1.3-3.22,2.03-.96.73-1.83,1.44-2.66,2.04-.83.6-1.63,1.1-2.37,1.46-.74.36-1.43.55-2,.65-.57.08-1.02.1-1.33.06-.3-.03-.46-.05-.46-.06Z" style="fill: #0f4f84;"/>
          <path d="M77.21,245.98c.08-.01.1,1.55.84,3.9.71,2.34,2.31,5.47,5.11,7.98,2.81,2.51,6.1,3.73,8.51,4.18,2.42.47,3.97.31,3.97.39,0,.01-.09.03-.28.04-.18.01-.45.05-.8.04-.7.02-1.71-.03-2.94-.23-2.45-.39-5.83-1.6-8.7-4.16-2.87-2.56-4.45-5.78-5.11-8.17-.34-1.2-.5-2.2-.56-2.89-.04-.35-.04-.62-.05-.8,0-.18,0-.28.01-.28Z" style="fill: #0f4f84;"/>
          <path d="M92.33,269.62s-.39-.03-1.08-.17c-.69-.14-1.68-.37-2.88-.74-2.38-.74-5.71-2.1-8.55-4.77-2.83-2.68-4.2-6.14-4.42-8.65-.12-1.26-.03-2.29.11-2.99.05-.35.15-.61.19-.79.05-.18.08-.27.1-.27.1,0-.46,1.53-.15,4.01.28,2.45,1.65,5.8,4.41,8.42,2.78,2.61,6.04,3.99,8.38,4.79,1.18.4,2.16.67,2.84.85.68.18,1.05.28,1.05.3Z" style="fill: #0f4f84;"/>
          <path d="M142.3,226.41c-.01.12-2.36-.47-5.22.09-2.86.53-4.83,1.94-4.89,1.83-.02-.03.43-.43,1.27-.9.84-.48,2.09-1,3.55-1.28,1.46-.28,2.81-.25,3.77-.12.96.13,1.53.33,1.52.37Z" style="fill: #21282d;"/>
          <path d="M135.93,218.16s.14.63.12,1.67c-.02,1.04-.2,2.47-.69,3.99-.49,1.51-1.18,2.79-1.77,3.64-.59.86-1.04,1.31-1.07,1.29-.1-.06,1.56-2.05,2.51-5.03.98-2.97.79-5.56.91-5.55Z" style="fill: #21282d;"/>
          <path d="M69.89,294.89c.04-.06.82.64,2.33,1.29,1.49.65,3.8,1.16,6.25.64,2.45-.53,4.35-1.94,5.44-3.14,1.11-1.21,1.53-2.17,1.6-2.13.02,0-.07.25-.29.67-.21.42-.58.99-1.12,1.63-1.07,1.28-3.01,2.78-5.55,3.32-2.54.54-4.93-.03-6.42-.76-.76-.36-1.33-.74-1.69-1.03-.37-.29-.55-.48-.53-.49Z" style="fill: #21282d;"/>
          <path d="M65.38,289.98s.42.05,1.18.15c.74.08,1.89.26,3.15-.21.61-.24,1.19-.74,1.54-1.42.17-.34.29-.73.28-1.13-.01-.4-.16-.79-.44-1.1-.56-.61-1.62-.77-2.43-.36-.82.41-1.32,1.39-1.33,2.38-.02,1,.47,1.93,1.12,2.62.65.7,1.47,1.19,2.29,1.5,1.67.59,3.37.44,4.63,0,1.29-.42,2.16-1.14,2.69-1.67.12-.13.24-.26.34-.37.08-.11.16-.21.22-.29.12-.16.19-.24.2-.23.01,0-.04.1-.15.27-.06.1-.13.2-.2.32-.1.12-.21.25-.33.4-.51.57-1.39,1.35-2.71,1.81-1.29.49-3.05.68-4.82.08-.87-.31-1.74-.82-2.44-1.57-.69-.74-1.23-1.74-1.22-2.86,0-1.09.55-2.2,1.53-2.68.95-.47,2.15-.28,2.83.45.33.37.5.85.51,1.31,0,.46-.13.9-.33,1.27-.4.75-1.04,1.28-1.71,1.52-1.35.48-2.52.23-3.26.12-.38-.07-.67-.14-.86-.19-.2-.05-.3-.08-.29-.1Z" style="fill: #21282d;"/>
          <path d="M92.47,263.31c-.25-.12-9.96-3.4-10.05,6.65-.09,10.04,10.01,8.07,10.03,7.78.02-.29.02-14.43.02-14.43Z" style="fill: #996964;"/>
          <path d="M89.42,273.9s-.18.12-.47.25c-.29.13-.79.22-1.31.01-1.06-.4-1.94-2.09-1.97-3.9-.02-.91.18-1.78.51-2.5.31-.73.79-1.24,1.33-1.33.53-.12.91.21,1.03.49.13.28.07.48.12.5.03.03.22-.17.14-.58-.04-.2-.16-.44-.39-.63-.24-.2-.59-.3-.97-.26-.77.05-1.48.75-1.84,1.54-.41.79-.65,1.77-.63,2.79.05,2.02,1.06,3.93,2.51,4.36.7.19,1.3-.02,1.6-.25.31-.25.37-.47.33-.49Z" style="fill: #784d48;"/>
          <path d="M84.03,275.55s-.15.11-.46.29c-.3.19-.78.42-1.34.78-1.11.73-2.62,2.1-3.54,4.32-.46,1.1-.74,2.41-.71,3.81.02,1.4.38,2.9,1.13,4.28.73,1.39,1.9,2.64,3.34,3.55,1.46.89,3.21,1.42,5.03,1.39.9-.02,1.8-.14,2.64-.41.85-.24,1.64-.63,2.36-1.09,1.45-.92,2.55-2.22,3.28-3.61,1.45-2.83,1.23-5.94.26-8.1-.97-2.2-2.51-3.54-3.63-4.25-1.14-.72-1.87-.92-1.86-.97,0,0,.75.15,1.93.85,1.16.68,2.76,2.01,3.79,4.26.5,1.12.83,2.45.84,3.9,0,1.44-.29,3-1.04,4.45-.74,1.45-1.88,2.8-3.38,3.75-.74.48-1.56.88-2.44,1.14-.87.28-1.8.41-2.74.43-1.89.03-3.71-.53-5.22-1.45-1.5-.95-2.7-2.24-3.45-3.69-.77-1.44-1.13-2.98-1.14-4.43-.02-1.45.28-2.79.77-3.91.98-2.27,2.55-3.64,3.7-4.34.58-.35,1.07-.56,1.38-.73.32-.16.49-.24.5-.23Z" style="fill: #fff;"/>
          <path d="M76.41,244.91s0,.17,0,.49c-.03.32-.01.8-.14,1.4-.15,1.22-.62,2.95-1.48,4.96-.85,2.02-2.12,4.3-3.45,6.86-.67,1.28-1.32,2.64-1.88,4.09-.58,1.45-1.02,3.01-1.23,4.64-.41,3.28.19,6.48,1.36,9.08.57,1.31,1.32,2.46,2.07,3.49.76,1.03,1.5,1.97,2.17,2.82,1.36,1.7,2.51,3.04,3.32,3.96.38.44.69.79.92,1.06.21.24.32.37.31.38,0,0-.13-.11-.36-.33-.23-.23-.56-.57-.97-1.01-.83-.89-2.02-2.21-3.41-3.89-.69-.85-1.44-1.77-2.22-2.81-.77-1.03-1.54-2.19-2.13-3.53-1.21-2.64-1.84-5.91-1.41-9.26.21-1.67.67-3.26,1.26-4.72.58-1.47,1.24-2.84,1.92-4.12,1.35-2.56,2.63-4.81,3.51-6.81.88-1.99,1.38-3.69,1.57-4.89.14-.59.15-1.07.2-1.39.04-.32.07-.49.08-.49Z" style="fill: #0f4f84;"/>
          <path d="M45.05,301.92s-.02-.09-.1-.23c-.08-.14-.25-.33-.55-.44-.3-.1-.72-.12-1.14.07-.42.19-.74.68-.88,1.27-.14.59-.11,1.28.01,2.02.12.73.37,1.53.95,2.16.58.63,1.53.93,2.49.77.95-.15,1.92-.67,2.57-1.53.65-.86.98-2,1.05-3.18.07-1.19-.09-2.44-.35-3.7-.51-2.54-1.47-5.16-2.29-7.98-.81-2.8-1.41-5.94-.84-9.14.3-1.58.92-3.17,1.97-4.48,1.03-1.31,2.32-2.41,3.05-3.91.76-1.48,1.1-3.13,1.2-4.75.1-1.63-.04-3.24-.28-4.81-.49-3.13-1.26-6.14-1.31-9.11-.06-2.96.65-5.76,1.84-8.1,1.18-2.35,2.79-4.26,4.53-5.66,1.74-1.41,3.58-2.3,5.25-2.87,1.68-.57,3.2-.8,4.44-.88,1.24-.08,2.21,0,2.86.06.32.04.57.08.74.11.17.03.25.04.25.05,0,0-.09,0-.25-.01-.18-.02-.43-.04-.74-.07-.65-.04-1.61-.1-2.84,0-1.23.1-2.73.35-4.38.93-1.64.58-3.46,1.48-5.16,2.88-1.7,1.39-3.27,3.28-4.42,5.6-1.15,2.31-1.85,5.06-1.77,7.96.06,2.91.84,5.91,1.33,9.06.25,1.58.39,3.22.29,4.88-.1,1.66-.44,3.35-1.24,4.89-.77,1.57-2.09,2.7-3.09,3.96-1.01,1.26-1.61,2.79-1.9,4.33-.56,3.12,0,6.2.81,8.99.8,2.81,1.76,5.43,2.26,8.01.26,1.28.42,2.55.33,3.78-.08,1.22-.43,2.41-1.13,3.32-.7.91-1.73,1.45-2.74,1.6-1.02.17-2.06-.17-2.67-.86-.62-.68-.85-1.53-.97-2.27-.11-.75-.13-1.46.02-2.08.15-.61.5-1.13.97-1.33.46-.2.9-.16,1.21-.04.32.12.49.34.56.49.07.15.07.24.07.24Z" style="fill: #21282d;"/>
        </g>
        <path d="M92.57,312.32s13.12,6.62,19.73,5.44c8.27-1.48,10.34-5.04,10.34-5.04l3.32,7.56,23.79,154.47h-78.13l16.52-158.25,4.43-4.19Z" style="fill: #0071e3;"/>
        <g>
          <path d="M115.74,354.17s-4.37-22.42-22.34-40.05l-5.35-15.18s-6.7,1.39-7.71,4.43c-1.01,3.04-1.52,7.34-1.52,7.34,0,0-23.53,4.55-27.07,9.11-3.54,4.55,15.69,87.79,15.69,87.79,0,0-14.24,32.9-15.79,44.28-1.81,13.32-1.81,22.86-1.81,22.86h67.23c0-7.08,2.73-68.66,2.73-68.66l-4.06-51.92Z" style="fill: #0f4f84;"/>
          <g style="opacity: .3;">
            <path d="M82.75,321.23c.58,2.14,1.74,4.12,3.33,5.68-.37-2.07.84-4.21,2.63-5.32s4.02-1.31,6.09-.97c2.08.33,4.04,1.15,5.97,1.97-1.54-2.27-3.83-4.76-5.71-6.7-.8-.83-.96-1.3-2.04-1.7,0,0-3.49,1.47-4.87,2.32-2.33,1.44-3.71,2.78-5.4,4.72"/>
          </g>
          <path d="M93.4,314.13c.02.08-1.53.36-3.77,1.47-1.11.56-2.37,1.36-3.61,2.45-1.23,1.09-2.44,2.45-3.5,4.03-.22.32-.42.65-.62.96l-.16.24-.15-.24c-1.86-3.1-2.59-6.32-2.76-8.6-.09-1.15-.07-2.08-.02-2.71.02-.32.06-.56.08-.73.02-.17.04-.25.05-.25.03,0,.01.35,0,.99,0,.63,0,1.55.13,2.69.23,2.25.99,5.4,2.82,8.44h-.3c.2-.31.4-.65.63-.97,1.08-1.6,2.31-2.99,3.58-4.08,1.27-1.09,2.57-1.88,3.71-2.42,1.14-.54,2.12-.85,2.8-1.03.34-.09.61-.14.79-.18.18-.04.28-.05.28-.04Z" style="fill: #21282d;"/>
          <path d="M110.19,370.3s-.05-.2-.11-.59c-.06-.42-.14-.98-.25-1.69-.05-.37-.11-.78-.17-1.22-.09-.45-.18-.93-.28-1.44-.2-1.03-.4-2.22-.73-3.5-1.19-5.17-3.34-12.2-6.48-19.66-1.56-3.74-3.18-7.24-4.78-10.36-1.57-3.14-3.14-5.88-4.49-8.16-1.38-2.27-2.57-4.05-3.42-5.27-.42-.58-.75-1.04-1-1.39-.23-.32-.34-.49-.33-.5,0,0,.14.15.39.45.26.33.61.78,1.05,1.35.89,1.19,2.11,2.96,3.52,5.22,1.38,2.27,2.98,5.01,4.57,8.15,1.62,3.12,3.25,6.63,4.81,10.38,3.15,7.48,5.27,14.55,6.4,19.74.31,1.29.5,2.48.68,3.52.09.52.17,1,.25,1.45.05.45.1.86.14,1.23.08.71.14,1.28.18,1.7.04.39.05.59.04.6Z" style="fill: #21282d;"/>
          <path d="M84.88,426.42s-.06.1-.19.27c-.16.2-.36.43-.6.72-.56.66-1.31,1.55-2.23,2.63-1.87,2.22-4.42,5.33-7.12,8.84-2.7,3.52-5.04,6.78-6.7,9.17-.8,1.16-1.47,2.11-1.96,2.83-.22.3-.39.56-.54.76-.13.17-.2.26-.21.25-.01,0,.04-.11.15-.29.13-.22.29-.48.49-.8.43-.69,1.07-1.68,1.87-2.89,1.61-2.42,3.92-5.72,6.63-9.24,2.71-3.52,5.29-6.61,7.22-8.79.96-1.09,1.75-1.96,2.31-2.56.26-.27.47-.49.65-.68.15-.15.23-.23.24-.22Z" style="fill: #21282d;"/>
          <path d="M91.25,432.74s-.06.12-.21.32c-.18.23-.4.52-.67.87-.59.75-1.45,1.81-2.55,3.11-2.2,2.59-5.35,6.08-9.04,9.72-3.72,3.68-7.29,6.8-9.91,8.96l-.09.07-.08-.08c-1.18-1.13-2.15-2.06-2.86-2.74-.31-.31-.56-.56-.76-.76-.17-.18-.26-.27-.25-.28,0,0,.11.07.3.23.21.19.48.42.81.71.73.66,1.72,1.56,2.94,2.66h-.16c2.57-2.21,6.1-5.35,9.82-9.03,3.68-3.63,6.86-7.08,9.1-9.63,1.09-1.25,1.98-2.28,2.64-3.03.29-.33.53-.61.72-.82.17-.19.26-.28.27-.27Z" style="fill: #21282d;"/>
          <path d="M90.95,432.47c-.07.07-1.5-1.38-3.18-3.22-1.68-1.85-2.99-3.39-2.92-3.46.07-.07,1.5,1.38,3.18,3.22,1.68,1.85,2.99,3.39,2.92,3.46Z" style="fill: #21282d;"/>
          <g style="opacity: .3;">
            <path d="M117.98,392.59c-.74-1.1-2.25-1.32-3.58-1.31-5.43.04-10.7,2.02-15.35,4.82-4.65,2.8-8.76,6.41-12.83,9.99-1.31,1.15-2.75,2.64-2.45,4.36.2,1.18,1.08.24,1.45,1.37.43,1.33,2.2,4.96,2.2,4.96-.89,1.07-5.52,5.35-6.77,5.98-6.78,3.39-13.41,4.64-19.86,1.6l-.81,1.43c2.99,3.91,6.74,4.1,11.66,3.88,4.92-.23,9.59-2.22,13.86-4.67,2.87-1.65,5.88-3.96,6.21-7.26.15-1.46-.27-2.95-.01-4.4.58-3.26,4.12-4.91,7.05-6.46,4.73-2.52,8.89-6.1,12.09-10.39,1.72.46,3.56.92,5.24.32,1.68-.6,2.9-2.73,1.92-4.21Z"/>
          </g>
          <path d="M116.64,365.73s-.04-.2-.08-.58c-.04-.42-.1-.98-.16-1.68-.11-1.46-.38-3.57-.75-6.16-.44-2.58-.99-5.65-1.95-8.98-.42-1.68-1.04-3.39-1.63-5.17-.34-.88-.68-1.77-1.03-2.68-.35-.91-.78-1.79-1.18-2.71-1.66-3.63-3.54-6.95-5.43-9.85-.98-1.42-1.88-2.81-2.82-4.02-.46-.61-.91-1.21-1.34-1.78-.45-.55-.88-1.09-1.29-1.6-.81-1.03-1.6-1.91-2.28-2.7-.67-.79-1.28-1.46-1.78-1.99-.48-.52-.85-.94-1.13-1.25-.26-.29-.39-.44-.38-.45,0,0,.16.13.43.4.29.3.69.7,1.18,1.21.52.52,1.13,1.17,1.82,1.96.69.78,1.5,1.65,2.33,2.67.42.51.86,1.04,1.32,1.59.44.57.89,1.16,1.36,1.77.96,1.21,1.87,2.59,2.86,4.02,1.91,2.9,3.81,6.23,5.48,9.88.4.92.83,1.81,1.18,2.72.35.91.7,1.81,1.03,2.69.59,1.8,1.2,3.52,1.62,5.2.95,3.34,1.47,6.44,1.89,9.03.34,2.6.58,4.72.64,6.18.04.71.07,1.27.1,1.69.02.39.02.59,0,.59Z" style="fill: #21282d;"/>
          <path d="M108.47,474.76s0-.07,0-.21c.02-.16.04-.36.06-.61.07-.56.16-1.35.28-2.36.13-1.02.28-2.27.44-3.73.16-1.45.36-3.11.53-4.94.38-3.66.76-8.03,1.1-12.89.32-4.86.59-10.2.73-15.82.13-5.62.13-10.97.05-15.84-.1-4.87-.26-9.25-.46-12.93-.08-1.84-.2-3.5-.29-4.96-.08-1.46-.17-2.72-.25-3.74-.07-1.01-.12-1.8-.16-2.37-.01-.25-.02-.46-.03-.62,0-.14,0-.21,0-.21,0,0,.02.07.04.21.02.16.04.36.07.61.05.56.13,1.35.23,2.36.1,1.03.21,2.28.31,3.74.11,1.46.24,3.12.34,4.96.23,3.68.42,8.06.53,12.93.1,4.87.11,10.23-.02,15.85-.15,5.62-.43,10.97-.76,15.83-.36,4.86-.76,9.23-1.17,12.89-.19,1.83-.41,3.49-.58,4.94-.17,1.45-.35,2.7-.5,3.72-.15,1-.26,1.79-.35,2.35-.04.25-.07.45-.1.61-.02.14-.04.21-.05.21Z" style="fill: #21282d;"/>
        </g>
        <g>
          <path d="M139.26,308.89s6.62-.76,13.73,8.89c7.11,9.65,15.46,40.35,15.85,51.78.4,11.43,3.44,29.52-4.68,34.82-8.12,5.3-13.46,4.95-17.77,2.21-4.32-2.74-6.78-11.88-6.78-11.88l-.35-85.81Z" style="fill: #0f4f84;"/>
          <path d="M134.83,474.76c-7.19-16.25-9.22-28.48-10.89-48.68s-5.76-62.85-6.66-63.33c-.66-.35-1.99-15.1-2.65-22.95-.27-3.16.25-6.33,1.51-9.24,1.51-3.48,3.4-7.79,3.66-8.04.44-.43,2.85-9.8,2.85-9.8l.3-12.06,7.04,6.45,9.27,1.78,8.88,99.65s11.9,30.34,13.96,40.49.64,25.72.64,25.72" style="fill: #0f4f84;"/>
          <g style="opacity: .3;">
            <path d="M145.33,397.81c-2.01-2.74-4.06-5.52-6.84-7.48-2.77-1.96-6.43-2.98-9.62-1.81-2.98,1.1-5.05,3.88-7.96,5.16l.39,3.3c1.66,1.73,3.99,1.99,6.31,1.38,2.14-.56,4.06-2.17,6.27-1.99,2.09.17,3.77,1.93,5.85,2.17.98.11,2.03-.11,2.93.31.53.25.94.72,1.45,1.01.51.29,1.25.37,1.62-.09.45-.56.03-1.38-.4-1.96Z"/>
          </g>
          <path d="M130.07,307.1s.08.09.21.27c.13.18.33.45.57.82.48.72,1.16,1.8,1.9,3.22,1.49,2.83,3.21,7.09,3.94,12.35l.04.31-.28-.14c-2.52-1.27-5.6-2.06-8.82-2.02-1.85.02-3.65.32-5.31.82l.11-.22c.61,1.84,1.2,3.6,1.76,5.27l.05.14-.14.06c-2.2.9-3.97,2.29-5.23,3.79-1.29,1.48-2.08,3.04-2.58,4.37-.49,1.34-.69,2.46-.78,3.22-.08.77-.09,1.19-.12,1.19,0,0-.01-.1-.01-.31,0-.2,0-.5.03-.89.06-.78.23-1.91.7-3.28.48-1.36,1.26-2.96,2.56-4.48,1.26-1.54,3.07-2.98,5.31-3.91l-.09.2c-.56-1.66-1.16-3.43-1.78-5.26l-.06-.17.17-.05c1.7-.52,3.53-.82,5.41-.84,3.29-.04,6.42.77,8.98,2.08l-.24.17c-.69-5.22-2.36-9.47-3.79-12.3-.71-1.42-1.36-2.52-1.81-3.26-.22-.35-.39-.63-.53-.84-.12-.19-.18-.3-.17-.3Z" style="fill: #21282d;"/>
          <g>
            <path d="M126.24,354.35c-.45-1.46-2.12-2.41-3.6-2.07l-.81.32c-1.33.75-1.91,2.58-1.26,3.96.65,1.38,2.44,2.09,3.86,1.54,1.42-.55,2.26-2.28,1.81-3.74Z" style="fill: #ebebeb;"/>
            <path d="M126.24,354.35s.04.06.08.18c.04.12.09.31.1.55.04.49-.05,1.24-.55,1.99-.24.37-.6.73-1.06,1-.46.26-1.04.4-1.64.36-.6-.03-1.21-.25-1.75-.62-.53-.37-.99-.94-1.17-1.61-.43-1.53.35-3.12,1.5-3.74h.01s0,0,0,0c.28-.11.55-.21.81-.31h.01s0,0,0,0c.71-.15,1.38-.02,1.9.22.53.23.91.57,1.18.87.26.31.4.6.48.81.07.21.09.32.07.32-.04.02-.15-.45-.68-1.01-.27-.27-.64-.57-1.14-.77-.49-.2-1.11-.29-1.74-.15h.02c-.26.1-.53.21-.81.32h.02c-1.01.56-1.7,2-1.31,3.35.34,1.21,1.54,1.93,2.6,2.01,1.1.11,2.01-.5,2.48-1.17.48-.68.62-1.38.62-1.84,0-.47-.08-.73-.05-.74Z" style="fill: #21282d;"/>
          </g>
          <g>
            <path d="M130.96,403.92c-.45-1.46-2.12-2.41-3.6-2.07l-.81.32c-1.33.75-1.91,2.58-1.26,3.96s2.44,2.09,3.86,1.54c1.42-.55,2.26-2.28,1.81-3.74Z" style="fill: #ebebeb;"/>
            <path d="M130.96,403.92s.04.06.08.18c.04.12.09.31.1.55.04.49-.05,1.24-.55,1.99-.24.37-.6.73-1.06,1-.46.26-1.04.4-1.64.36-.6-.03-1.21-.24-1.75-.62-.53-.37-.99-.94-1.17-1.61-.43-1.53.35-3.12,1.5-3.74h.01s0,0,0,0c.28-.11.55-.21.81-.31h.01s0,0,0,0c.71-.15,1.38-.02,1.9.22.53.23.91.57,1.18.87.26.31.4.6.48.81.07.21.09.32.07.32-.04.02-.15-.45-.69-1.01-.27-.27-.64-.57-1.14-.77-.49-.2-1.11-.29-1.74-.15h.02c-.26.1-.53.21-.81.32h.02c-1.01.56-1.7,2-1.31,3.35.34,1.21,1.54,1.93,2.6,2.01,1.1.11,2.01-.5,2.48-1.17.48-.68.62-1.38.62-1.84,0-.47-.08-.73-.05-.74Z" style="fill: #21282d;"/>
          </g>
          <g>
            <path d="M134.16,437.34c-.45-1.46-2.12-2.41-3.6-2.07l-.81.32c-1.33.75-1.91,2.58-1.26,3.96.65,1.38,2.44,2.09,3.86,1.54,1.42-.55,2.26-2.28,1.81-3.74Z" style="fill: #ebebeb;"/>
            <path d="M134.16,437.34s.04.06.08.18c.04.12.09.31.1.55.04.49-.05,1.24-.55,1.99-.24.37-.6.73-1.06,1-.46.26-1.04.4-1.64.36-.6-.03-1.21-.24-1.75-.62-.53-.37-.99-.93-1.17-1.61-.43-1.53.35-3.12,1.5-3.74h.01s0,0,0,0c.28-.11.55-.21.81-.31h.01s0,0,0,0c.71-.15,1.38-.02,1.9.22.53.23.91.57,1.18.87.26.31.4.6.48.81.07.21.09.32.07.32-.04.02-.15-.45-.68-1.01-.27-.27-.64-.57-1.14-.77-.49-.2-1.11-.29-1.74-.15h.02c-.26.1-.53.21-.81.32h.02c-1.01.56-1.7,2-1.31,3.35.34,1.21,1.54,1.93,2.6,2.01,1.1.11,2.01-.5,2.48-1.17.48-.68.62-1.38.62-1.84,0-.47-.08-.73-.05-.74Z" style="fill: #21282d;"/>
          </g>
          <path d="M153.42,360.91s-.05-.39-.09-1.09c-.04-.7-.11-1.72-.25-2.96-.27-2.49-.91-5.92-2-9.59-1.08-3.68-2.4-6.9-3.42-9.19-.52-1.14-.95-2.07-1.26-2.7-.3-.63-.46-.99-.44-1,.02-.01.22.32.56.94.35.61.81,1.52,1.36,2.66,1.08,2.28,2.44,5.5,3.53,9.2,1.1,3.69,1.7,7.15,1.91,9.66.12,1.26.14,2.28.14,2.98,0,.71-.03,1.1-.05,1.1Z" style="fill: #21282d;"/>
          <g style="opacity: .3;">
            <path d="M114.96,343.68c1.15-6.36,8.12-11.44,14.58-11.39-.22-1.25-.44-2.5-.66-3.76,2.14.86,4.27,1.72,6.41,2.58,1.04-3.14-.7-6.74-3.49-8.51-2.79-1.77-6.31-.77-9.53-.03.51,2.17,1.25,3.1,1.77,5.27-5.72,1.34-9.49,10.1-9.07,15.84"/>
          </g>
          <path d="M159.35,439.33s-.07-.13-.18-.39c-.11-.3-.26-.68-.44-1.15-.38-1.05-.9-2.49-1.54-4.25-1.28-3.64-3.03-8.59-4.96-14.06-1.94-5.49-3.75-10.45-5.08-14.02-.66-1.76-1.19-3.19-1.58-4.23-.17-.47-.31-.86-.42-1.15-.09-.27-.14-.41-.12-.41.01,0,.08.13.19.39.13.29.29.67.48,1.13.41.98.99,2.42,1.69,4.19,1.4,3.55,3.24,8.5,5.18,13.99,1.94,5.49,3.64,10.48,4.87,14.1.59,1.78,1.08,3.23,1.43,4.29.15.48.28.87.37,1.17.08.27.12.41.11.42Z" style="fill: #21282d;"/>
          <path d="M150.37,474.76s-.1-.16-.26-.48c-.17-.35-.41-.82-.7-1.42-.6-1.23-1.44-3.03-2.44-5.26-2.01-4.47-4.62-10.73-7.09-17.79-2.46-7.07-4.31-13.59-5.53-18.33-.61-2.37-1.07-4.3-1.36-5.64-.14-.64-.25-1.16-.34-1.54-.07-.35-.11-.54-.09-.54.01,0,.07.18.16.53.1.38.23.89.4,1.53.34,1.33.84,3.24,1.47,5.61,1.27,4.73,3.16,11.23,5.62,18.28,2.47,7.05,5.04,13.31,6.98,17.8.97,2.25,1.78,4.06,2.34,5.31.27.6.48,1.08.64,1.44.14.33.21.51.2.51Z" style="fill: #21282d;"/>
        </g>
        <g>
          <path d="M51.74,319.82s-9.7,7.46-11.66,23.89c-1.96,16.43,1.72,37.52,1.72,37.52l1.23,14.47s-1.47,7.85,1.47,13.49,0,9.32,8.83,12.02c8.83,2.7,8.58,6.13,19.13,4.41,10.54-1.72,14.96-8.83,14.96-8.83l-11.53-25.99s-.49-3.07-6.13-.49l-2.94-37.76s-10.03-31.1-15.07-32.72Z" style="fill: #0f4f84;"/>
          <path d="M66.81,352.54s.03.23.07.67c.04.45.1,1.11.17,1.96.14,1.74.35,4.28.62,7.54.52,6.55,1.28,15.98,2.21,27.59l-.19-.11c1-.44,2.08-.86,3.27-1.01.59-.05,1.22-.05,1.81.19.59.24,1.1.74,1.24,1.41v-.04c3.47,7.83,7.36,16.58,11.54,25.98l.04.09-.05.07c-3.35,4.74-8.97,7.91-15.09,8.92-1.53.22-3.08.45-4.67.45-1.58.02-3.19-.16-4.72-.68-1.53-.53-2.93-1.32-4.37-2.02-1.44-.71-2.92-1.34-4.46-1.85-1.26-.42-2.56-.82-3.78-1.38-1.2-.59-2.36-1.36-3.16-2.47-.79-1.12-1.1-2.46-1.38-3.72-.27-1.27-.57-2.53-1.06-3.7-.51-1.15-1.13-2.32-1.5-3.55-.39-1.23-.6-2.49-.74-3.75-.26-2.52-.16-5.02.23-7.45v.05c-.42-5-.83-9.83-1.22-14.47h0c-1.51-9.45-2.21-18.29-2.26-26.17,0-3.94.15-7.64.55-11.05.41-3.41,1.14-6.5,2.06-9.21.91-2.72,2.05-5.03,3.17-6.96,1.13-1.93,2.24-3.48,3.23-4.67.99-1.19,1.83-2.03,2.41-2.58.3-.27.53-.47.69-.6.16-.13.25-.19.25-.19,0,0-.08.07-.23.21-.15.13-.37.34-.67.61-.57.56-1.4,1.41-2.37,2.61-.98,1.19-2.07,2.75-3.18,4.68-1.1,1.93-2.22,4.24-3.11,6.94-.9,2.7-1.61,5.78-2.01,9.18-.39,3.4-.53,7.09-.51,11.02.06,7.86.79,16.7,2.31,26.13h0s0,.01,0,.01c.4,4.64.81,9.47,1.23,14.47v.02s0,.03,0,.03c-.38,2.38-.48,4.87-.22,7.35.14,1.24.35,2.48.73,3.68.36,1.21.95,2.31,1.49,3.52.51,1.2.81,2.49,1.08,3.76.28,1.26.58,2.54,1.32,3.6.75,1.04,1.85,1.78,3.03,2.36,1.2.55,2.45.94,3.74,1.37,1.55.52,3.05,1.15,4.5,1.87,1.45.71,2.84,1.49,4.33,2.01,2.99,1.02,6.2.67,9.22.21,3.02-.51,5.92-1.51,8.47-3.01,1.28-.73,2.46-1.61,3.55-2.57,1.08-.96,2.07-2.02,2.85-3.17v.16c-4.17-9.41-8.05-18.17-11.51-26h0s0-.04,0-.04c-.12-.53-.55-.99-1.07-1.19-.52-.22-1.11-.23-1.68-.18-1.14.14-2.2.55-3.19.98l-.17.08v-.19c-.89-11.61-1.61-21.05-2.11-27.59-.24-3.26-.42-5.81-.55-7.54-.06-.86-.1-1.51-.13-1.97-.03-.44-.03-.67-.03-.67Z" style="fill: #21282d;"/>
          <path d="M52.75,404.38s.02-.33.16-.92c.14-.59.39-1.43.81-2.42.83-1.98,2.48-4.59,5.1-6.65,2.58-2.05,5.34-3.36,7.46-3.82,1.06-.24,1.93-.32,2.54-.32.6,0,.94.03.93.05,0,.08-1.34-.03-3.41.51-2.07.51-4.75,1.83-7.3,3.86-2.56,2.01-4.21,4.54-5.09,6.47-.89,1.94-1.13,3.26-1.2,3.24Z" style="fill: #21282d;"/>
          <path d="M74.44,422.38s-.13-.04-.36-.16c-.23-.11-.57-.3-.99-.57-.83-.53-1.99-1.41-3.19-2.73-1.2-1.31-2.43-3.06-3.47-5.17-1.05-2.1-1.93-4.53-2.72-7.11-.79-2.56-1.51-5.11-1.34-7.5.08-1.19.39-2.3.9-3.23.53-.92,1.19-1.66,1.84-2.27,1.3-1.22,2.51-2.01,3.33-2.55.41-.27.74-.47.97-.6.22-.13.34-.2.35-.19,0,.01-.1.09-.31.25-.24.17-.55.39-.93.66-.8.58-1.98,1.4-3.23,2.62-.63.61-1.26,1.34-1.75,2.23-.47.89-.77,1.97-.83,3.11-.15,2.31.56,4.81,1.35,7.37.79,2.57,1.65,4.99,2.67,7.07,1.01,2.09,2.2,3.83,3.36,5.15,1.16,1.32,2.28,2.22,3.08,2.78.81.56,1.29.82,1.28.84Z" style="fill: #21282d;"/>
          <path d="M50.23,330.77s.27.22.73.65c.45.43,1.12,1.05,1.97,1.78,1.68,1.48,4.18,3.33,6.71,5.66,2.54,2.33,4.42,4.91,5.3,7,.45,1.04.71,1.92.83,2.54.07.31.09.55.12.72.02.17.02.25.01.25-.08.02-.22-1.39-1.18-3.41-.93-2.03-2.8-4.53-5.32-6.85-2.51-2.31-4.99-4.2-6.64-5.73-.83-.76-1.48-1.4-1.9-1.87-.43-.46-.64-.74-.63-.75Z" style="fill: #21282d;"/>
          <g style="opacity: .3;">
            <path d="M71.13,420.15c-2.54-2.19-4.29-5.17-5.49-8.3s-2.31-5.98-2.98-9.26l-.15.06c-.86,4.14.93,8.07,2.3,12.07.56,1.62,1.14,3.29,2.25,4.59,1.12,1.3,2.91,2.17,4.56,1.71.07-.34-.23-.64-.49-.86Z"/>
          </g>
        </g>
        <g>
          <path d="M72.3,393.41l34.74-20.45,2.25,20.4-28.8,22.66s-4.51-6.59-6.02-11.58-2.17-11.03-2.17-11.03Z" style="fill: #996964;"/>
          <path d="M128.61,373.11l14.3-11.52c.5-.41,1.13-.63,1.78-.62l19.96.05c.81,0,1.48.63,1.52,1.44.03.79-.08,1.7-.65,2.17-1.14.94-30.33,25.02-30.33,25.02l-24.3-1.82,17.73-14.72Z" style="fill: #0071e3;"/>
          <g>
            <path d="M107.03,372.96s7.68-6.74,9.57-7.23c1.89-.49,10.54-1.17,10.54-1.17l7.61,3.55-4.25,3.43c-3.18-.43-4.18-1.57-4.18-1.57l-5,.75-14.3,2.24Z" style="fill: #996964;"/>
            <path d="M116.01,369.56l13.31,3.37,18.8,1.08s.43,3.75-3.35,4.48c-2.22.43-6.12,1.02-6.12,1.02,0,0-.66,3.49-3.49,4.5,0,0-1.06,2.52-2.53,3.54-.18.12-.36.22-.55.29-1.75.67-4.9,5.8-7.23,6.65-2.33.85-15.58-1.13-15.58-1.13l-2.25-20.4,8.98-3.4Z" style="fill: #996964;"/>
            <path d="M120.7,379.8c.01-.06,1.04.13,2.72.32,1.67.19,4,.36,6.57.31,2.57-.05,4.89-.3,6.55-.56,1.67-.26,2.69-.49,2.7-.44,0,.02-.24.11-.7.23-.46.13-1.12.29-1.96.45-1.66.33-4,.62-6.59.66-2.59.05-4.93-.16-6.61-.42-.84-.13-1.51-.26-1.97-.37-.46-.11-.71-.18-.71-.2Z" style="fill: #784d48;"/>
            <path d="M123.64,384.89s.1.49-.03,1.29c-.07.39-.21.88-.59,1.31-.37.43-1,.68-1.63.69-.63.02-1.22-.14-1.71-.34-.49-.2-.91-.41-1.26-.58-.7-.34-1.16-.46-1.16-.51,0-.05.51,0,1.25.28.74.25,1.71.82,2.86.79.56-.01,1.08-.21,1.4-.56.33-.34.49-.78.59-1.14.18-.74.21-1.24.27-1.23Z" style="fill: #784d48;"/>
            <path d="M133.29,385.37s-.51.24-1.38.48c-.87.24-2.09.51-3.45.72-1.36.21-2.61.31-3.51.34-.9.03-1.46,0-1.46-.04,0-.1,2.21-.23,4.92-.64,2.7-.41,4.86-.94,4.88-.84Z" style="fill: #784d48;"/>
            <path d="M123.94,391.55c.06.06-.76.8-2.05,1.11-1.29.32-2.36.04-2.33-.05.01-.11,1.04,0,2.25-.3,1.21-.28,2.07-.85,2.13-.76Z" style="fill: #784d48;"/>
            <path d="M128.58,390.93c.02.1-.59.31-1.36.48-.77.17-1.42.23-1.44.14-.02-.1.59-.31,1.36-.48.77-.17,1.42-.23,1.44-.14Z" style="fill: #784d48;"/>
            <path d="M129.32,372.93c-.03.14-2.83-.52-6.22-1.52-1.7-.5-3.22-.99-4.32-1.38-1.09-.39-1.75-.69-1.73-.73.02-.05.7.17,1.81.49,1.22.36,2.7.8,4.34,1.28,1.63.49,3.11.93,4.34,1.29,1.11.34,1.79.53,1.79.57Z" style="fill: #784d48;"/>
          </g>
          <g>
            <path d="M148.68,376.03s-1.48-.38-.12-2.76c1.36-2.39,5.91,0,5.91,0l5.8,2.83s1.48,2.77,0,3.66l-1.02,1.5s2.34,2,1.63,3.99c-.71,1.99-2.87,1.89-2.87,1.89,0,0,.57,3.85-.56,5.44-1.13,1.59-2.27,1.82-2.27,1.82,0,0-.79,3.3-4.42,4.55-3.63,1.25-5.56,1.48-6.7,0-1.14-1.48-1.94-3.41-1.94-3.41,0,0-8.3-3.51-8.64-5.61-.34-2.1,0-2.33,0-2.33,0,0-.79-1.71-.09-3.07.7-1.36,3.95-.5,3.95-.5l10.34,1.54s-8.43-3.14-9.5-4.31c-1.07-1.17-.16-2.78,3.13-2.66,3.29.12,13.29,1.15,13.29,1.15,0,0-.57-.94-1.25-1.16-.68-.22-2.82-1.24-2.82-1.24l-1.84-1.32Z" style="fill: #996964;"/>
            <path d="M152.37,391.2c-.02.1-4.22-.61-9.38-1.58-5.17-.97-9.34-1.84-9.32-1.93.02-.1,4.22.61,9.38,1.58,5.16.97,9.34,1.83,9.32,1.93Z" style="fill: #784d48;"/>
            <path d="M147.99,397.13c-.02.09-1.38-.12-3.03-.52-.82-.2-1.56-.41-2.09-.6-.26-.1-.47-.19-.61-.27-.07-.04-.12-.08-.15-.12-.04-.04,0-.1,0-.08-.06.04,1.3.33,2.94.73,1.64.4,2.97.77,2.95.86Z" style="fill: #784d48;"/>
            <path d="M155.86,386.41c-.02.1-2.03-.14-4.51-.34-2.49-.2-4.51-.3-4.51-.4,0-.09,2.03-.16,4.53.05,2.5.2,4.5.6,4.48.69Z" style="fill: #784d48;"/>
            <path d="M157.91,380.96c-.06.09-.91-.41-2.06-.72-1.15-.32-2.14-.32-2.14-.43-.01-.09,1.02-.25,2.23.09,1.22.33,2.03.99,1.97,1.06Z" style="fill: #784d48;"/>
          </g>
          <path d="M165.28,362.77s-.13.01-.37,0c-.28-.01-.64-.03-1.07-.04-.93-.04-2.27-.1-3.93-.15-3.31-.1-7.9-.12-12.95.18-1.26.09-2.53.07-3.5.71-.49.31-.92.7-1.36,1.07-.44.37-.87.73-1.29,1.09-1.67,1.4-3.19,2.67-4.47,3.74-1.25,1.03-2.28,1.88-3.03,2.5-.34.27-.61.49-.84.67-.19.15-.3.22-.31.21,0,0,.08-.1.26-.27.21-.19.47-.43.79-.72.74-.64,1.74-1.52,2.96-2.59,1.27-1.09,2.77-2.38,4.42-3.8.42-.36.84-.72,1.28-1.1.44-.37.87-.77,1.39-1.11.52-.34,1.15-.53,1.78-.62.63-.09,1.25-.11,1.88-.15,5.06-.3,9.66-.24,12.98-.07,1.66.08,3,.18,3.93.27.43.04.78.08,1.06.11.24.03.37.05.37.06Z" style="fill: #21282d;"/>
          <path d="M153.06,365.56c-.17-.26-.6-.36-.99-.29h.04c-.05,0-.1.01-.15.03-.02,0-.04.01-.06.02-.29.09-.57.25-.74.5-.21.31-.22.79.06,1.04.15.14.37.2.58.22.41.03.85-.09,1.13-.39.28-.3.37-.79.14-1.14Z" style="fill: #fff;"/>
        </g>
      </g>
      <g>
        <path d="M222.09,217.16c-8.82,8.53-12.2,19.42-11.71,31.51.14,3.44,1.09,6.84,1.52,10.28.48,3.9.81,7.82,1.15,11.74.13,1.56.76,2.46,2.02,2.53,1.32.07,2.17-.82,2.24-2.47.04-1,.08-2.01-.05-2.99-.61-4.47-1.06-8.98-1.96-13.4-2.13-10.44-.19-20.11,5.38-29.01,4.99-7.96,12.29-12.05,21.83-10.86,8.66,1.08,14.65,6.14,18.51,13.83,4.6,9.16,6.87,18.95,7.46,29.11.45,7.87.52,15.76.75,23.64.06,1.93.76,2.87,2.17,2.85,1.4-.02,2.08-.97,2.08-2.93,0-3.57,0-7.15,0-10.72-.19,0-.38,0-.56,0,0-3.52.16-7.05-.03-10.56-.44-8.16-1.56-16.22-4.27-23.98-2.07-5.92-4.37-11.71-8.64-16.5-10.18-11.38-27.08-12.5-37.86-2.07Z" style="fill: #0071e3;"/>
        <path d="M250.54,249.17c-.74-3.55-2.16-6.82-4.91-9.34-4.9-4.49-11.71-2.76-13.4,3.64-.63,2.39-.46,5.12-.1,7.62,1.37,9.42,2.94,18.8,1.95,28.38-.17,1.66.64,2.61,1.97,2.65,1.31.04,2.02-.85,2.19-2.54.81-7.97.01-15.84-1.16-23.71-.49-3.27-.91-6.55-1.11-9.85-.11-1.88.77-3.54,2.68-4.24,1.91-.71,3.36.32,4.58,1.65,2.11,2.29,3.03,5.15,3.51,8.13,1.41,8.91,1.83,17.87,1.3,26.88-.84,14.31-3.54,28.13-10.68,40.79-.81,1.44-.55,2.68.58,3.3,1.12.61,2.33.19,3.09-1.27,1.33-2.56,2.7-5.11,3.83-7.77,5.68-13.44,7.53-27.59,7.61-41.4-.07-8.13-.42-15.59-1.94-22.93Z" style="fill: #0071e3;"/>
        <path d="M272.65,211.39c-6.75-10.18-15.58-17.31-27.97-19.15-2.68-.4-5.45-.35-8.17-.38-1.31-.01-2.22.77-2.16,2.19.06,1.4.97,2.03,2.31,2.04,1.05.01,2.1-.03,3.15,0,9.55.2,17.54,3.91,24,10.88,5.83,6.3,9.95,13.65,12.92,21.66,6.2,16.74,7.28,34.13,6.45,51.74-.24,5.14-.86,10.26-1.3,15.39-.12,1.35.59,2.39,1.75,2.59,1.14.19,2.12-.6,2.42-1.95.06-.26.1-.52.12-.78.6-8.02,1.2-16.03,1.8-24.05-.34-8.76-.87-17.47-2.4-26.08-2.16-12.17-6.01-23.7-12.9-34.09Z" style="fill: #0071e3;"/>
        <path d="M266.24,256.99c-.68-7.34-1.76-14.63-4.65-21.48-3.44-8.15-8.94-14.08-18-15.86-4.42-.87-8.69-.39-12.63,1.97-1.18.7-1.55,1.76-.86,2.95.66,1.14,1.73,1.3,2.87.73,6.57-3.28,12.57-1.97,18.05,2.41,4.17,3.33,6.67,7.91,7.92,12.98,1.31,5.34,2.37,10.78,2.98,16.24,1.53,13.72.88,27.4-1.45,41-1.13,6.59-2.8,13.04-5.3,19.26-.58,1.45-.18,2.53,1.01,3.04,1.16.5,2.25-.03,2.85-1.45.45-1.06.87-2.14,1.25-3.24,4.93-14.22,6.47-28.96,6.71-45.87-.17-2.93-.3-7.82-.75-12.68Z" style="fill: #0071e3;"/>
        <path d="M291.19,237.07c-2.59-11.36-6.65-22.12-13.49-31.67-6.55-9.14-14.95-16.01-25.33-20.38-.6-.25-1.43-.55-1.92-.32-.66.3-1.37,1.02-1.55,1.7-.31,1.16.47,1.92,1.56,2.38,4.63,1.94,8.93,4.44,12.87,7.56,9.86,7.83,16.16,18.11,20.32,29.81,5.87,16.54,7.18,33.72,6.8,51.1-.04,1.96.64,3.09,2.05,3.12,1.35.03,2.15-1,2.17-2.88.03-3.05,0-6.1,0-9.15-.2-10.53-1.13-20.98-3.47-31.27Z" style="fill: #0071e3;"/>
        <path d="M269.06,218.71c-.84-1.48-2.1-1.93-3.23-1.23-1.09.67-1.19,1.83-.45,3.32,1.31,2.63,2.73,5.23,3.76,7.97,6.94,18.45,8.65,37.6,7.04,57.09-.55,6.73-1.94,13.4-3.02,20.08-.21,1.28.01,2.21,1.19,2.73,1.35.6,2.56-.25,2.98-2.08,2.45-10.8,3.68-21.74,3.61-32.83.04-10.55-1-20.99-3.3-31.28-1.84-8.29-4.38-16.33-8.59-23.77Z" style="fill: #0071e3;"/>
        <path d="M257.96,249.08c-.79-5.34-2.37-10.45-5.74-14.83-6.41-8.34-17.34-8.48-23.52-.27-2.91,3.86-3.91,8.31-3.86,13.94.2,2.1.49,5.08.79,8.06.38,3.76.76,7.53,1.14,11.29.14,1.36.88,2.17,2.28,2.05,1.41-.13,1.94-1.1,1.89-2.43-.02-.47-.07-.94-.12-1.41-.56-5.44-1.16-10.87-1.67-16.31-.36-3.83.01-7.55,1.88-11.02,3.86-7.18,12.24-8.06,17.48-1.82,2.1,2.5,3.4,5.42,4.25,8.55,1.58,5.87,2.18,11.87,2.48,17.92.09,1.76.86,2.76,2.15,2.74,1.29-.02,2.15-1.08,2-2.82-.4-4.55-.75-9.11-1.42-13.63Z" style="fill: #0071e3;"/>
        <path d="M191.79,210.81c1.24.44,2.15-.03,2.72-1.19.26-.52.5-1.04.75-1.56,2.85-5.85,6.35-11.25,10.9-15.94,8.28-8.53,18.24-13.49,30.24-14.06,7.94-.38,15.44,1.34,22.6,4.7,1.67.78,2.83.52,3.39-.69.58-1.24.05-2.35-1.53-3.1-7.03-3.34-14.42-5.12-22.24-5.23-5.65.03-11.17.91-16.5,2.89-12.72,4.74-21.72,13.67-28.35,25.25-1.12,1.96-2.12,3.99-3.06,6.04-.57,1.24-.04,2.5,1.08,2.9Z" style="fill: #0071e3;"/>
        <path d="M222.3,252.48c-.41-7.15-.73-14.32,3.13-20.87.64-1.09.37-2.23-.77-2.85-1.11-.61-2.22-.35-2.83.82-.81,1.53-1.59,3.08-2.19,4.7-1.86,4.99-1.92,10.21-1.64,15.41.37,6.71,1,13.41,1.48,20.12.91,12.52-1.72,24.12-9.03,34.5-.54.77-1.15,1.51-1.61,2.33-.85,1.5.06,3.17,2.11,3.19.3-.2,1.03-.48,1.43-1.01,6.76-9.01,10.74-19.06,11.32-30.38.45-8.7-.9-17.3-1.4-25.95Z" style="fill: #0071e3;"/>
        <path d="M195.91,270.89c-.22-4.71-.63-9.43-1.37-14.09-2.51-15.96.12-31.06,7.26-45.45.91-1.83,2.03-3.55,3.09-5.31.86-1.42.79-2.64-.24-3.35-1.11-.76-2.29-.39-3.3,1.05-.06.09-.12.17-.17.26-9.18,14.96-13.02,31.19-11.34,48.67.43,4.49,1.21,8.95,1.8,13.43.6,4.55-.01,8.89-2.2,12.98-1,1.87-.16,3.58,2.16,3.51.3-.28,1.05-.72,1.42-1.37,1.82-3.2,3.08-6.66,2.91-10.35Z" style="fill: #0071e3;"/>
        <path d="M244.43,253.95c-.25-2.08-.75-4.13-1.21-6.18-.31-1.36-1.36-2.06-2.54-1.75-1.28.34-1.74,1.25-1.55,2.52.05.36.13.72.21,1.08,3.16,14.32,3.37,28.63-.18,42.92-2.24,9.01-5.67,17.57-9.87,25.83-.73,1.43-.41,2.7.72,3.25,1.11.53,2.23.09,2.95-1.27.78-1.48,1.52-3,2.24-4.51,6.69-14.13,10.76-28.9,11.11-44.68-.62-5.74-1.19-11.48-1.88-17.21Z" style="fill: #0071e3;"/>
        <path d="M296.89,231.12c-2.95-15.25-9.2-28.86-20.3-39.98-2.22-2.23-4.59-4.32-6.94-6.41-.95-.85-2.07-.83-2.93.19-.84.99-.67,2.04.2,2.97.25.27.55.48.83.72,7.39,6.3,13.64,13.52,18.03,22.26,5.34,10.64,7.67,22.06,8.91,33.77.18,1.7,1.1,2.7,2.36,2.55,1.26-.15,1.9-1.15,1.98-2.86-.7-4.4-1.29-8.83-2.14-13.21Z" style="fill: #0071e3;"/>
        <path d="M226.07,198.91c1.17-.58,1.75-1.53,1.14-2.85-.57-1.24-1.77-1.56-3.21-.82-4.56,2.34-8.74,5.23-12.31,8.93-10.02,10.4-13.67,23.45-15.42,36.73-.11,2.11.54,3.07,1.77,3.21,1.3.15,2.1-.68,2.38-2.33.57-3.41,1.05-6.85,1.81-10.23,3.25-14.29,10.23-25.89,23.84-32.64Z" style="fill: #0071e3;"/>
        <path d="M209.69,264.57c-.82-5.34-1.47-10.71-2.19-16.07.07,0,.14-.02.21-.03,0-1.21,0-2.42,0-3.63-.01-1.25-.67-2.01-1.88-2.11-1.3-.1-2.07.63-2.26,1.91-.07.46-.09.95-.04,1.42.46,5.01.99,10.02,1.4,15.04.39,4.65,1.05,9.32.89,13.95-.25,7.11-3.51,13.2-7.7,18.82-1.12,1.5-1.09,2.6.01,3.45,1.1.84,2.24.53,3.33-.89,7.26-9.45,10.04-20.05,8.23-31.86Z" style="fill: #0071e3;"/>
        <path d="M189.57,268.62c-3.44-13.11-3.74-26.38-1.6-39.7.5-3.09,1.61-6.07,2.47-9.1.35-1.22.13-2.21-1.07-2.78-1.12-.53-2.26,0-2.84,1.22-.16.33-.27.68-.39,1.03-3.02,8.17-3.61,16.69-3.73,23.72.04,10.8,1.31,21.17,3.11,26.82.55,1.71,1.5,2.4,2.81,2.03,1.27-.37,1.69-1.52,1.24-3.24Z" style="fill: #0071e3;"/>
        <path d="M234.16,201.07c-.27.04-.59.06-.89.14-6.26,1.64-11.85,4.5-16.41,9.19-5.8,5.96-9.03,13.32-11.5,21.09-.42,1.31.22,2.43,1.43,2.71,1.29.3,2.09-.32,2.55-1.51,1.07-2.79,2.04-5.63,3.27-8.34,3.48-7.7,8.54-13.96,16.59-17.27,1.79-.74,3.68-1.23,5.51-1.85,1.13-.38,1.77-1.16,1.58-2.38-.18-1.13-.93-1.72-2.12-1.76Z" style="fill: #0071e3;"/>
        <path d="M231.03,279.88c0-.44,0-.7,0-.96,0-1.53-.76-2.48-2-2.5-1.23-.02-2.05.89-2.16,2.4-.05.63-.07,1.26-.15,1.88-1.41,11.01-5.31,21.11-11.2,30.48-1,1.6-.9,2.85.28,3.56,1.16.7,2.31.36,3.22-1.25,2-3.56,4.09-7.1,5.78-10.81,3.32-7.3,5.55-14.94,6.24-22.8Z" style="fill: #0071e3;"/>
        <path d="M200.82,252.55c-.12-.58-1.21-1.31-1.86-1.32-.65-.01-1.54.65-1.91,1.27-.31.53-.09,1.42.02,2.13.74,4.97,1.51,9.94,2.27,14.92-.25,6.4-1.95,12.17-5.74,17.31-.96,1.3-.82,2.6.21,3.32,1.06.73,2.33.46,3.21-.9,1.19-1.85,2.41-3.71,3.33-5.69,4.77-10.25,2.65-20.66.46-31.02Z" style="fill: #0071e3;"/>
        <path d="M239.74,186.8c.79,0,1.58,0,2.36,0,1.66,0,2.61-.75,2.62-2.06,0-1.32-.92-2.17-2.56-2.14-2.36.04-4.73.06-7.08.3-9.47.95-17.85,4.49-25.02,10.79-1.33,1.17-1.53,2.4-.64,3.4.84.95,2.11.92,3.34-.16,7.58-6.67,16.51-9.78,26.51-10.13h.47Z" style="fill: #0071e3;"/>
        <path d="M236.72,290.66c-.55-.49-1.13-1.38-1.92-1.64-1.12-.37-2.01.3-2.37,1.49-.73,2.41-1.22,4.92-2.22,7.21-2.53,5.81-5.25,11.54-7.95,17.28-.65,1.37-.57,2.51.5,3.18,1.07.68,2.17.35,3.07-.94.27-.39.51-.79.74-1.2,3.66-6.41,6.52-13.16,8.72-20.19.48-1.55.86-3.13,1.42-5.17Z" style="fill: #0071e3;"/>
        <path d="M270.87,288.57c-1.38-.16-2.1.59-2.38,1.94-1.54,7.65-3.11,15.3-4.68,22.95-.31,1.53.16,2.6,1.35,2.94,1.27.36,2.31-.31,2.72-1.9.82-3.15,1.7-6.28,2.35-9.47.95-4.67,1.72-9.39,2.57-14.08-.14-1.28-.6-2.23-1.93-2.38Z" style="fill: #0071e3;"/>
        <path d="M214.64,280.42c-1.17-.27-2.1.51-2.6,1.93-1.39,3.9-2.65,7.86-4.34,11.62-1.08,2.41-2.91,4.47-4.25,6.78-.39.67-.51,1.7-.32,2.45.14.54,1.01.9,1.77,1.51.8-.65,1.57-1.1,2.09-1.74,4.65-5.81,7.38-12.53,9.15-19.69.36-1.47-.28-2.58-1.49-2.86Z" style="fill: #0071e3;"/>
        <path d="M257.69,271.37c-1.33-.06-2.06.88-2.2,2.67-.37,5.08-.75,10.16-1.17,15.24-.15,1.78-.5,3.54-.63,5.32-.09,1.23.68,1.99,1.88,2.1,1.14.11,1.91-.5,2.19-1.62.16-.66.25-1.34.32-2.02.54-5.06,1.07-10.13,1.59-15.08,0-1.34,0-2.55,0-3.75.01-1.8-.67-2.79-1.99-2.85Z" style="fill: #0071e3;"/>
        <path d="M258.61,212.77c.42.36.99.53,1.77.93.58-.54,1.49-1,1.64-1.64.17-.72-.09-1.88-.61-2.35-4.53-4.04-9.7-6.96-15.63-8.44-1.36-.34-2.46.23-2.78,1.36-.33,1.2.23,2.31,1.57,2.65,5.29,1.36,9.89,3.98,14.05,7.48Z" style="fill: #0071e3;"/>
        <path d="M253.57,303.59c-1.27-.34-2.14.25-2.56,1.47-.29.84-.46,1.73-.76,2.57-1.39,3.9-2.8,7.8-4.21,11.69-.66,1.82.14,3.34,2.22,3.33.3-.25,1.17-.62,1.39-1.22,1.86-5.07,3.63-10.16,5.35-15.28.4-1.21-.17-2.21-1.44-2.56Z" style="fill: #0071e3;"/>
      </g>
    </g>
  </g>
</svg>