<?xml version="1.0" encoding="UTF-8"?>
<svg xmlns="http://www.w3.org/2000/svg" version="1.1" viewBox="0 0 500 500">
  <defs>
    <style>
      .cls-1 {
        fill: #464849;
      }

      .cls-2 {
        stroke: #263238;
      }

      .cls-2, .cls-3, .cls-4, .cls-5, .cls-6, .cls-7 {
        fill: none;
      }

      .cls-2, .cls-4, .cls-5 {
        stroke-miterlimit: 10;
      }

      .cls-8, .cls-9, .cls-10, .cls-11, .cls-7 {
        opacity: .2;
      }

      .cls-8, .cls-12, .cls-13, .cls-14, .cls-10, .cls-15, .cls-16, .cls-17, .cls-18 {
        fill: #fff;
      }

      .cls-19 {
        fill: #0071e3;
      }

      .cls-9, .cls-10 {
        isolation: isolate;
      }

      .cls-3 {
        stroke: #e0e0e0;
        stroke-width: 8px;
      }

      .cls-3, .cls-6, .cls-7 {
        stroke-linecap: round;
        stroke-linejoin: round;
      }

      .cls-20 {
        fill: #fafafa;
      }

      .cls-20, .cls-13 {
        opacity: .5;
      }

      .cls-21, .cls-22 {
        fill: #263238;
      }

      .cls-23 {
        fill: #f0f0f0;
      }

      .cls-24, .cls-15 {
        opacity: .3;
      }

      .cls-25 {
        fill: #e0e0e0;
      }

      .cls-4 {
        stroke: #fff;
      }

      .cls-4, .cls-5, .cls-7 {
        stroke-width: .5px;
      }

      .cls-14 {
        opacity: .9;
      }

      .cls-22, .cls-17 {
        opacity: .6;
      }

      .cls-5, .cls-6 {
        stroke: #0071e3;
      }

      .cls-16 {
        opacity: .4;
      }

      .cls-7 {
        stroke: #000;
      }

      .cls-26 {
        fill: #ebebeb;
      }

      .cls-27 {
        display: none;
      }

      .cls-28 {
        fill: #f5f5f5;
      }

      .cls-29 {
        fill: #ffbcb4;
      }

      .cls-30 {
        fill: #e6e6e6;
      }

      .cls-18 {
        opacity: .7;
      }

      .cls-31 {
        fill: #ffb463;
      }

      .cls-32 {
        fill: #407bff;
      }
    </style>
  </defs>
  <!-- Generator: Adobe Illustrator 28.7.1, SVG Export Plug-In . SVG Version: 1.2.0 Build 142)  -->
  <g>
    <g id="Background_simple" class="cls-27">
      <g>
        <path class="cls-32" d="M-874.9,67.1c-35.1,2.2-68.9,6.8-98.9,14-35.4,8.5-71.5,21.8-60.8,39.1,19.7,32,114.2,32.6,95.4,54.1-21.4,24.4-7,53,88.9,60.9,182.2,15.1,402.5-73.2,340.6-121.8-38.5-30.2-178.8-57.8-365.1-46.3Z"/>
        <path class="cls-14" d="M-874.9,67.1c-35.1,2.2-68.9,6.8-98.9,14-35.4,8.5-71.5,21.8-60.8,39.1,19.7,32,114.2,32.6,95.4,54.1-21.4,24.4-7,53,88.9,60.9,182.2,15.1,402.5-73.2,340.6-121.8-38.5-30.2-178.8-57.8-365.1-46.3Z"/>
      </g>
    </g>
    <g id="Character_1">
      <g>
        <path class="cls-3" d="M140.5,278.4c19.8-9.5,44.7-7,62.4,6.1"/>
        <polygon class="cls-25" points="203.2 277.9 196.4 287.5 207.9 288.2 203.2 277.9"/>
        <g>
          <path class="cls-3" d="M326.3,427.6c15.5,6.8,32.8,10.2,49.5,7.5,16.7-2.7,32.7-12,41.5-26.5"/>
          <polygon class="cls-25" points="411.5 407.4 420.7 414 421.9 403.7 411.5 407.4"/>
        </g>
        <rect class="cls-23" x="279.5" y="181.3" width="25.1" height="7.8"/>
        <g>
          <rect class="cls-23" x="417.4" y="276.4" width="26.9" height="8.3"/>
          <rect class="cls-26" x="404" y="268.3" width="26.9" height="8.3"/>
        </g>
        <rect class="cls-25" x="384.3" y="419.6" width="26.9" height="8.3"/>
        <rect class="cls-26" x="281.6" y="330.8" width="26.9" height="8.3"/>
        <rect class="cls-23" x="293.9" y="322.4" width="26.9" height="8.3"/>
        <rect class="cls-25" x="45.3" y="314.9" width="26.9" height="8.3"/>
        <rect class="cls-23" x="141.5" y="361.3" width="26.9" height="8.3"/>
        <g>
          <rect class="cls-26" x="449.2" y="356.3" width="26.9" height="8.3"/>
          <rect class="cls-23" x="412.7" y="319.9" width="26.9" height="8.3"/>
        </g>
        <g>
          <rect class="cls-26" x="125.8" y="160.1" width="25.1" height="7.8"/>
          <rect class="cls-23" x="112.4" y="167.9" width="26.6" height="7.8"/>
        </g>
        <rect class="cls-25" x="332.7" y="216.9" width="25.1" height="7.8"/>
        <rect class="cls-23" x="344.3" y="224.1" width="25.1" height="7.8"/>
        <path class="cls-28" d="M489.1,469.7c0,4.8-107.1,8.8-239.1,8.8s-239.1-3.9-239.1-8.8,107.1-8.8,239.1-8.8,239.1,3.9,239.1,8.8Z"/>
        <path class="cls-25" d="M364.2,130c-2.2,3.3-3.6,6.9-4.4,10.6l-5.9.6v11.5s5.9.6,5.9.6c.8,3.7,2.2,7.3,4.4,10.6l-3.8,4.6,8.1,8.1,4.6-3.8c3.3,2.2,6.9,3.6,10.6,4.4l.6,5.9h11.5s.6-5.9.6-5.9c3.7-.8,7.3-2.2,10.6-4.4l4.6,3.8,8.1-8.1-3.8-4.6c2.2-3.3,3.6-6.9,4.4-10.6l5.9-.6v-11.5s-5.9-.6-5.9-.6c-.8-3.7-2.2-7.3-4.4-10.6l3.8-4.6-8.1-8.1-4.6,3.8c-3.3-2.2-6.9-3.6-10.6-4.4l-.6-5.9h-11.5s-.6,5.9-.6,5.9c-3.7.8-7.3,2.2-10.6,4.4l-4.6-3.8-8.1,8.1,3.8,4.6ZM403.1,133.8c7.3,7.3,7.3,19.1,0,26.3-7.3,7.3-19.1,7.3-26.3,0-7.3-7.3-7.3-19.1,0-26.3,7.3-7.3,19.1-7.3,26.3,0Z"/>
        <path class="cls-23" d="M440.3,229.7c-1.5,2.3-2.6,4.9-3.1,7.6l-4.2.4v8.2s4.2.4,4.2.4c.6,2.7,1.6,5.2,3.1,7.6l-2.7,3.3,5.8,5.8,3.3-2.7c2.3,1.5,4.9,2.6,7.6,3.1l.4,4.2h8.2s.4-4.2.4-4.2c2.7-.6,5.2-1.6,7.6-3.1l3.3,2.7,5.8-5.8-2.7-3.3c1.5-2.3,2.6-4.9,3.1-7.6l4.2-.4v-8.2s-4.2-.4-4.2-.4c-.6-2.7-1.6-5.2-3.1-7.6l2.7-3.3-5.8-5.8-3.3,2.7c-2.3-1.5-4.9-2.6-7.6-3.1l-.4-4.2h-8.2s-.4,4.2-.4,4.2c-2.7.6-5.2,1.6-7.6,3.1l-3.3-2.7-5.8,5.8,2.7,3.3ZM468.2,232.3c5.2,5.2,5.2,13.6,0,18.8-5.2,5.2-13.6,5.2-18.8,0-5.2-5.2-5.2-13.6,0-18.8,5.2-5.2,13.6-5.2,18.8,0Z"/>
        <g>
          <g>
            <rect class="cls-30" x="91.4" y="100.5" width="91" height="71.9" rx="4.9" ry="4.9"/>
            <path class="cls-25" d="M96,100.5h81.8c2.5,0,4.5,2,4.5,4.5v8h-91v-7.9c0-2.6,2.1-4.6,4.6-4.6Z"/>
          </g>
          <g>
            <path class="cls-20" d="M177.6,107.7c0,1.5-1.2,2.7-2.7,2.7s-2.7-1.2-2.7-2.7,1.2-2.7,2.7-2.7,2.7,1.2,2.7,2.7Z"/>
            <path class="cls-20" d="M169.8,107.7c0,1.5-1.2,2.7-2.7,2.7s-2.7-1.2-2.7-2.7,1.2-2.7,2.7-2.7,2.7,1.2,2.7,2.7Z"/>
            <path class="cls-20" d="M162.1,107.7c0,1.5-1.2,2.7-2.7,2.7s-2.7-1.2-2.7-2.7,1.2-2.7,2.7-2.7,2.7,1.2,2.7,2.7Z"/>
          </g>
          <rect class="cls-17" x="112.3" y="123.5" width="48.7" height="2.6"/>
          <rect class="cls-25" x="113.1" y="129" width="34.8" height="2.6"/>
          <rect class="cls-23" x="165.3" y="123.5" width="8.9" height="2.6"/>
          <rect class="cls-23" x="99.4" y="123.5" width="9.6" height="2.6"/>
          <rect class="cls-23" x="112.3" y="135.1" width="48.7" height="2.6"/>
          <rect class="cls-17" x="165.3" y="135.1" width="8.9" height="2.6"/>
          <rect class="cls-23" x="99.4" y="135.1" width="9.6" height="2.6"/>
          <rect class="cls-17" x="112.3" y="159.4" width="48.7" height="2.6"/>
          <rect class="cls-17" x="165.3" y="159.4" width="8.9" height="2.6"/>
          <rect class="cls-23" x="112.3" y="141.3" width="48.7" height="2.6"/>
          <rect class="cls-25" x="165.3" y="141.3" width="8.9" height="2.6"/>
          <rect class="cls-25" x="99.4" y="141.3" width="9.6" height="2.6"/>
          <rect class="cls-23" x="151.7" y="129.1" width="23.1" height="2.6"/>
          <rect class="cls-17" x="112.3" y="146.6" width="34.8" height="2.6"/>
          <rect class="cls-23" x="151" y="146.7" width="23.1" height="2.6"/>
          <rect class="cls-25" x="112.3" y="152.2" width="17.4" height="2.6"/>
        </g>
        <g>
          <g>
            <path class="cls-25" d="M455.4,295.6l-7.8,3.7,7.8,3.7v3l-10.5-5.1v-3.1l10.5-5.1v3Z"/>
            <path class="cls-25" d="M479.3,297.8v3.1l-10.5,5.1v-3l7.8-3.7-7.8-3.7v-3l10.5,5.1Z"/>
          </g>
          <polygon class="cls-25" points="463.9 290.6 458.8 308.3 461.4 308.3 466.5 290.6 463.9 290.6"/>
        </g>
        <path class="cls-25" d="M49.2,203.3c-2,3-3.3,6.3-4,9.8l-5.5.5v10.6s5.5.5,5.5.5c.7,3.4,2,6.7,4,9.8l-3.5,4.2,7.5,7.5,4.2-3.5c3,2,6.3,3.3,9.8,4l.5,5.5h10.6s.5-5.5.5-5.5c3.4-.7,6.7-2,9.8-4l4.2,3.5,7.5-7.5-3.5-4.2c2-3,3.3-6.3,4-9.8l5.5-.5v-10.6s-5.5-.5-5.5-.5c-.7-3.4-2-6.7-4-9.8l3.5-4.2-7.5-7.5-4.2,3.5c-3-2-6.3-3.3-9.8-4l-.5-5.5h-10.6s-.5,5.5-.5,5.5c-3.4.7-6.7,2-9.8,4l-4.2-3.5-7.5,7.5,3.5,4.2ZM85.1,206.7c6.7,6.7,6.7,17.6,0,24.3-6.7,6.7-17.6,6.7-24.3,0-6.7-6.7-6.7-17.6,0-24.3,6.7-6.7,17.6-6.7,24.3,0Z"/>
        <path class="cls-25" d="M220.1,70.4c-3.5,5.4-5.9,11.3-7.2,17.4l-9.7.9v18.8s9.7.9,9.7.9c1.3,6.1,3.6,12,7.2,17.4l-6.2,7.5,13.3,13.3,7.5-6.2c5.4,3.5,11.3,5.9,17.4,7.2l.9,9.7h18.8s.9-9.7.9-9.7c6.1-1.3,12-3.6,17.4-7.2l7.5,6.2,13.3-13.3-6.2-7.5c3.5-5.4,5.9-11.3,7.2-17.4l9.7-.9v-18.8s-9.7-.9-9.7-.9c-1.3-6.1-3.6-12-7.2-17.4l6.2-7.5-13.3-13.3-7.5,6.2c-5.4-3.5-11.3-5.9-17.4-7.2l-.9-9.7h-18.8s-.9,9.7-.9,9.7c-6.1,1.3-12,3.6-17.4,7.2l-7.5-6.2-13.3,13.3,6.2,7.5ZM284,76.6c11.9,11.9,11.9,31.3,0,43.2-11.9,11.9-31.3,11.9-43.2,0-11.9-11.9-11.9-31.3,0-43.2,11.9-11.9,31.3-11.9,43.2,0Z"/>
        <g>
          <g>
            <rect class="cls-19" x="385.5" y="155.3" width="85.8" height="72.1" rx="4.9" ry="4.9"/>
            <rect class="cls-13" x="385.5" y="155.3" width="85.8" height="72.1" rx="4.9" ry="4.9"/>
            <path class="cls-19" d="M390.2,155.3h76.6c2.5,0,4.5,2,4.5,4.5v8h-85.8v-7.9c0-2.6,2.1-4.6,4.6-4.6Z"/>
          </g>
          <g>
            <path class="cls-13" d="M466.4,162.5c0,1.5-1.2,2.7-2.7,2.7s-2.7-1.2-2.7-2.7,1.2-2.7,2.7-2.7,2.7,1.2,2.7,2.7Z"/>
            <path class="cls-13" d="M458.6,162.5c0,1.5-1.2,2.7-2.7,2.7s-2.7-1.2-2.7-2.7,1.2-2.7,2.7-2.7,2.7,1.2,2.7,2.7Z"/>
            <path class="cls-13" d="M450.8,162.5c0,1.5-1.2,2.7-2.7,2.7s-2.7-1.2-2.7-2.7,1.2-2.7,2.7-2.7,2.7,1.2,2.7,2.7Z"/>
          </g>
          <rect class="cls-17" x="404.8" y="178.4" width="44" height="2.6"/>
          <rect class="cls-22" x="405.5" y="184" width="31.5" height="2.6"/>
          <rect class="cls-19" x="452.1" y="178.4" width="8.7" height="2.6"/>
          <rect class="cls-19" x="393.1" y="178.4" width="8.7" height="2.6"/>
          <rect class="cls-19" x="404.8" y="190.1" width="44" height="2.6"/>
          <rect class="cls-17" x="452.1" y="190.1" width="8.7" height="2.6"/>
          <rect class="cls-19" x="393.1" y="190.1" width="8.7" height="2.6"/>
          <rect class="cls-19" x="404.8" y="214.5" width="44" height="2.6"/>
          <rect class="cls-17" x="452.1" y="214.5" width="8.7" height="2.6"/>
          <rect class="cls-19" x="404.8" y="196.3" width="44" height="2.6"/>
          <rect class="cls-22" x="452.1" y="196.3" width="8.7" height="2.6"/>
          <rect class="cls-22" x="393.1" y="196.3" width="8.7" height="2.6"/>
          <rect class="cls-19" x="440.4" y="184.1" width="20.9" height="2.6"/>
          <rect class="cls-17" x="404.8" y="201.7" width="31.5" height="2.6"/>
          <rect class="cls-19" x="439.7" y="201.8" width="20.9" height="2.6"/>
          <rect class="cls-22" x="404.8" y="207.2" width="15.7" height="2.6"/>
        </g>
        <g>
          <g>
            <rect class="cls-19" x="69.2" y="154.9" width="75.1" height="63.1" rx="4.9" ry="4.9"/>
            <rect class="cls-13" x="69.2" y="154.9" width="75.1" height="63.1" rx="4.9" ry="4.9"/>
            <path class="cls-19" d="M73.9,154.9h65.9c2.5,0,4.5,2,4.5,4.5v6.5h-75.1v-6.4c0-2.6,2.1-4.6,4.6-4.6Z"/>
          </g>
          <g>
            <path class="cls-13" d="M140.1,161.2c0,1.3-1.1,2.4-2.4,2.4s-2.4-1.1-2.4-2.4,1.1-2.4,2.4-2.4,2.4,1.1,2.4,2.4Z"/>
            <path class="cls-13" d="M133.2,161.2c0,1.3-1.1,2.4-2.4,2.4s-2.4-1.1-2.4-2.4,1.1-2.4,2.4-2.4,2.4,1.1,2.4,2.4Z"/>
            <path class="cls-13" d="M126.4,161.2c0,1.3-1.1,2.4-2.4,2.4s-2.4-1.1-2.4-2.4,1.1-2.4,2.4-2.4,2.4,1.1,2.4,2.4Z"/>
          </g>
          <path class="cls-12" d="M130.4,190.1c-2.5-3.3-7.6-5-11-2.6-.8-4.8-4.3-9-8.8-10.8-4.5-1.8-9.9-1-13.8,1.9-3.9,2.9-6,8-5.5,12.8-3.3-.7-6.9,0-9,3.4-2.8,4.4.8,8.8.8,8.8h19.3c0,.1,0-7,0-7h-2.5c-.4,0-.7-.5-.4-.8l2.8-3,3.3-3.4c.2-.2.5-.2.7,0l3.3,3.4,2.8,3c.3.3,0,.8-.4.8h-2.5v7.1h20.5c2.9-3.2,2.8-10.4.3-13.7Z"/>
        </g>
        <g>
          <path class="cls-19" d="M317.5,176.4h24.7c2.2,0,4,1.8,4,4v13.4c0,2.2-1.8,4-4,4h-5.9v4s-4.5-4-4.5-4h-14.3c-2.2,0-4-1.8-4-4v-13.4c0-2.2,1.8-4,4-4Z"/>
          <g>
            <g>
              <path class="cls-12" d="M326.8,185l-3.9,1.8,3.9,1.8v1.5l-5.2-2.5v-1.5l5.2-2.5v1.5Z"/>
              <path class="cls-12" d="M338.7,186v1.5l-5.2,2.5v-1.5l3.9-1.8-3.9-1.8v-1.5l5.2,2.5Z"/>
            </g>
            <polygon class="cls-12" points="331.1 182.5 328.5 191.3 329.8 191.3 332.3 182.5 331.1 182.5"/>
          </g>
          <path class="cls-19" d="M336.5,175.4h-12.7c0,0-.2,0-.2-.2s0-.2.2-.2h12.7c0,0,.2,0,.2.2s0,.2-.2.2Z"/>
          <path class="cls-19" d="M340,175.4h-2c0,0-.2,0-.2-.2s0-.2.2-.2h2c0,0,.2,0,.2.2s0,.2-.2.2Z"/>
        </g>
        <g>
          <g>
            <path class="cls-21" d="M106.3,81.8c1,.8,1.9,1.5,2.9,2.3s.4.2.5,0,.2-.4,0-.5c-1-.8-1.9-1.5-2.9-2.3s-.4-.2-.5,0-.2.4,0,.5h0Z"/>
            <path class="cls-21" d="M116.2,83.1v-6c0-.5-.8-.5-.8,0v6c0,.5.8.5.8,0h0Z"/>
            <path class="cls-21" d="M122.4,84.3c.8-.9,1.7-1.8,2.5-2.6s.1-.4,0-.5-.4-.1-.5,0c-.8.9-1.7,1.8-2.5,2.6s-.1.4,0,.5.4.1.5,0h0Z"/>
          </g>
          <g>
            <path class="cls-21" d="M108.7,118.8s.9,3.6,1.4,4.3c.5.7,11.2.5,11.6,0,.4-.5,1.3-4.3,1.3-4.3h-14.3Z"/>
            <path class="cls-8" d="M108.7,118.8s.9,3.6,1.4,4.3c.5.7,11.2.5,11.6,0,.4-.5,1.3-4.3,1.3-4.3h-14.3Z"/>
            <g>
              <g>
                <path class="cls-19" d="M116,85.6c-7.8,0-14.1,6.1-14.2,13.9,0,4.2,1.8,8.2,5,10.9.6.5,1.5,1.1,1.5,2.3,0,0,0,3.1,0,3.1h14.8s0-3.1,0-3.2c0-1.1.8-1.5,1.5-2,3.3-2.6,5.2-6.6,5.2-10.8,0-7.8-6.1-14.1-13.9-14.2Z"/>
                <path class="cls-10" d="M123,91.7c0,2.7-3.2,5-7.2,5s-7.2-2.2-7.2-5,3.2-5,7.2-5,7.2,2.2,7.2,5Z"/>
              </g>
              <path class="cls-4" d="M105.1,105c-1.2-2.1-1.7-4.6-1.4-7,.4-2.4,1.5-4.7,3.3-6.3"/>
              <path class="cls-2" d="M112.8,112.7c1.1-3.7,1.3-7.7.5-11.4-.1-.6-.4-1.3-.9-1.4-.5,0-.8.6-.9,1.1-.4,1.9.6,3.9,1.9,5.2.7.7,1.5,1.4,2.5,1.4.9,0,1.8-.5,2.5-1.3,1.3-1.4,2-3.6,1.5-5.6-.2-.8-.8-1.7-1.5-1.6-.5,0-.8.6-.9,1.1-.1.5,0,1,0,1.6.5,3.7,1.4,7.4,2.7,10.9"/>
            </g>
            <path class="cls-21" d="M123.9,116.5h-16.3c-.5,0-.9-.4-.9-.9h0c0-.5.4-.9.9-.9h16.3c.5,0,.9.4.9.9h0c0,.5-.4.9-.9.9Z"/>
            <path class="cls-15" d="M123.9,116.5h-16.3c-.5,0-.9-.4-.9-.9h0c0-.5.4-.9.9-.9h16.3c.5,0,.9.4.9.9h0c0,.5-.4.9-.9.9Z"/>
            <path class="cls-21" d="M123.6,118.2h-15.8c-.5,0-.9-.4-.9-.9h0c0-.5.4-.9.9-.9h15.8c.5,0,.9.4.9.9h0c0,.5-.4.9-.9.9Z"/>
            <path class="cls-15" d="M123.6,118.2h-15.8c-.5,0-.9-.4-.9-.9h0c0-.5.4-.9.9-.9h15.8c.5,0,.9.4.9.9h0c0,.5-.4.9-.9.9Z"/>
            <path class="cls-21" d="M123,119.9h-14.2c-.5,0-.9-.4-.9-.9h0c0-.5.4-.9.9-.9h14.2c.5,0,.9.4.9.9h0c0,.5-.4.9-.9.9Z"/>
            <path class="cls-15" d="M123,119.9h-14.2c-.5,0-.9-.4-.9-.9h0c0-.5.4-.9.9-.9h14.2c.5,0,.9.4.9.9h0c0,.5-.4.9-.9.9Z"/>
          </g>
        </g>
        <rect class="cls-19" x="261.9" y="21.5" width="3.8" height="77.3"/>
        <g>
          <g>
            <path class="cls-19" d="M464.2,122c-6.5-4.9-15.7-3.3-20.3,3.5-4,6-2.8,14.3,2.8,18.8,4.9,4,11.5,4.1,16.5,1l3.4,1c.3,0,.7-.2.6-.5l-.4-3.8c0,0,.1-.1.2-.2,4.7-6.3,3.4-15.1-2.8-19.8Z"/>
            <path class="cls-6" d="M439.5,131.9c-.2-4.6,2-9.2,5.8-11.9"/>
            <path class="cls-6" d="M447,118.8c.5-.4,1.2-.8,1.8-1"/>
          </g>
          <polygon class="cls-12" points="455.1 140.8 447.9 135.4 449.8 132.9 454.6 136.5 461.2 128.6 463.6 130.6 455.1 140.8"/>
        </g>
        <g>
          <g>
            <path class="cls-19" d="M178.7,222.6c4.3-6.9,1.9-16-5.3-19.9-6.3-3.5-14.5-1.5-18.5,4.5-3.5,5.2-3.1,11.8.5,16.5l-.7,3.5c0,.3.2.6.6.6l3.7-.7c0,0,.1,0,.2.1,6.7,4.1,15.4,2.1,19.5-4.6Z"/>
            <path class="cls-6" d="M166.7,198.8c4.6-.6,9.4,1.2,12.4,4.7"/>
            <path class="cls-6" d="M180.4,205.1c.5.5.9,1.1,1.1,1.8"/>
          </g>
          <polygon class="cls-12" points="166 221.9 158.8 216.5 160.7 214 165.5 217.6 172.1 209.7 174.5 211.7 166 221.9"/>
        </g>
        <path class="cls-19" d="M254.7,377.6c-1.4.2-2.7.7-3.8,1.3l-1.5-1.4-3,2.7,1.2,1.7c-.8,1.1-1.4,2.3-1.8,3.6h-2.1c0,0-.2,4.1-.2,4.1l2.1.3c.2,1.4.7,2.7,1.3,3.8l-1.4,1.5,2.7,3,1.7-1.2c1.1.8,2.3,1.4,3.6,1.8v2.1c0,0,4.1.2,4.1.2l.3-2.1c1.4-.2,2.7-.7,3.8-1.3l1.5,1.4,3-2.7-1.2-1.7c.8-1.1,1.4-2.3,1.8-3.6h2.1c0,0,.2-4.1.2-4.1l-2.1-.3c-.2-1.4-.7-2.7-1.3-3.8l1.4-1.5-2.7-3-1.7,1.2c-1.1-.8-2.3-1.4-3.6-1.8v-2.1c0,0-4.1-.2-4.1-.2l-.3,2.1ZM261.7,388.7c-.2,3-2.8,5.3-5.8,5.1-3-.2-5.3-2.8-5.1-5.8.2-3,2.8-5.3,5.8-5.1,3,.2,5.3,2.8,5.1,5.8Z"/>
        <g>
          <path class="cls-31" d="M366,321.8s-3-1.6-3.9-2.9c-.9-1.3-1.1-1.1-1.2-1.1,0,0-3.8-.2-4.4-.6-.6-.4-.7-1.2-.3-1.3.4-.1,3.7.4,4.5.2.8-.1-.5-.5-2.8-.7s-4.2-.7-4-1.8c.1-1.1,5.3.3,6.7.3,1.4,0-1.2-.4-3.1-1.1s-3.6-.9-3.2-2c.4-1.1,6.7,1.3,7.8,1,1.1-.3,0-1-1-1.6-1-.6-3.1-.6-3.5-1.3s0-1.1.8-1.1c.7,0,4.3.7,5.1,1.4,0,0,.4-.9,1-.8.5,0,.8,2.2,1.4,3,.5.7,2.5,5.8,2.5,5.8l-2.3,4.6Z"/>
          <path class="cls-19" d="M404,295.6c-5,4.9-11.2,24.5-11,25.1.2.6-24.4-5.3-24.4-5.3,0,0-4.3,7.3-2.4,8.6,1.9,1.3,30.8,11.4,33.6,7.5,2.3-3.2,8.4-22.4,10.3-30l-6.1-5.9Z"/>
          <path class="cls-18" d="M404,295.6c-5,4.9-11.2,24.5-11,25.1.2.6-24.4-5.3-24.4-5.3,0,0-4.3,7.3-2.4,8.6,1.9,1.3,30.8,11.4,33.6,7.5,2.3-3.2,8.4-22.4,10.3-30l-6.1-5.9Z"/>
        </g>
        <g>
          <g>
            <path class="cls-29" d="M413.5,348s-1.1,35.7-.7,59.2c3.4,18.5,28.8,50.4,26.3,55.4,0,1.1,5.5-2.7,6.5-3.4,0,0-5.5-35.7-17-55.3,6.3-23.7,2.1-57,2.1-57l-17.2,1.1Z"/>
            <path class="cls-24" d="M412.8,403.4s10.9,1.6,16.7-3.2l.3-1.4-17.1,2.4v2.2Z"/>
            <path class="cls-29" d="M417.3,340.6s21.5,37.5,31,56.1c10,19.6,25.3,53,27.9,67.1,1.4.4,3.5-.1,5.7-1.6,0,0-3.4-49-18.9-68.6-9.4-50.3-25.6-58.5-25.6-58.5l-20.1,5.5Z"/>
            <polygon class="cls-24" points="446.7 393.4 448 395.9 462.1 388.8 461.7 386.7 446.7 393.4"/>
            <g>
              <path class="cls-21" d="M481.9,470.3h-1.3l-.4-1.7-4.5,2h-11.3s-1.8-1.8,3.6-3.2c.3,0,.5-.2.8-.3,2.9-1.3,7-5.9,7-5.9h6.2c.2.3.4.6.5.9.7,1.4,1.8,4.3-.5,8.2Z"/>
              <path class="cls-29" d="M482.4,462.2h0c-.8-.9-4.5,3.1-7.3,4.5-2.4,1.2-5.2,1.8-6.4.5,2.9-1.3,7.4-7.2,7.4-7.2h5s1,1.6,1.3,2.2Z"/>
            </g>
            <path class="cls-21" d="M446.3,469.4h-1.3l-.4-1.7-4.5,2h-11.3s-1.8-1.8,3.6-3.2c.3,0,.5-.2.8-.3,2.9-1.3,7-5.9,7-5.9h6.2c.2.3.4.6.5.9.7,1.4,1.8,4.3-.5,8.2Z"/>
            <path class="cls-29" d="M446.8,461.3h0c-.8-.9-4.5,3.1-7.3,4.5-2.4,1.2-5.2,1.8-6.4.5,2.9-1.3,7.4-7.2,7.4-7.2h5s1,1.6,1.3,2.2Z"/>
            <path class="cls-21" d="M437.8,327.6l-.2-1.6c-9,3-16.4,6-25.9,7l.5,3c-.6,5.4-.3,49.3-.3,65.4,12.7.2,34.4-6.9,51.3-15.2-1.5-7.2-10.7-52-25.4-58.6Z"/>
            <path d="M437.8,351c-1.6,10.8-2.6,21.7-2.9,32.6s.7.5.8,0c.3-10.8,1.3-21.7,2.9-32.4s-.7-.7-.7-.2h0Z"/>
          </g>
          <path class="cls-21" d="M422.9,287c-1.2-5.2-.8-10.6-2.3-15.7-1.3-4.4-4.3-8.4-8.3-10.6-3.9-2.1-8.8-2.3-12.7-.3-2.7.7-4.8,3.1-6,5.7-1.3,3-1.5,6.2-1.9,9.5-.4,3.2-.9,6.5-2.7,9.2-.9,1.4-2.1,2.5-3,3.8-1,1.3-1.8,2.9-1.7,4.5,0,1.6,1.3,3.3,2.9,3.4,1.5.1,2.9-1,4.3-.5,1.2.3,1.8,1.6,2.5,2.5,2,2.9,5.4,4.5,8.9,5,3.5.5,7,0,10.4-.7,2.3-.5,4.5-1,6.5-2.2,2-1.2,3.7-3,4.2-5.2.7-2.7-.5-5.5-1.2-8.3Z"/>
          <polygon class="cls-24" points="404.1 317.4 401.6 310.2 400.4 316.7 404.1 317.4"/>
          <path class="cls-1" d="M400.9,302.6c-.3,5.8,1.5,11.1,3.2,14.8,2.1,4.9,4.9,21,8.7,20.5,3.3.5,16.8-5.3,25.1-9.8,3.7-2.8-7.4-7.7-7.5-31,0-4-4.2-10-8.3-8.8-1.1.3-2.2.6-3.4,1-4.1,1.3-8.1,2.8-12,4.6-1.3.6,1.2-.7,0,0-4.4,2.3-5.3,4-5.8,8.7Z"/>
          <path class="cls-18" d="M400.9,302.6c-.3,5.8,1.5,11.1,3.2,14.8,2.1,4.9,4.9,21,8.7,20.5,3.3.5,16.8-5.3,25.1-9.8,3.7-2.8-7.4-7.7-7.5-31,0-4-4.2-10-8.3-8.8-1.1.3-2.2.6-3.4,1-4.1,1.3-8.1,2.8-12,4.6-1.3.6,1.2-.7,0,0-4.4,2.3-5.3,4-5.8,8.7Z"/>
          <path class="cls-29" d="M412.8,276.7c.3,4.3,1.2,11.4,4.7,13.1,0,0-1.3,3.6-7,6.6,0,2.4,0,4.8.3,7.2,0,0-2.6-4.7-2.4-6.5-6.8,1.8-2.7-2.4-2.7-2.4,4.1-2.6,3-5.9,1.4-8.7l5.7-9.1Z"/>
          <path class="cls-9" d="M410.6,281.6l-2.8,5.7c.5.6.7,1.8.7,1.8,1.5-1,3.5-3.7,3-5.5-.2-.7-.5-1.4-.9-2Z"/>
          <path class="cls-29" d="M413.9,269.2c1,6.7,1.6,9.5-.9,13.8-3.8,6.4-12,6.7-15,.5-2.7-5.5-3.9-15.6,1.8-19.9,3.7-3,9.2-2.5,12.2,1.2,1,1.3,1.7,2.8,1.9,4.4Z"/>
          <path class="cls-21" d="M406.9,266.5c5.1,3.3,4.9,25.1,11.9,22.3,7-2.8-4.6-26.1-9.7-26.9-5-.8-2.3,4.5-2.3,4.5Z"/>
          <path class="cls-21" d="M409.2,262.1c.6,4.6.3,6-3.9,6.1.3-1.1.1-2.2-.3-3.2,0,1.2-.5,2.3-1.3,3.1-1.2,0-2.4,0-3.5.1,0-.7-.2-1.3-.5-1.9,0,.8-.3,1.6-.8,2.3-1.2.4-2.3,1-3.2,1.8-1.6-4.5,4.3-12.1,13.5-8.4Z"/>
          <path class="cls-29" d="M416.1,273.8c-.1,1.3-.8,2.5-1.8,3.3-1.3.9-2.5-.5-2.7-2.4,0-1.7.5-4.2,2-4.3s2.7,1.7,2.5,3.4Z"/>
          <g class="cls-24">
            <path d="M413.7,272.1c.5.2.7.7.7,1.3s-.3,1.4-.6,2,0,.4.1.5.4,0,.5-.1c.3-.8.7-1.6.6-2.5s-.4-1.4-1.1-1.8-.8.4-.4.6h0Z"/>
          </g>
          <path class="cls-24" d="M407.7,329.2l.5,1.5s11.2.8,13.2-.6c2-1.4,7.5-27.6,7.5-27.6,0,0-10.2,24-10.7,24.5-.5.5-10.5,2.3-10.5,2.3Z"/>
          <g class="cls-24">
            <path d="M400.1,260.9c-3.6,1.4-6.1,5-6.3,8.9s.7.5.8,0c.1-3.5,2.4-6.8,5.7-8.1s.3-.9-.2-.7h0Z"/>
          </g>
          <g>
            <path class="cls-1" d="M277.3,274.8c-7,4.7-13,10.6-17.6,17.4l-12.2-3.9-9.7,22.8,11.3,6.1c-1.6,8-1.8,16.4-.3,24.8l-11.4,5.9,9.3,22.9,12.3-3.7c4.7,7,10.6,13,17.4,17.6l-3.9,12.2,22.8,9.7,6.1-11.3c8,1.6,16.4,1.8,24.8.3l5.9,11.4,22.9-9.3-3.7-12.3c7-4.7,13-10.6,17.6-17.4l12.2,3.9,9.7-22.8-11.3-6.1c1.6-8,1.8-16.4.3-24.8l11.4-5.9-9.3-22.9-12.3,3.7c-4.7-7-10.6-13-17.4-17.6l3.9-12.2-22.8-9.7-6.1,11.3c-8-1.6-16.4-1.8-24.8-.3l-5.9-11.4-22.9,9.3,3.7,12.3ZM345.3,317.6c6.9,17.2-1.4,36.7-18.5,43.6-17.2,6.9-36.7-1.4-43.6-18.5-6.9-17.2,1.4-36.7,18.5-43.6,17.2-6.9,36.7,1.4,43.6,18.5Z"/>
            <g>
              <g class="cls-24">
                <path class="cls-12" d="M283.7,284.6c-.8,3.7-1.4,7.7.3,11,2.1,4.1,6.6,5.7,11.2,6.9,2-1.4,4.1-2.5,6.5-3.5,5.4-2.2,11-2.8,16.4-2.2-1.4-8.5,3.4-17.6,9.6-24.1,5-5.2,10.9-9.6,16.1-14.7l-10.5-4.5-6.1,11.3c-8-1.6-16.4-1.8-24.8-.3l-5.9-11.4-.9.4c-5.5,9.7-9.5,20.1-11.9,30.9Z"/>
              </g>
              <g class="cls-24">
                <path class="cls-12" d="M348,363.9c.6-7.8,0-15.8-1.9-23.5-3,9.1-9.8,16.9-19.3,20.7,0,0,0,0-.1,0-1.9,4.4-4.6,8.6-8,12.1-11.2,11.7-28.2,16.2-40.8,26l17.3,7.3,6.1-11.3c8,1.6,16.4,1.8,24.8.3l5.9,11.4,5.6-2.2c5-13.2,9.4-26.8,10.5-40.8Z"/>
              </g>
            </g>
          </g>
          <path class="cls-29" d="M387.8,321.8s-3-1.6-3.9-2.9c-.9-1.3-1.1-1.1-1.2-1.1,0,0-3.8-.2-4.4-.6-.6-.4-.7-1.2-.3-1.3.4-.1,3.7.4,4.5.2.8-.1-.5-.5-2.8-.7-2.2-.2-4.2-.7-4-1.8.1-1.1,5.3.3,6.7.3s-1.2-.4-3.1-1.1c-1.9-.7-3.6-.9-3.2-2,.4-1.1,6.7,1.3,7.8,1,1.1-.3,0-1-1-1.6-1-.6-3.1-.6-3.5-1.3-.4-.7,0-1.1.8-1.1.7,0,4.3.7,5.1,1.4,0,0,.4-.9,1-.8s.8,2.2,1.4,3c.5.7,2.5,5.8,2.5,5.8l-2.3,4.6Z"/>
          <g>
            <path class="cls-1" d="M424.9,288.9c1.8,1.6,5.2,5.3,5,7.7-.6,7.5-7.6,29.2-9.9,32.4-2.8,3.9-29.9-3.6-31.9-4.9-1.9-1.3,2.4-8.6,2.4-8.6,0,0,21.6,2.7,21.4,2-.2-.6,3.9-17.7,7.4-23.4,3.5-5.8,3.9-6.7,5.7-5.2,0,0,0,0,0,0Z"/>
            <path class="cls-18" d="M424.9,288.9c1.8,1.6,5.2,5.3,5,7.7-.6,7.5-7.6,29.2-9.9,32.4-2.8,3.9-29.9-3.6-31.9-4.9-1.9-1.3,2.4-8.6,2.4-8.6,0,0,21.6,2.7,21.4,2-.2-.6,3.9-17.7,7.4-23.4,3.5-5.8,3.9-6.7,5.7-5.2,0,0,0,0,0,0Z"/>
            <g class="cls-24">
              <path d="M412.2,317.6c1.2-5.3,2.6-10.5,4.2-15.7s1.4-4.5,2.3-6.6,1.1-3,2.2-4.1-.2-.9-.5-.5c-1,1-1.5,2.4-2.1,3.7-.9,2.2-1.7,4.5-2.4,6.7-1.7,5.4-3.1,10.9-4.4,16.4s.6.7.7.2h0Z"/>
            </g>
            <g class="cls-24">
              <path d="M411.7,318c1.3.6,2.4,1.7,3,3.1s.4.2.5.1.2-.3.1-.5c-.6-1.5-1.8-2.7-3.3-3.3s-.4,0-.5.1,0,.4.1.5h0Z"/>
            </g>
          </g>
          <path d="M387.7,324.3c1.8.8,3.7,1.4,5.6,2,2.7.8,5.5,1.6,8.3,2.1s.7-.6.2-.7c-2.7-.5-5.4-1.3-8.1-2.1s-3.8-1.1-5.6-1.9-.8.4-.4.6h0Z"/>
        </g>
        <g>
          <g>
            <g>
              <polygon class="cls-21" points="33.5 448.3 31.9 460.2 39.3 460.5 47.3 442.9 33.5 448.3"/>
              <g>
                <path class="cls-21" d="M32.8,458.9c1,.9,3.1.9,4.1.1v-1.4c.3-1.2.7-1.7,2-1.5.6,0,1.4.9,1.8,2,.9,2,1.9,2.9,1.9,2.9,0,0,5.5,3,7.5,3.6,1.2.4,2.8,1,3.6,2.3.2.4.4.8.6,1.3.1.4.1,1.4.1,1.4l-14.2-.4s-1.4-.9-2-.9c-1.1,0-1.6.9-1.6.9h-5.2c0-.1,0-.9-.2-2.1h0c0-.5-.1-1.1-.2-1.8-.3-2.7.2-5.9.1-6.7-.1-1.3,1.7,0,1.7,0Z"/>
                <path class="cls-19" d="M45.6,462.5c0,0-.2,0-.2,0-.3.2-.6.5-.8.9-.1.2.2.4.3.2.2-.3.4-.6.7-.8.1,0,.1-.2,0-.3,0,0,0,0,0,0Z"/>
                <path class="cls-19" d="M44.5,461.9c0,0-.2,0-.2,0-.3.2-.6.5-.8.9-.1.2.2.4.3.2.2-.3.4-.6.7-.8.1,0,.1-.2,0-.3,0,0,0,0,0,0Z"/>
                <path class="cls-19" d="M43.4,461.3c0,0-.2,0-.2,0-.3.2-.6.5-.8.9-.1.2.2.4.3.2.2-.3.4-.6.7-.8.1,0,.1-.2,0-.3,0,0,0,0,0,0Z"/>
              </g>
              <path class="cls-10" d="M54.1,467.7c0,.2.2.4.3.7.1.4.1,1.4.1,1.4l-14.2-.4s-1.4-.9-2-.9c-1.1,0-1.6.9-1.6.9h-5.2c0-.1,0-.9-.2-2.1h0c0,0,0-.2,0-.3l22.9.7Z"/>
              <path class="cls-5" d="M43.2,461.4c0-.5,0-1,0-1.5,0-.5.2-1,.5-1.4.1-.2.3-.4.6-.3.2,0,.4.3.5.5.1.4,0,.9-.2,1.4-.2.4-1,1.1-1.4,1.4"/>
              <path class="cls-5" d="M43.2,461.4c-.2-.5-.4-.9-.6-1.3-.3-.4-.6-.8-1-1-.2-.1-.5-.2-.7,0-.2.1-.3.4-.2.6,0,.5.3.9.7,1.2s1.4.5,1.9.6"/>
            </g>
            <g>
              <polygon class="cls-21" points="76.1 447.1 74.6 459 81.9 459.3 90 441.7 76.1 447.1"/>
              <g>
                <path class="cls-21" d="M75.5,457.7c1,.9,3.1.9,4.1.1v-1.4c.3-1.2.7-1.7,2-1.5.6,0,1.4.9,1.8,2,.9,2,1.9,2.9,1.9,2.9,0,0,5.5,3,7.5,3.6,1.2.4,2.8,1,3.6,2.3.2.4.4.8.6,1.3.1.4.1,1.4.1,1.4l-14.2-.4s-1.4-.9-2-.9c-1.1,0-1.6.9-1.6.9h-5.2c0-.1,0-.9-.2-2.1h0c0-.5-.1-1.1-.2-1.8-.3-2.7.2-5.9.1-6.7-.1-1.3,1.7,0,1.7,0Z"/>
                <path class="cls-19" d="M88.3,461.3c0,0-.2,0-.2,0-.3.2-.6.5-.8.9-.1.2.2.4.3.2.2-.3.4-.6.7-.8.1,0,.1-.2,0-.3,0,0,0,0,0,0Z"/>
                <path class="cls-19" d="M87.2,460.7c0,0-.2,0-.2,0-.3.2-.6.5-.8.9-.1.2.2.4.3.2.2-.3.4-.6.7-.8.1,0,.1-.2,0-.3,0,0,0,0,0,0Z"/>
                <path class="cls-19" d="M86.1,460.1c0,0-.2,0-.2,0-.3.2-.6.5-.8.9-.1.2.2.4.3.2.2-.3.4-.6.7-.8.1,0,.1-.2,0-.3,0,0,0,0,0,0Z"/>
              </g>
              <path class="cls-10" d="M96.8,466.5c0,.2.2.4.3.7.1.4.1,1.4.1,1.4l-14.2-.4s-1.4-.9-2-.9c-1.1,0-1.6.9-1.6.9h-5.2c0-.1,0-.9-.2-2.1h0c0,0,0-.2,0-.3l22.9.7Z"/>
              <path class="cls-5" d="M85.9,460.2c0-.5,0-1,0-1.5,0-.5.2-1,.5-1.4.1-.2.3-.4.6-.3.2,0,.4.3.5.5.1.4,0,.9-.2,1.4-.2.4-1,1.1-1.4,1.4"/>
              <path class="cls-5" d="M85.9,460.2c-.2-.5-.4-.9-.6-1.3-.3-.4-.6-.8-1-1-.2-.1-.5-.2-.7,0-.2.1-.3.4-.2.6,0,.5.3.9.7,1.2s1.4.5,1.9.6"/>
            </g>
            <path class="cls-21" d="M74.8,328.8s-12,26.8-24.4,64.1c-12.8,38.5-21.4,63.3-21.4,63.3l14.7,1.8s25-58,27.6-65.2c2.6-7.2,15.5-35.5,15.5-35.5,0,0,5.7,41.1,4,46-1.7,4.9-18.5,51.6-18.5,51.6l13.1,1.7s22.4-41.3,24.7-59.1c2.3-17.8,2.2-61.5,2.2-61.5l-37.4-7.3Z"/>
            <polygon class="cls-9" points="86.8 357.3 95.8 353.9 90.1 360.8 88.8 372.8 86.8 357.3"/>
          </g>
          <g>
            <path class="cls-19" d="M98.4,275.5c-.7.4-16.5,9.1-16.5,9.1l-.5,27.8s-8,13.9-6.6,17.6c1.4,3.7,21.8,13.9,29.6,12.5,7.7-1.4,11.7-11.8,11.7-11.8,0,0,6-30.4,6.3-39s-2.3-13.2-2.5-13.8c0-.2-1.7-.7-3.9-1.3-4.2-1.1-10.2-2.4-10.2-2.4l-7.4,1.2Z"/>
            <path class="cls-18" d="M98.4,275.5c-.7.4-16.5,9.1-16.5,9.1l-.5,27.8s-8,13.9-6.6,17.6c1.4,3.7,21.8,13.9,29.6,12.5,7.7-1.4,11.7-11.8,11.7-11.8,0,0,6-30.4,6.3-39s-2.3-13.2-2.5-13.8c0-.2-1.7-.7-3.9-1.3-4.2-1.1-10.2-2.4-10.2-2.4l-7.4,1.2Z"/>
            <path class="cls-19" d="M106.7,288.3s.5,29.4-10.3,47.1l3.4,5.8,6.2-4.5s9.9-35.2,2.9-49.2l1.2-4-2.1-.5-1.8.5-2,2.3,2.5,2.5Z"/>
            <g>
              <path class="cls-9" d="M94.9,280.8c.5.6,8,6.5,8,6.5l3.8-4.3c0,0-2.9,5.3-2.9,5.4l-1.2.4-7.7-7.9Z"/>
              <path class="cls-9" d="M107.1,282.7l3.8.7s.7-3.8.5-4.8c-.2-1-.6-2.5-.6-2.5h.5c0-.1,1,2.4.8,4.5-.2,2.2-.6,4.4-.6,4.4l-4.4-2.3Z"/>
            </g>
            <path class="cls-9" d="M106.2,315.5c-7.3-16.2-16.3-24.3-16.3-24.3l14.8,26.3,12.4-2.5-10.9.5Z"/>
          </g>
        </g>
        <path class="cls-19" d="M120,278s5.8-1.1,6.9,9.5c1.1,11.3.2,19.1,2.6,18.7,2.5-.4,15.2-4.2,15.2-4.2l4,13.3s-18.1,8-25.7,6.7-7.1-14.7-7.1-14.7l4.2-29.3Z"/>
        <path class="cls-18" d="M120,278s5.8-1.1,6.9,9.5c1.1,11.3.2,19.1,2.6,18.7,2.5-.4,15.2-4.2,15.2-4.2l4,13.3s-18.1,8-25.7,6.7-7.1-14.7-7.1-14.7l4.2-29.3Z"/>
        <path class="cls-21" d="M119.1,314.2c.8-4.7,1.3-9.4,1.7-14.2s.6-6.8.6-10.2-.7-.5-.8,0c0,3.3-.3,6.6-.6,9.9-.4,4.8-.8,9.6-1.7,14.3s.6.7.7.2h0Z"/>
        <g>
          <path class="cls-1" d="M138,315.7c-5.9,4.8-10.6,10.6-14.2,16.9l-11.2-2.4-6.6,21,10.5,4.4c-.7,7.3-.2,14.7,1.9,22l-9.6,6.2,10.2,19.6,10.6-4.3c4.8,5.9,10.6,10.6,16.9,14.2l-2.4,11.2,21,6.6,4.4-10.5c7.3.7,14.7.2,22-1.9l6.2,9.6,19.6-10.2-4.3-10.6c5.9-4.8,10.6-10.6,14.2-16.9l11.2,2.4,6.6-21-10.5-4.4c.7-7.3.2-14.7-1.9-22l9.6-6.2-10.2-19.6-10.6,4.3c-4.8-5.9-10.6-10.6-16.9-14.2l2.4-11.2-21-6.6-4.4,10.5c-7.3-.7-14.7-.2-22,1.9l-6.2-9.6-19.6,10.2,4.3,10.6ZM202,347.8c7.6,14.6,1.9,32.7-12.7,40.3-14.6,7.6-32.7,1.9-40.3-12.7-7.6-14.6-1.9-32.7,12.7-40.3,14.6-7.6,32.7-1.9,40.3,12.7Z"/>
          <path class="cls-16" d="M138,315.7c-5.9,4.8-10.6,10.6-14.2,16.9l-11.2-2.4-6.6,21,10.5,4.4c-.7,7.3-.2,14.7,1.9,22l-9.6,6.2,10.2,19.6,10.6-4.3c4.8,5.9,10.6,10.6,16.9,14.2l-2.4,11.2,21,6.6,4.4-10.5c7.3.7,14.7.2,22-1.9l6.2,9.6,19.6-10.2-4.3-10.6c5.9-4.8,10.6-10.6,14.2-16.9l11.2,2.4,6.6-21-10.5-4.4c.7-7.3.2-14.7-1.9-22l9.6-6.2-10.2-19.6-10.6,4.3c-4.8-5.9-10.6-10.6-16.9-14.2l2.4-11.2-21-6.6-4.4,10.5c-7.3-.7-14.7-.2-22,1.9l-6.2-9.6-19.6,10.2,4.3,10.6ZM202,347.8c7.6,14.6,1.9,32.7-12.7,40.3-14.6,7.6-32.7,1.9-40.3-12.7-7.6-14.6-1.9-32.7,12.7-40.3,14.6-7.6,32.7-1.9,40.3,12.7Z"/>
          <g>
            <g class="cls-24">
              <path class="cls-12" d="M194.2,338.3c6.9-7.1,15.1-13.2,23.9-18.1-4-4.1-8.6-7.6-13.5-10.3l2.4-11.2-5.4-1.7c1.1,4.3,2.1,8.7,2.2,13.2.1,5.8-1.3,11.9-5.2,16.3-3.1,3.6-7.4,5.7-11.9,7.4,2.7,1.1,5.3,2.6,7.6,4.4Z"/>
            </g>
            <g class="cls-24">
              <path class="cls-12" d="M179.2,420.8c-.6-2.4-1.7-4.7-2.7-7-3-7.2-4.4-14.8-4.5-22.6-4.8-.6-9.5-2.3-13.5-5.1-2.6,6.1-7.1,11.4-12.2,15.6-2.6,2.1-5.3,4.1-8.2,5.8,2.7,2.2,5.5,4.1,8.4,5.7l-2.4,11.2,21,6.6,4.4-10.5c3.2.3,6.3.4,9.5.2Z"/>
            </g>
          </g>
        </g>
        <g>
          <path class="cls-29" d="M106.9,268.5l-10.9-5.8c0,.8.3,2.2.7,3.1,4.1,7.8,1.6,11.2,1.6,11.2l8.2,5.5,2.2-5.2h0c-.9-1.8-2-6.3-1.9-8.8Z"/>
          <path class="cls-11" d="M107.3,272l-6.1-1c.7,1.8,2.5,4,6.7,3.9,0,0-.6-2.1-.6-2.9Z"/>
          <path class="cls-21" d="M113.8,249.3c1.4,2.4,1.1,8.4-2.8,7.5-3.9-.9.4-11.6,2.8-7.5Z"/>
          <path class="cls-29" d="M95.5,257.6c1.1,6.6,1.6,10.4,5.4,13.4,16.1,10,19.3-20,6.2-24-6.7-1.8-12.7,4-11.6,10.6Z"/>
          <path class="cls-21" d="M91.2,250.4s6-.8,7-.9,2,3.5,1.9,4.7c-.1,1.2-1.7,1.7-1.7,2.8,0,1,1.6,3.7,1.1,5-.6.5-4.2-1.6-4.2-1.6l-2.1.8s-6-8-2-10.7Z"/>
          <path class="cls-21" d="M91.3,250.9c-.6-.6-1.3-1.5-.6-3.4,0,.5.6,1.1,1,1.3.4-1.5,2.4-4.1,7.9-5.3,6.8-1.5,8.6.8,10.6-.2,2-1-.5-1.8-.5-1.8,0,0,3.4-.8,4.5,1.8,1.1,2.6.2,7.1-5.9,6.9-6.1-.3-7.2,1.7-10.3,1.2-2.2-.3-4.5-.4-6.7-.4Z"/>
          <path class="cls-29" d="M93.5,263.3c1.2,3.5,7.2,5.4,6.5.2-.4-5.1-8-6.3-6.5-.2Z"/>
          <path class="cls-7" d="M94.8,261.4c1.1-1.5,3.1.3,3.3,1.7"/>
        </g>
        <g>
          <path class="cls-19" d="M218.2,409.5c3.5-3.3,6.6-6.9,9.4-10.8s-.7-1.5-1.3-.8c-2.7,3.8-5.8,7.3-9.2,10.5s.4,1.7,1.1,1.1h0Z"/>
          <path class="cls-19" d="M228.9,397.1c.4-.6.7-1.2,1.1-1.7s0-.8-.3-1-.8,0-1,.3c-.4.6-.7,1.2-1.1,1.7s0,.8.3,1,.8,0,1-.3h0Z"/>
        </g>
        <g>
          <path class="cls-29" d="M132.9,320s3.3-2.4,4.2-4.1c.9-1.6,1.1-1.5,1.2-1.5,0,0,4.6-.8,5.2-1.4.6-.6.6-1.5,0-1.6-.5,0-4.3,1.1-5.3,1-1,0,.5-.6,3.2-1.3,2.6-.7,4.9-1.5,4.5-2.8-.3-1.3-6.3,1.3-8,1.4-1.7.1,1.4-.6,3.6-1.8,2.2-1.1,4.1-1.7,3.4-2.9-.7-1.2-7.8,2.7-9.1,2.5-1.3-.2-.2-1.2,1-2.1s3.6-1.2,4-2.2c.4-1-.2-1.3-1.1-1.2-.9,0-5,1.6-5.9,2.5,0,0-.7-1-1.3-.8s-.6,2.8-1.1,3.8c-.5,1-2,7.3-2,7.3l3.5,5.1Z"/>
          <path class="cls-9" d="M79.6,288.3c-1.9,2.2-.6,5.8,0,8.7,1.9,8.8,12.8,33.5,16.1,36.9,4,4.2,35.1-9.2,37.2-11.1,2.1-1.9-4.3-9.9-4.3-9.9,0,0-25.3,6.8-25.2,6,.2-.8-7.8-17.7-12.9-24-5.1-6.3-9.1-8.5-11-6.5,0,0,0,0,0,0Z"/>
          <path class="cls-19" d="M129.8,311.5s-25.3,6.8-25.2,6c.2-.8-7.8-17.7-12.9-24-5.1-6.3-9.9-8.8-9.9-8.8-3.3,2.2-5.4,6.4-3.3,11.9,3.5,8.7,14.9,31.5,18.1,34.9,4,4.2,35.2-8.1,37.3-9.9,2.1-1.9-4.3-9.9-4.3-9.9Z"/>
          <path class="cls-18" d="M129.8,311.5s-25.3,6.8-25.2,6c.2-.8-7.8-17.7-12.9-24-5.1-6.3-9.9-8.8-9.9-8.8-3.3,2.2-5.4,6.4-3.3,11.9,3.5,8.7,14.9,31.5,18.1,34.9,4,4.2,35.2-8.1,37.3-9.9,2.1-1.9-4.3-9.9-4.3-9.9Z"/>
        </g>
        <g>
          <path class="cls-19" d="M270.2,170.8c-3.9,1.7-7.4,3.4-11,4.7-2,.7-2.5,1.7-2.5,3.8,0,10.5.2,21,0,31.4-.3,10.5-5.3,18.4-15,22.6-9.5,4.1-18.6,2.6-26.5-4.1-8.3-7.1-9.2-16.5-8.2-27,5.1,2.5,9.8,4.9,14.6,7.2.1-.2.3-.3.4-.5-9.4-13-18.9-25.9-28.8-39.6-.2,1.5-.3,2.2-.3,2.8,0,13.1,0,26.2,0,39.3,0,3.1.6,6.2,1.3,9.2,5,18.9,23.1,30.7,43,28.2,18.8-2.4,33-18.7,33.2-38.3.1-12.4,0-24.8,0-37.2,0-.8-.2-1.5-.3-2.6Z"/>
          <path class="cls-19" d="M281.5,92.1c-1.9-7.8-8.8-13.5-17-14-7.9-.4-15.2,4.2-18.1,11.6-3,7.6-1,16.3,5.7,21.1,3.2,2.4,5.9,4.4,4.3,9.1.3.2.7.4,1,.6,5.3-2.8,10.7-5.3,15.8-8.3,6.9-4.1,10.1-12.3,8.2-20.1ZM263.6,102.9c-3.6,0-6.5-3-6.4-6.6.1-3.5,3-6.2,6.5-6.2,3.4,0,6.3,3.1,6.3,6.5,0,3.5-3,6.3-6.4,6.3Z"/>
          <path class="cls-19" d="M268.1,144.4c-4.5,1.9-9,3.9-13.5,6-3.2,1.5-4.3,4.6-3,7.5,1.2,2.7,4.3,4,7.4,2.7,4.5-1.9,9.1-3.7,13.5-6,1.7-.9,2.8-3,3.6-3.8,0-5.3-4-7.9-7.9-6.3Z"/>
          <path class="cls-19" d="M258.7,133.2c4.8-2,9.6-4,14.3-6.4,1.5-.8,2.4-2.8,3-3.6,0-5.2-3.9-7.9-7.9-6.3-4.6,1.9-9.2,3.9-13.8,6.1-2.9,1.4-4,4.5-2.8,7.4,1.2,2.6,4.2,4,7.1,2.8Z"/>
          <path class="cls-19" d="M251.6,144.2c1.3,2.7,4.4,3.9,7.4,2.7,4.5-1.9,9.1-3.8,13.4-6.1,1.7-.9,2.8-3,3.5-3.8,0-5.3-4-7.9-7.9-6.3-4.6,1.9-9,3.9-13.5,6-3.1,1.4-4.3,4.7-3,7.5Z"/>
          <path class="cls-19" d="M268,158.2c-4.5,1.8-8.9,3.8-13.3,5.9-3.2,1.5-4.4,4.6-3.1,7.5,1.3,2.8,4.4,4,7.7,2.6,4.5-1.9,8.9-3.7,13.2-6,1.7-.9,2.7-2.9,3.4-3.7.2-5.4-3.9-8-8-6.3Z"/>
        </g>
      </g>
    </g>
  </g>
</svg>