<?xml version="1.0" encoding="UTF-8"?>
<svg xmlns="http://www.w3.org/2000/svg" version="1.1" viewBox="0 0 500 500">
  <!-- Generator: Adobe Illustrator 28.7.1, SVG Export Plug-In . SVG Version: 1.2.0 Build 142)  -->
  <g>
    <g id="Background_complete">
      <path d="M303.99,103.13c-2.28,3.47-3.81,7.29-4.63,11.22l-6.27.59v12.14s6.27.59,6.27.59c.82,3.93,2.35,7.75,4.63,11.22l-4,4.84,8.58,8.58,4.84-4c3.47,2.28,7.29,3.81,11.22,4.63l.59,6.27h12.14s.59-6.27.59-6.27c3.94-.82,7.75-2.35,11.22-4.63l4.84,4,8.58-8.58-4-4.84c2.28-3.47,3.81-7.29,4.63-11.22l6.27-.59v-12.14s-6.27-.59-6.27-.59c-.82-3.93-2.35-7.75-4.63-11.22l4-4.84-8.58-8.58-4.84,4c-3.47-2.28-7.29-3.82-11.22-4.63l-.59-6.27h-12.14s-.59,6.27-.59,6.27c-3.93.82-7.75,2.35-11.22,4.63l-4.84-4-8.58,8.58,4,4.84ZM345.23,107.08c7.7,7.7,7.7,20.18,0,27.87-7.7,7.7-20.18,7.7-27.87,0-7.7-7.7-7.7-20.18,0-27.87,7.7-7.7,20.18-7.7,27.87,0Z" style="fill: #f0f0f0;"/>
      <g>
        <g>
          <rect x="179.24" y="34.23" width="95.58" height="75.46" rx="4.94" ry="4.94" style="fill: #e6e6e6;"/>
          <path d="M183.86,34.23h86.41c2.51,0,4.55,2.04,4.55,4.55v8.61h-95.58v-8.53c0-2.55,2.07-4.63,4.63-4.63Z" style="fill: #e0e0e0;"/>
        </g>
        <g>
          <path d="M269.75,41.77c0,1.59-1.29,2.87-2.87,2.87s-2.87-1.29-2.87-2.87,1.29-2.87,2.87-2.87,2.87,1.29,2.87,2.87Z" style="fill: #fafafa; opacity: .5;"/>
          <path d="M261.59,41.77c0,1.59-1.29,2.87-2.87,2.87s-2.87-1.29-2.87-2.87,1.29-2.87,2.87-2.87,2.87,1.29,2.87,2.87Z" style="fill: #fafafa; opacity: .5;"/>
          <circle cx="250.55" cy="41.77" r="2.87" style="fill: #fafafa; opacity: .5;"/>
        </g>
        <rect x="201.18" y="58.39" width="51.14" height="2.68" style="fill: #fff; opacity: .6;"/>
        <rect x="201.97" y="64.18" width="36.59" height="2.68" style="fill: #e0e0e0;"/>
        <rect x="256.84" y="58.39" width="9.35" height="2.68" style="fill: #f0f0f0;"/>
        <rect x="187.57" y="58.39" width="10.06" height="2.68" style="fill: #f0f0f0;"/>
        <rect x="201.18" y="70.62" width="51.14" height="2.68" style="fill: #f0f0f0;"/>
        <rect x="256.84" y="70.62" width="9.35" height="2.68" style="fill: #fff; opacity: .6;"/>
        <rect x="187.57" y="70.62" width="10.06" height="2.68" style="fill: #f0f0f0;"/>
        <rect x="201.18" y="96.12" width="51.14" height="2.68" style="fill: #fff; opacity: .6;"/>
        <rect x="256.84" y="96.12" width="9.35" height="2.68" style="fill: #fff; opacity: .6;"/>
        <rect x="201.18" y="77.07" width="51.14" height="2.68" style="fill: #f0f0f0;"/>
        <rect x="256.84" y="77.07" width="9.35" height="2.68" style="fill: #e0e0e0;"/>
        <rect x="187.57" y="77.07" width="10.06" height="2.68" style="fill: #e0e0e0;"/>
        <rect x="242.57" y="64.29" width="24.31" height="2.68" style="fill: #f0f0f0;"/>
        <rect x="201.18" y="82.69" width="36.59" height="2.68" style="fill: #fff; opacity: .6;"/>
        <rect x="241.77" y="82.8" width="24.31" height="2.68" style="fill: #f0f0f0;"/>
        <rect x="201.18" y="88.52" width="18.3" height="2.68" style="fill: #e0e0e0;"/>
      </g>
      <g>
        <g>
          <path d="M400.3,87.26l-10.83,5.06,10.83,5.06v4.08l-14.47-7.02v-4.24l14.47-7.02v4.08Z" style="fill: #e0e0e0;"/>
          <path d="M433.27,90.2v4.24l-14.47,7.02v-4.08l10.83-5.06-10.83-5.06v-4.08l14.47,7.02Z" style="fill: #e0e0e0;"/>
        </g>
        <polygon points="412.08 80.34 405.02 104.74 408.55 104.74 415.61 80.34 412.08 80.34" style="fill: #e0e0e0;"/>
      </g>
      <path d="M35.82,202.01c-1.33,2.03-2.23,4.26-2.71,6.56l-3.66.34v7.09s3.66.35,3.66.35c.48,2.3,1.37,4.53,2.71,6.56l-2.34,2.82,5.01,5.01,2.82-2.34c2.03,1.33,4.26,2.23,6.56,2.7l.34,3.66h7.09s.34-3.66.34-3.66c2.3-.48,4.53-1.37,6.56-2.71l2.82,2.34,5.01-5.01-2.34-2.82c1.33-2.03,2.23-4.26,2.7-6.56l3.66-.35v-7.09s-3.66-.35-3.66-.35c-.48-2.3-1.37-4.53-2.71-6.56l2.34-2.82-5.01-5.01-2.82,2.34c-2.03-1.33-4.26-2.23-6.56-2.71l-.35-3.66h-7.09s-.34,3.66-.34,3.66c-2.3.48-4.53,1.37-6.56,2.71l-2.82-2.34-5.01,5.01,2.34,2.82ZM59.91,204.31c4.49,4.5,4.5,11.78,0,16.28-4.5,4.5-11.78,4.5-16.28,0s-4.5-11.78,0-16.28c4.5-4.5,11.78-4.5,16.28,0Z" style="fill: #e0e0e0;"/>
      <path d="M439.11,135.32c-1.11,1.68-1.85,3.53-2.25,5.44l-3.04.29v5.89s3.04.29,3.04.29c.4,1.91,1.14,3.76,2.25,5.44l-1.94,2.34,4.16,4.16,2.34-1.94c1.68,1.11,3.53,1.85,5.44,2.25l.29,3.04h5.89s.29-3.04.29-3.04c1.91-.4,3.76-1.14,5.44-2.25l2.34,1.94,4.16-4.16-1.94-2.34c1.11-1.68,1.85-3.53,2.25-5.44l3.04-.29v-5.89s-3.04-.29-3.04-.29c-.4-1.91-1.14-3.76-2.25-5.44l1.94-2.34-4.16-4.16-2.34,1.94c-1.68-1.11-3.53-1.85-5.44-2.25l-.29-3.04h-5.89s-.29,3.04-.29,3.04c-1.91.4-3.76,1.14-5.44,2.25l-2.34-1.94-4.16,4.16,1.94,2.34ZM459.11,137.23c3.73,3.73,3.73,9.78,0,13.52-3.73,3.73-9.78,3.73-13.52,0s-3.73-9.78,0-13.52c3.73-3.73,9.78-3.73,13.52,0Z" style="fill: #e0e0e0;"/>
      <g>
        <rect x="435.76" y="426.47" width="34.85" height=".26" style="fill: #ebebeb;"/>
        <rect x="336.6" y="429.33" width="9.15" height=".26" style="fill: #ebebeb;"/>
        <rect x="414.51" y="416.7" width="20.19" height=".26" style="fill: #ebebeb;"/>
        <rect x="52.46" y="418.47" width="45.44" height=".26" style="fill: #ebebeb;"/>
        <rect x="107.27" y="418.47" width="6.66" height=".26" style="fill: #ebebeb;"/>
        <rect x="135.59" y="422.91" width="98.56" height=".26" style="fill: #ebebeb;"/>
      </g>
      <g>
        <g>
          <path d="M443.92,349.14h-180.75c-3.23,0-5.86-2.63-5.86-5.86V80.01c0-3.23,2.63-5.86,5.86-5.86h180.75c3.23,0,5.86,2.63,5.86,5.86v263.27c0,3.23-2.63,5.86-5.86,5.86ZM263.17,74.4c-3.09,0-5.61,2.52-5.61,5.61v263.27c0,3.09,2.52,5.61,5.61,5.61h180.75c3.09,0,5.61-2.52,5.61-5.61V80.01c0-3.09-2.52-5.61-5.61-5.61h-180.75Z" style="fill: #e0e0e0;"/>
          <path d="M235.49,349.14H54.75c-3.23,0-5.86-2.63-5.86-5.86V80.01c0-3.23,2.63-5.86,5.86-5.86h180.75c3.23,0,5.86,2.63,5.86,5.86v263.27c0,3.23-2.63,5.86-5.86,5.86ZM54.75,74.4c-3.09,0-5.61,2.52-5.61,5.61v263.27c0,3.09,2.52,5.61,5.61,5.61h180.75c3.09,0,5.61-2.52,5.61-5.61V80.01c0-3.09-2.52-5.61-5.61-5.61H54.75Z" style="fill: #e0e0e0;"/>
        </g>
        <rect x="0" y="410.21" width="500" height=".25" style="fill: #e0e0e0;"/>
      </g>
    </g>
    <g id="Background_simple" style="display: none;">
      <path d="M411.14,148.1c-.24-18.06-1.99-36.44-9.08-53.05-7.09-16.61-20.19-31.36-37.37-36.92-15.77-5.1-33.26-2-48.35,4.86-26.98,12.26-47.34,35.4-65.1,59.12-9.3,12.42-18.21,25.27-27.8,37.47-15.19,19.32-37.03,32.28-61.27,36.34l-70.4,11.77c-18.46,3.32-40.75,8.42-46.72,19.61-5.98,11.19-4.26,25.3,1.65,36.53s15.49,20.05,25.38,28c46.52,37.46,103.18,60.58,161.06,75.33,24.17,6.16,49.87,10.91,73.81,3.88,34.9-10.25,58.19-43.13,73.29-76.22,20.92-45.83,31.56-96.33,30.9-146.71Z" style="fill: #407bff;"/>
      <g style="opacity: .9;">
        <path d="M411.14,148.1c-.24-18.06-1.99-36.44-9.08-53.05-7.09-16.61-20.19-31.36-37.37-36.92-15.77-5.1-33.26-2-48.35,4.86-26.98,12.26-47.34,35.4-65.1,59.12-9.3,12.42-18.21,25.27-27.8,37.47-15.19,19.32-37.03,32.28-61.27,36.34l-70.4,11.77c-18.46,3.32-40.75,8.42-46.72,19.61-5.98,11.19-4.26,25.3,1.65,36.53s15.49,20.05,25.38,28c46.52,37.46,103.18,60.58,161.06,75.33,24.17,6.16,49.87,10.91,73.81,3.88,34.9-10.25,58.19-43.13,73.29-76.22,20.92-45.83,31.56-96.33,30.9-146.71Z" style="fill: #fff;"/>
      </g>
    </g>
    <g id="Shadow">
      <path d="M455.06,447.49c0,3.39-93.52,6.13-208.87,6.13s-208.87-2.75-208.87-6.13,93.52-6.13,208.87-6.13,208.87,2.75,208.87,6.13Z" style="fill: #f5f5f5;"/>
    </g>
    <g id="Device">
      <g>
        <g>
          <g>
            <path d="M94.51,121.01h23.63v232.53h-25.42c-4.04,0-7.32-3.28-7.32-7.32v-216.11c0-5.03,4.08-9.11,9.11-9.11Z" style="fill: #263238; isolation: isolate;"/>
            <polygon points="215.62 349.53 205.22 402.82 220.31 402.82 232.35 349.97 215.62 349.53" style="fill: #263238; isolation: isolate;"/>
            <rect x="192.53" y="402.19" width="7.64" height="7.64" style="fill: #263238; isolation: isolate;"/>
            <path d="M94.51,121.01h23.63v232.53h-25.42c-4.04,0-7.32-3.28-7.32-7.32v-216.11c0-5.03,4.08-9.11,9.11-9.11Z" style="fill: #fff; opacity: .5;"/>
            <polygon points="215.62 349.53 205.22 402.82 220.31 402.82 232.35 349.97 215.62 349.53" style="fill: #fff; opacity: .5;"/>
            <rect x="192.53" y="402.19" width="7.64" height="7.64" style="fill: #fff; opacity: .5;"/>
          </g>
          <polygon points="310.38 409.83 213.46 409.83 227.23 329.07 291.73 329.07 310.38 409.83" style="fill: #263238;"/>
          <polygon points="310.38 409.83 213.46 409.83 227.23 329.07 291.73 329.07 310.38 409.83" style="fill: #fff; opacity: .7;"/>
          <polygon points="297.34 353.54 223.02 353.54 220.31 369.45 299.51 362.91 297.34 353.54" style="isolation: isolate; opacity: .1;"/>
          <g>
            <rect x="198.03" y="402.19" width="125.63" height="7.64" style="fill: #263238;"/>
            <g style="opacity: .7;">
              <rect x="198.03" y="402.19" width="125.63" height="7.64" style="fill: #fff;"/>
            </g>
          </g>
          <g>
            <path d="M101.23,121.01h314.24c4.44,0,8.04,3.66,8.04,8.17v216.18c0,4.51-3.6,8.17-8.04,8.17H101.23c-4.44,0-8.04-3.66-8.04-8.17v-216.18c0-4.51,3.6-8.17,8.04-8.17Z" style="fill: #263238;"/>
            <g style="opacity: .7;">
              <path d="M101.23,121.01h314.24c4.44,0,8.04,3.66,8.04,8.17v216.18c0,4.51-3.6,8.17-8.04,8.17H101.23c-4.44,0-8.04-3.66-8.04-8.17v-216.18c0-4.51,3.6-8.17,8.04-8.17Z" style="fill: #fff;"/>
            </g>
            <g>
              <rect x="100.55" y="129.01" width="314.18" height="208.46" style="fill: #0071e3;"/>
              <rect x="100.55" y="129.01" width="314.18" height="208.46" style="fill: #fff; opacity: .9;"/>
              <rect x="100.55" y="129.01" width="314.18" height="16.73" style="fill: #0071e3;"/>
              <path d="M410.55,137.38c0,1.96-1.59,3.56-3.56,3.56s-3.56-1.59-3.56-3.56,1.59-3.56,3.56-3.56,3.56,1.59,3.56,3.56Z" style="fill: #fff; opacity: .5;"/>
              <path d="M400.44,137.38c0,1.96-1.59,3.56-3.56,3.56s-3.56-1.59-3.56-3.56,1.59-3.56,3.56-3.56,3.56,1.59,3.56,3.56Z" style="fill: #fff; opacity: .5;"/>
              <path d="M390.34,137.38c0,1.96-1.59,3.56-3.56,3.56s-3.56-1.59-3.56-3.56,1.59-3.56,3.56-3.56,3.56,1.59,3.56,3.56Z" style="fill: #fff; opacity: .5;"/>
            </g>
          </g>
        </g>
        <g>
          <path d="M158.8,267.82c-1.03,1.56-1.72,3.28-2.08,5.05l-2.82.27v5.46s2.82.27,2.82.27c.37,1.77,1.06,3.48,2.08,5.05l-1.8,2.17,3.86,3.86,2.17-1.8c1.56,1.03,3.28,1.72,5.05,2.08l.27,2.82h5.46s.27-2.82.27-2.82c1.77-.37,3.48-1.06,5.05-2.08l2.17,1.8,3.86-3.86-1.8-2.17c1.03-1.56,1.72-3.28,2.08-5.05l2.82-.27v-5.46s-2.82-.27-2.82-.27c-.37-1.77-1.06-3.48-2.08-5.05l1.8-2.17-3.86-3.86-2.17,1.8c-1.56-1.03-3.28-1.72-5.05-2.08l-.27-2.82h-5.46s-.27,2.82-.27,2.82c-1.77.37-3.48,1.06-5.05,2.08l-2.17-1.8-3.86,3.86,1.8,2.17ZM176.1,270.84c2.77,2.77,2.77,7.27,0,10.04-2.77,2.77-7.27,2.77-10.04,0s-2.77-7.27,0-10.04,7.27-2.77,10.04,0Z" style="fill: #0071e3;"/>
          <path d="M158.8,267.82c-1.03,1.56-1.72,3.28-2.08,5.05l-2.82.27v5.46s2.82.27,2.82.27c.37,1.77,1.06,3.48,2.08,5.05l-1.8,2.17,3.86,3.86,2.17-1.8c1.56,1.03,3.28,1.72,5.05,2.08l.27,2.82h5.46s.27-2.82.27-2.82c1.77-.37,3.48-1.06,5.05-2.08l2.17,1.8,3.86-3.86-1.8-2.17c1.03-1.56,1.72-3.28,2.08-5.05l2.82-.27v-5.46s-2.82-.27-2.82-.27c-.37-1.77-1.06-3.48-2.08-5.05l1.8-2.17-3.86-3.86-2.17,1.8c-1.56-1.03-3.28-1.72-5.05-2.08l-.27-2.82h-5.46s-.27,2.82-.27,2.82c-1.77.37-3.48,1.06-5.05,2.08l-2.17-1.8-3.86,3.86,1.8,2.17ZM176.1,270.84c2.77,2.77,2.77,7.27,0,10.04-2.77,2.77-7.27,2.77-10.04,0s-2.77-7.27,0-10.04,7.27-2.77,10.04,0Z" style="fill: #fff; opacity: .4;"/>
        </g>
        <g>
          <path d="M319.92,201.03c-.95,1.45-1.59,3.04-1.93,4.67l-2.61.25v5.06s2.61.25,2.61.25c.34,1.64.98,3.23,1.93,4.67l-1.67,2.01,3.57,3.57,2.01-1.67c1.45.95,3.04,1.59,4.67,1.93l.25,2.61h5.06s.25-2.61.25-2.61c1.64-.34,3.23-.98,4.67-1.93l2.01,1.67,3.57-3.57-1.67-2.01c.95-1.45,1.59-3.04,1.93-4.67l2.61-.25v-5.06s-2.61-.25-2.61-.25c-.34-1.64-.98-3.23-1.93-4.67l1.67-2.01-3.57-3.57-2.01,1.67c-1.45-.95-3.04-1.59-4.67-1.93l-.25-2.61h-5.06s-.25,2.61-.25,2.61c-1.64.34-3.23.98-4.67,1.93l-2.01-1.67-3.57,3.57,1.67,2.01ZM335.94,203.83c2.57,2.57,2.57,6.73,0,9.3-2.57,2.57-6.73,2.57-9.3,0s-2.57-6.73,0-9.3c2.57-2.57,6.73-2.57,9.3,0Z" style="fill: #0071e3;"/>
          <path d="M319.92,201.03c-.95,1.45-1.59,3.04-1.93,4.67l-2.61.25v5.06s2.61.25,2.61.25c.34,1.64.98,3.23,1.93,4.67l-1.67,2.01,3.57,3.57,2.01-1.67c1.45.95,3.04,1.59,4.67,1.93l.25,2.61h5.06s.25-2.61.25-2.61c1.64-.34,3.23-.98,4.67-1.93l2.01,1.67,3.57-3.57-1.67-2.01c.95-1.45,1.59-3.04,1.93-4.67l2.61-.25v-5.06s-2.61-.25-2.61-.25c-.34-1.64-.98-3.23-1.93-4.67l1.67-2.01-3.57-3.57-2.01,1.67c-1.45-.95-3.04-1.59-4.67-1.93l-.25-2.61h-5.06s-.25,2.61-.25,2.61c-1.64.34-3.23.98-4.67,1.93l-2.01-1.67-3.57,3.57,1.67,2.01ZM335.94,203.83c2.57,2.57,2.57,6.73,0,9.3-2.57,2.57-6.73,2.57-9.3,0s-2.57-6.73,0-9.3c2.57-2.57,6.73-2.57,9.3,0Z" style="fill: #fff; opacity: .4;"/>
        </g>
        <g>
          <path d="M313.66,173.05c-.61.93-1.03,1.96-1.25,3.02l-1.69.16v3.27s1.69.16,1.69.16c.22,1.06.63,2.09,1.25,3.02l-1.08,1.3,2.31,2.31,1.3-1.08c.93.61,1.96,1.03,3.02,1.25l.16,1.69h3.27s.16-1.69.16-1.69c1.06-.22,2.09-.63,3.02-1.25l1.3,1.08,2.31-2.31-1.08-1.3c.61-.93,1.03-1.96,1.25-3.02l1.69-.16v-3.27s-1.69-.16-1.69-.16c-.22-1.06-.63-2.09-1.25-3.02l1.08-1.3-2.31-2.31-1.3,1.08c-.93-.61-1.96-1.03-3.02-1.25l-.16-1.69h-3.27s-.16,1.69-.16,1.69c-1.06.22-2.09.63-3.02,1.25l-1.3-1.08-2.31,2.31,1.08,1.3ZM324.01,174.86c1.66,1.66,1.66,4.35,0,6.01-1.66,1.66-4.35,1.66-6.01,0-1.66-1.66-1.66-4.35,0-6.01,1.66-1.66,4.35-1.66,6.01,0Z" style="fill: #0071e3;"/>
          <path d="M313.66,173.05c-.61.93-1.03,1.96-1.25,3.02l-1.69.16v3.27s1.69.16,1.69.16c.22,1.06.63,2.09,1.25,3.02l-1.08,1.3,2.31,2.31,1.3-1.08c.93.61,1.96,1.03,3.02,1.25l.16,1.69h3.27s.16-1.69.16-1.69c1.06-.22,2.09-.63,3.02-1.25l1.3,1.08,2.31-2.31-1.08-1.3c.61-.93,1.03-1.96,1.25-3.02l1.69-.16v-3.27s-1.69-.16-1.69-.16c-.22-1.06-.63-2.09-1.25-3.02l1.08-1.3-2.31-2.31-1.3,1.08c-.93-.61-1.96-1.03-3.02-1.25l-.16-1.69h-3.27s-.16,1.69-.16,1.69c-1.06.22-2.09.63-3.02,1.25l-1.3-1.08-2.31,2.31,1.08,1.3ZM324.01,174.86c1.66,1.66,1.66,4.35,0,6.01-1.66,1.66-4.35,1.66-6.01,0-1.66-1.66-1.66-4.35,0-6.01,1.66-1.66,4.35-1.66,6.01,0Z" style="fill: #fff; opacity: .7;"/>
        </g>
        <g>
          <path d="M177,300.57c-.61.93-1.03,1.96-1.25,3.02l-1.69.16v3.27s1.69.16,1.69.16c.22,1.06.63,2.09,1.25,3.02l-1.08,1.3,2.31,2.31,1.3-1.08c.93.61,1.96,1.03,3.02,1.25l.16,1.69h3.27s.16-1.69.16-1.69c1.06-.22,2.09-.63,3.02-1.25l1.3,1.08,2.31-2.31-1.08-1.3c.61-.93,1.03-1.96,1.25-3.02l1.69-.16v-3.27s-1.69-.16-1.69-.16c-.22-1.06-.63-2.09-1.25-3.02l1.08-1.3-2.31-2.31-1.3,1.08c-.93-.61-1.96-1.03-3.02-1.25l-.16-1.69h-3.27s-.16,1.69-.16,1.69c-1.06.22-2.09.63-3.02,1.25l-1.3-1.08-2.31,2.31,1.08,1.3ZM187.36,302.38c1.66,1.66,1.66,4.35,0,6.01-1.66,1.66-4.35,1.66-6.01,0s-1.66-4.35,0-6.01,4.35-1.66,6.01,0Z" style="fill: #0071e3;"/>
          <path d="M177,300.57c-.61.93-1.03,1.96-1.25,3.02l-1.69.16v3.27s1.69.16,1.69.16c.22,1.06.63,2.09,1.25,3.02l-1.08,1.3,2.31,2.31,1.3-1.08c.93.61,1.96,1.03,3.02,1.25l.16,1.69h3.27s.16-1.69.16-1.69c1.06-.22,2.09-.63,3.02-1.25l1.3,1.08,2.31-2.31-1.08-1.3c.61-.93,1.03-1.96,1.25-3.02l1.69-.16v-3.27s-1.69-.16-1.69-.16c-.22-1.06-.63-2.09-1.25-3.02l1.08-1.3-2.31-2.31-1.3,1.08c-.93-.61-1.96-1.03-3.02-1.25l-.16-1.69h-3.27s-.16,1.69-.16,1.69c-1.06.22-2.09.63-3.02,1.25l-1.3-1.08-2.31,2.31,1.08,1.3ZM187.36,302.38c1.66,1.66,1.66,4.35,0,6.01-1.66,1.66-4.35,1.66-6.01,0s-1.66-4.35,0-6.01,4.35-1.66,6.01,0Z" style="fill: #fff; opacity: .7;"/>
        </g>
        <g>
          <path d="M199.5,206.29c-4.43,6.75-7.41,14.16-9,21.81l-12.18,1.15v23.58s12.18,1.15,12.18,1.15c1.59,7.64,4.57,15.06,9,21.81l-7.78,9.39,16.68,16.68,9.39-7.78c6.75,4.43,14.16,7.41,21.81,9l1.15,12.18h23.58s1.15-12.18,1.15-12.18c7.65-1.59,15.06-4.57,21.81-9l9.39,7.78,16.68-16.68-7.78-9.39c4.43-6.75,7.41-14.16,9-21.81l12.18-1.15v-23.58s-12.18-1.15-12.18-1.15c-1.59-7.64-4.57-15.06-9-21.81l7.78-9.39-16.68-16.68-9.39,7.78c-6.75-4.43-14.16-7.41-21.81-9l-1.15-12.18h-23.58s-1.15,12.18-1.15,12.18c-7.64,1.59-15.06,4.57-21.81,9l-9.39-7.78-16.68,16.68,7.78,9.39ZM279.62,213.95c14.95,14.95,14.95,39.2,0,54.15-14.96,14.95-39.2,14.95-54.15,0-14.95-14.95-14.95-39.2,0-54.15,14.95-14.95,39.2-14.95,54.15,0Z" style="fill: #0071e3;"/>
          <g>
            <path d="M241.26,244.4h-8.51l-1.62,3.93h-4.34l8.16-18.32h4.19l8.19,18.32h-4.45l-1.62-3.93ZM239.93,241.18l-2.9-7.01-2.9,7.01h5.81Z" style="fill: #0071e3;"/>
            <path d="M261.4,230.82c1.2.54,2.12,1.31,2.76,2.3.64.99.97,2.17.97,3.53s-.32,2.52-.97,3.52c-.65,1-1.57,1.77-2.76,2.3-1.19.53-2.6.8-4.23.8h-3.69v5.05h-4.24v-18.32h7.93c1.62,0,3.03.27,4.23.81ZM259.84,239c.66-.55.99-1.33.99-2.34s-.33-1.82-.99-2.37c-.66-.55-1.63-.82-2.9-.82h-3.46v6.36h3.46c1.27,0,2.24-.27,2.9-.82Z" style="fill: #0071e3;"/>
            <path d="M268.14,230.01h4.24v18.32h-4.24v-18.32Z" style="fill: #0071e3;"/>
          </g>
          <path d="M217.79,245.88c-.25,0-.47-.19-.5-.45-1.06-10.45,1.98-20.46,8.57-28.18.18-.21.5-.23.7-.06.21.18.23.49.06.7-6.41,7.51-9.38,17.25-8.34,27.42.03.27-.17.52-.45.55-.02,0-.03,0-.05,0Z" style="fill: #0071e3;"/>
          <path d="M219.48,253.78c-.22,0-.42-.14-.48-.36-.41-1.39-.74-2.82-1-4.24-.05-.27.13-.53.4-.58.27-.05.53.13.58.4.25,1.39.58,2.78.97,4.14.08.26-.07.54-.34.62-.05.01-.09.02-.14.02Z" style="fill: #0071e3;"/>
        </g>
        <polyline points="128.33 188.8 128.33 238.86 171.08 238.86" style="fill: none; stroke: #0071e3; stroke-linecap: round; stroke-linejoin: round;"/>
        <circle cx="128.33" cy="188.8" r="2.56" style="fill: #0071e3;"/>
        <circle cx="389.2" cy="278.42" r="2.56" style="fill: #0071e3;"/>
        <polyline points="389.2 278.05 389.2 297.9 326.58 297.9 326.58 270.49 317.2 270.49" style="fill: none; stroke: #0071e3; stroke-miterlimit: 10;"/>
      </g>
    </g>
    <g id="Server">
      <g>
        <rect x="359.99" y="305.39" width="108.89" height="104.44" style="fill: #0071e3;"/>
        <rect x="359.99" y="305.39" width="108.89" height="104.44" style="fill: #fff; isolation: isolate; opacity: .4;"/>
        <rect x="394.65" y="305.39" width="74.22" height="104.44" style="fill: #fff; isolation: isolate; opacity: .4;"/>
        <rect x="398.36" y="310.73" width="66.8" height="12.93" style="fill: #0071e3;"/>
        <rect x="398.36" y="326.9" width="66.8" height="12.93" style="fill: #0071e3;"/>
        <rect x="398.36" y="343.06" width="66.8" height="12.93" style="fill: #0071e3;"/>
        <rect x="398.36" y="359.23" width="66.8" height="12.93" style="fill: #0071e3;"/>
        <rect x="398.36" y="375.4" width="66.8" height="12.93" style="fill: #0071e3;"/>
        <rect x="398.36" y="391.57" width="66.8" height="12.93" style="fill: #0071e3;"/>
        <rect x="363.88" y="310.73" width="26.89" height="12.93" style="fill: #0071e3;"/>
        <rect x="363.88" y="326.9" width="26.89" height="12.93" style="fill: #0071e3;"/>
        <rect x="363.88" y="343.06" width="26.89" height="12.93" style="fill: #0071e3;"/>
        <rect x="363.88" y="359.23" width="26.89" height="12.93" style="fill: #0071e3;"/>
        <rect x="363.88" y="375.4" width="26.89" height="12.93" style="fill: #0071e3;"/>
        <rect x="363.88" y="391.57" width="26.89" height="12.93" style="fill: #0071e3;"/>
        <rect x="460.33" y="312.41" width="1.56" height="9.57" style="fill: #fff; isolation: isolate; opacity: .3;"/>
        <rect x="457.33" y="312.41" width="1.56" height="9.57" style="fill: #fff; isolation: isolate; opacity: .3;"/>
        <rect x="454.33" y="312.41" width="1.56" height="9.57" style="fill: #fff; isolation: isolate; opacity: .3;"/>
        <rect x="451.33" y="312.41" width="1.56" height="9.57" style="fill: #fff; isolation: isolate; opacity: .3;"/>
        <rect x="448.33" y="312.41" width="1.56" height="9.57" style="fill: #fff; isolation: isolate; opacity: .3;"/>
        <rect x="460.33" y="328.58" width="1.56" height="9.56" style="fill: #fff; isolation: isolate; opacity: .3;"/>
        <rect x="457.33" y="328.58" width="1.56" height="9.56" style="fill: #fff; isolation: isolate; opacity: .3;"/>
        <rect x="454.33" y="328.58" width="1.56" height="9.56" style="fill: #fff; isolation: isolate; opacity: .3;"/>
        <rect x="451.33" y="328.58" width="1.56" height="9.56" style="fill: #fff; isolation: isolate; opacity: .3;"/>
        <rect x="448.33" y="328.58" width="1.56" height="9.56" style="fill: #fff; isolation: isolate; opacity: .3;"/>
        <rect x="460.33" y="344.75" width="1.56" height="9.56" style="fill: #fff; isolation: isolate; opacity: .3;"/>
        <rect x="457.33" y="344.75" width="1.56" height="9.56" style="fill: #fff; isolation: isolate; opacity: .3;"/>
        <rect x="454.33" y="344.75" width="1.56" height="9.56" style="fill: #fff; isolation: isolate; opacity: .3;"/>
        <rect x="451.33" y="344.75" width="1.56" height="9.56" style="fill: #fff; isolation: isolate; opacity: .3;"/>
        <rect x="448.33" y="344.75" width="1.56" height="9.56" style="fill: #fff; isolation: isolate; opacity: .3;"/>
        <rect x="460.33" y="360.92" width="1.56" height="9.57" style="fill: #fff; isolation: isolate; opacity: .3;"/>
        <rect x="457.33" y="360.92" width="1.56" height="9.57" style="fill: #fff; isolation: isolate; opacity: .3;"/>
        <rect x="454.33" y="360.92" width="1.56" height="9.57" style="fill: #fff; isolation: isolate; opacity: .3;"/>
        <rect x="451.33" y="360.92" width="1.56" height="9.57" style="fill: #fff; isolation: isolate; opacity: .3;"/>
        <rect x="448.33" y="360.92" width="1.56" height="9.57" style="fill: #fff; isolation: isolate; opacity: .3;"/>
        <rect x="460.33" y="377.09" width="1.56" height="9.56" style="fill: #fff; isolation: isolate; opacity: .3;"/>
        <rect x="457.33" y="377.09" width="1.56" height="9.56" style="fill: #fff; isolation: isolate; opacity: .3;"/>
        <rect x="454.33" y="377.09" width="1.56" height="9.56" style="fill: #fff; isolation: isolate; opacity: .3;"/>
        <rect x="451.33" y="377.09" width="1.56" height="9.56" style="fill: #fff; isolation: isolate; opacity: .3;"/>
        <rect x="448.33" y="377.09" width="1.56" height="9.56" style="fill: #fff; isolation: isolate; opacity: .3;"/>
        <rect x="460.33" y="393.25" width="1.56" height="9.57" style="fill: #fff; isolation: isolate; opacity: .3;"/>
        <rect x="457.33" y="393.25" width="1.56" height="9.57" style="fill: #fff; isolation: isolate; opacity: .3;"/>
        <rect x="454.33" y="393.25" width="1.56" height="9.57" style="fill: #fff; isolation: isolate; opacity: .3;"/>
        <rect x="451.33" y="393.25" width="1.56" height="9.57" style="fill: #fff; isolation: isolate; opacity: .3;"/>
        <rect x="448.33" y="393.25" width="1.56" height="9.57" style="fill: #fff; isolation: isolate; opacity: .3;"/>
        <path d="M406.13,317.19c0,.88-.71,1.59-1.59,1.59s-1.59-.71-1.59-1.59.71-1.59,1.59-1.59h0c.88,0,1.59.71,1.59,1.59Z" style="fill: #fff; isolation: isolate; opacity: .2;"/>
        <path d="M416.13,317.19c0,.88-.71,1.59-1.59,1.59s-1.59-.71-1.59-1.59.71-1.59,1.59-1.59h0c.88,0,1.59.71,1.59,1.59Z" style="fill: #fff; isolation: isolate; opacity: .2;"/>
        <path d="M426.13,317.19c0,.88-.71,1.59-1.59,1.59s-1.59-.71-1.59-1.59.71-1.59,1.59-1.59h0c.88,0,1.59.71,1.59,1.59Z" style="fill: #fff; isolation: isolate; opacity: .4;"/>
        <path d="M406.13,333.36c0,.88-.71,1.59-1.59,1.59s-1.59-.71-1.59-1.59.71-1.59,1.59-1.59h0c.88,0,1.59.71,1.59,1.59Z" style="fill: #fff; isolation: isolate; opacity: .4;"/>
        <path d="M416.13,333.36c0,.88-.71,1.59-1.59,1.59s-1.59-.71-1.59-1.59.71-1.59,1.59-1.59h0c.88,0,1.59.71,1.59,1.59Z" style="fill: #fff; isolation: isolate; opacity: .2;"/>
        <path d="M426.13,333.36c0,.88-.71,1.59-1.59,1.59s-1.59-.71-1.59-1.59.71-1.59,1.59-1.59h0c.88,0,1.59.71,1.59,1.59Z" style="fill: #fff; isolation: isolate; opacity: .4;"/>
        <path d="M406.13,349.53c0,.88-.71,1.59-1.59,1.59s-1.59-.71-1.59-1.59.71-1.59,1.59-1.59h0c.88,0,1.59.71,1.59,1.59Z" style="fill: #fff; isolation: isolate; opacity: .2;"/>
        <path d="M416.13,349.53c0,.88-.71,1.59-1.59,1.59s-1.59-.71-1.59-1.59.71-1.59,1.59-1.59h0c.88,0,1.59.71,1.59,1.59Z" style="fill: #fff; isolation: isolate; opacity: .4;"/>
        <path d="M426.13,349.53c0,.88-.71,1.59-1.59,1.59s-1.59-.71-1.59-1.59.71-1.59,1.59-1.59h0c.88,0,1.59.71,1.59,1.59Z" style="fill: #fff; isolation: isolate; opacity: .2;"/>
        <path d="M406.13,365.7c0,.88-.71,1.59-1.59,1.59s-1.59-.71-1.59-1.59.71-1.59,1.59-1.59h0c.88,0,1.59.71,1.59,1.59Z" style="fill: #fff; isolation: isolate; opacity: .4;"/>
        <path d="M416.13,365.7c0,.88-.71,1.59-1.59,1.59s-1.59-.71-1.59-1.59.71-1.59,1.59-1.59h0c.88,0,1.59.71,1.59,1.59Z" style="fill: #fff; isolation: isolate; opacity: .2;"/>
        <path d="M426.13,365.7c0,.88-.71,1.59-1.59,1.59s-1.59-.71-1.59-1.59.71-1.59,1.59-1.59h0c.88,0,1.59.71,1.59,1.59Z" style="fill: #fff; isolation: isolate; opacity: .2;"/>
        <path d="M406.13,381.87c0,.88-.71,1.59-1.59,1.59s-1.59-.71-1.59-1.59.71-1.59,1.59-1.59h0c.88,0,1.59.71,1.59,1.59Z" style="fill: #fff; isolation: isolate; opacity: .2;"/>
        <path d="M416.13,381.87c0,.88-.71,1.59-1.59,1.59s-1.59-.71-1.59-1.59.71-1.59,1.59-1.59h0c.88,0,1.59.71,1.59,1.59Z" style="fill: #fff; isolation: isolate; opacity: .4;"/>
        <path d="M426.13,381.87c0,.88-.71,1.59-1.59,1.59s-1.59-.71-1.59-1.59.71-1.59,1.59-1.59h0c.88,0,1.59.71,1.59,1.59Z" style="fill: #fff; isolation: isolate; opacity: .4;"/>
        <path d="M406.13,398.04c0,.88-.71,1.59-1.59,1.59s-1.59-.71-1.59-1.59.71-1.59,1.59-1.59h0c.88,0,1.59.71,1.59,1.59Z" style="fill: #fff; isolation: isolate; opacity: .4;"/>
        <path d="M416.13,398.04c0,.88-.71,1.59-1.59,1.59s-1.59-.71-1.59-1.59.71-1.59,1.59-1.59h0c.88,0,1.59.71,1.59,1.59Z" style="fill: #fff; isolation: isolate; opacity: .2;"/>
        <path d="M426.13,398.04c0,.88-.71,1.59-1.59,1.59s-1.59-.71-1.59-1.59.71-1.59,1.59-1.59h0c.88,0,1.59.71,1.59,1.59Z" style="fill: #fff; isolation: isolate; opacity: .4;"/>
        <rect x="359.99" y="305.39" width="34.66" height="104.44" style="opacity: .3;"/>
      </g>
    </g>
    <g id="Screens">
      <g>
        <g>
          <rect x="354.01" y="175.26" width="111.08" height="93.4" rx="4.94" ry="4.94" style="fill: #0071e3;"/>
          <rect x="354.01" y="175.26" width="111.08" height="93.4" rx="4.94" ry="4.94" style="fill: #fff; opacity: .5;"/>
          <path d="M358.64,175.26h101.91c2.51,0,4.55,2.04,4.55,4.55v11.74h-111.08v-11.66c0-2.55,2.07-4.63,4.63-4.63Z" style="fill: #0071e3;"/>
        </g>
        <g>
          <path d="M458.81,184.59c0,1.96-1.59,3.56-3.56,3.56s-3.56-1.59-3.56-3.56,1.59-3.56,3.56-3.56,3.56,1.59,3.56,3.56Z" style="fill: #fff; opacity: .5;"/>
          <path d="M448.71,184.59c0,1.96-1.59,3.56-3.56,3.56s-3.56-1.59-3.56-3.56,1.59-3.56,3.56-3.56,3.56,1.59,3.56,3.56Z" style="fill: #fff; opacity: .5;"/>
          <path d="M438.6,184.59c0,1.96-1.59,3.56-3.56,3.56s-3.56-1.59-3.56-3.56,1.59-3.56,3.56-3.56,3.56,1.59,3.56,3.56Z" style="fill: #fff; opacity: .5;"/>
        </g>
        <rect x="379.01" y="205.16" width="56.97" height="3.32" style="fill: #fff; opacity: .6;"/>
        <rect x="379.89" y="212.34" width="40.77" height="3.32" style="fill: #263238; opacity: .6;"/>
        <rect x="440.17" y="205.16" width="11.21" height="3.32" style="fill: #0071e3;"/>
        <rect x="363.84" y="205.16" width="11.21" height="3.32" style="fill: #0071e3;"/>
        <rect x="379.01" y="220.31" width="56.97" height="3.32" style="fill: #0071e3;"/>
        <rect x="440.17" y="220.31" width="11.21" height="3.32" style="fill: #fff; opacity: .6;"/>
        <rect x="363.84" y="220.31" width="11.21" height="3.32" style="fill: #0071e3;"/>
        <rect x="379.01" y="251.87" width="56.97" height="3.32" style="fill: #0071e3;"/>
        <rect x="440.17" y="251.87" width="11.21" height="3.32" style="fill: #fff; opacity: .6;"/>
        <rect x="379.01" y="228.29" width="56.97" height="3.32" style="fill: #0071e3;"/>
        <rect x="440.17" y="228.29" width="11.21" height="3.32" style="fill: #263238; opacity: .6;"/>
        <rect x="363.84" y="228.29" width="11.21" height="3.32" style="fill: #263238; opacity: .6;"/>
        <rect x="425.12" y="212.47" width="27.08" height="3.32" style="fill: #0071e3;"/>
        <rect x="379.01" y="235.25" width="40.77" height="3.32" style="fill: #fff; opacity: .6;"/>
        <rect x="424.24" y="235.38" width="27.08" height="3.32" style="fill: #0071e3;"/>
        <rect x="379.01" y="242.46" width="20.38" height="3.32" style="fill: #263238; opacity: .6;"/>
      </g>
      <g>
        <g>
          <rect x="52.7" y="79.65" width="111.08" height="93.4" rx="4.94" ry="4.94" style="fill: #0071e3;"/>
          <rect x="52.7" y="79.65" width="111.08" height="93.4" rx="4.94" ry="4.94" style="fill: #fff; opacity: .5;"/>
          <path d="M57.32,79.65h101.91c2.51,0,4.55,2.04,4.55,4.55v11.74H52.7v-11.66c0-2.55,2.07-4.63,4.63-4.63Z" style="fill: #0071e3;"/>
        </g>
        <g>
          <path d="M157.5,88.99c0,1.96-1.59,3.56-3.56,3.56s-3.56-1.59-3.56-3.56,1.59-3.56,3.56-3.56,3.56,1.59,3.56,3.56Z" style="fill: #fff; opacity: .5;"/>
          <path d="M147.4,88.99c0,1.96-1.59,3.56-3.56,3.56s-3.56-1.59-3.56-3.56,1.59-3.56,3.56-3.56,3.56,1.59,3.56,3.56Z" style="fill: #fff; opacity: .5;"/>
          <path d="M137.29,88.99c0,1.96-1.59,3.56-3.56,3.56s-3.56-1.59-3.56-3.56,1.59-3.56,3.56-3.56,3.56,1.59,3.56,3.56Z" style="fill: #fff; opacity: .5;"/>
        </g>
        <path d="M143.24,131.72c-3.69-4.94-11.23-7.35-16.26-3.79-1.24-7.07-6.36-13.34-13.05-15.96-6.69-2.62-14.71-1.5-20.42,2.85-5.72,4.35-8.93,11.78-8.18,18.93-4.85-1.1-10.19.06-13.35,5.08-4.09,6.51,1.21,12.96,1.21,12.96l28.5.16v-10.45h-3.64c-.65,0-.98-.77-.53-1.24l4.2-4.38,4.85-5.07c.29-.3.77-.3,1.06,0l4.85,5.07,4.2,4.38c.45.47.12,1.24-.53,1.24h-3.64v10.51l30.33.17c4.32-4.97,4.1-15.52.41-20.46Z" style="fill: #fff;"/>
      </g>
    </g>
    <g id="Character">
      <g>
        <g>
          <g>
            <g>
              <path d="M94.12,287.62s-35.49,1.58-39.36,32.62c-3.87,31.03,26.15,29.91,34.81,30,3.93.04,11.77.02,19.16-.02,15.69-.08,28.21-5.96,31.28-21.35.36-1.79.56-3.63.58-5.48.1-16.68-12.43-38.52-46.47-35.77Z" style="fill: #0071e3;"/>
              <path d="M127.13,323.87l-45.45,3.22c-4.76.34-8.9-3.25-9.24-8.01h0c-.34-4.76,3.25-8.9,8.01-9.24l45.45-3.22c4.76-.34,8.9,3.25,9.24,8.01h0c.34,4.76-3.25,8.9-8.01,9.24Z" style="fill: #263238;"/>
              <path d="M91.69,319.01c-.21,1.52-1.61,2.58-3.13,2.37-1.52-.21-2.58-1.61-2.37-3.13.21-1.52,1.61-2.58,3.13-2.37,1.52.21,2.58,1.61,2.37,3.13Z" style="fill: #fff;"/>
              <path d="M123.44,316.75c-.21,1.52-1.61,2.58-3.13,2.37-1.52-.21-2.58-1.61-2.37-3.13.21-1.52,1.61-2.58,3.13-2.37,1.52.21,2.58,1.61,2.37,3.13Z" style="fill: #fff;"/>
              <path d="M105.33,305.84c-.08.02-.44-1.27-1.04-3.33-.59-2.06-1.6-4.85-3.31-7.63-1.67-2.79-3.92-4.8-5.8-5.77-1.88-1-3.22-1.19-3.2-1.3,0-.03.34,0,.94.11.59.13,1.45.37,2.43.85,1.99.91,4.38,2.97,6.09,5.83,1.75,2.83,2.72,5.72,3.22,7.81.26,1.05.44,1.9.55,2.5.11.59.15.92.12.93Z" style="fill: #fff;"/>
              <path d="M100.28,350.25c-.06-.08,1.07-.89,2.54-2.54,1.46-1.64,3.21-4.22,4.13-7.46.83-3.26,1.17-6.33,1.12-8.55-.02-2.22-.06-3.61.02-3.61.04,0,.09.34.16.96.07.62.15,1.52.21,2.64.15,2.25-.12,5.37-.98,8.71-.95,3.34-2.81,5.97-4.38,7.57-.78.81-1.49,1.39-1.99,1.77-.51.37-.81.54-.83.52Z" style="fill: #fff;"/>
              <g style="opacity: .3;">
                <path d="M131.97,343.2c-3.69-2.56-6.51-2.46-11.21-3.35-4.7-.89-9.5-1.11-14.26-1.22-11.02-.25-22.39.19-31.87,4.05-2.67,1.09-4.95,2.43-6.4,4.49,0,0,4.56,2.48,13.94,2.85,8.97.36,27.73.15,27.73.15,0,0,8.39.08,15.61-3.02,5.93-2.55,6.47-3.96,6.47-3.96Z"/>
              </g>
              <path d="M137.95,314.14s.16.56.17,1.64c0,1.08-.14,2.73-1.07,4.6-.91,1.86-2.75,3.85-5.48,5.02-2.72,1.2-6.1,1.59-9.75,1.85-7.34.57-16.06,1.24-25.74,1.99-2.42.18-4.9.37-7.44.57-2.54.16-5.12.47-7.79.45-2.65-.02-5.52-.61-7.71-2.44-2.15-1.81-3.59-4.47-3.93-7.32-.37-2.86.44-5.79,2.09-8.04,1.65-2.27,4.06-3.87,6.67-4.59,1.31-.38,2.65-.44,3.93-.57,1.29-.12,2.57-.24,3.84-.35,2.53-.23,5.01-.46,7.43-.68,4.84-.44,9.43-.86,13.74-1.25,4.31-.32,8.29-.96,11.97-1.18,1.84-.11,3.6-.11,5.26.01,1.66.11,3.23.37,4.63.81,2.83.85,5,2.31,6.43,3.81,1.42,1.53,2.09,3.04,2.4,4.07.18.51.23.93.28,1.2.05.27.07.41.06.42-.04,0-.1-.56-.45-1.58-.34-1.01-1.03-2.48-2.45-3.96-1.43-1.44-3.58-2.86-6.37-3.66-1.39-.42-2.92-.66-4.57-.75-1.64-.11-3.39-.1-5.21.02-3.65.24-7.63.91-11.94,1.25-4.3.41-8.9.84-13.74,1.3-2.42.23-4.9.46-7.43.7-1.27.12-2.55.24-3.84.36-1.3.13-2.6.19-3.84.56-2.49.69-4.8,2.23-6.37,4.39-1.57,2.15-2.34,4.93-1.99,7.65.33,2.72,1.7,5.26,3.74,6.97,2.06,1.72,4.77,2.3,7.37,2.33,2.61.03,5.21-.27,7.74-.43,2.54-.19,5.02-.37,7.44-.55,9.69-.7,18.41-1.34,25.75-1.87,3.65-.24,6.99-.6,9.66-1.75,2.68-1.11,4.49-3.03,5.41-4.83.94-1.82,1.12-3.44,1.15-4.51.02-1.08-.1-1.64-.06-1.64Z" style="fill: #fff;"/>
              <path d="M54.53,325.43c-.04-.06.67-.57,1.89-1.24,1.22-.68,2.98-1.5,5.01-2.17,2.03-.67,3.94-1.05,5.32-1.23,1.39-.18,2.25-.19,2.26-.12.02.17-3.41.56-7.41,1.88-4.01,1.31-6.99,3.04-7.08,2.89Z" style="fill: #fff;"/>
              <path d="M95.79,292.27c.27-.13.64.12.63.42-.02.3-.41.51-.67.35-.26-.16-.26-.6,0-.76" style="fill: #fff;"/>
              <path d="M100.16,301.05c.27-.13.64.12.63.42s-.41.51-.67.35c-.26-.16-.26-.6,0-.76" style="fill: #fff;"/>
              <path d="M63.84,318.87c.27-.13.64.12.63.42-.02.3-.41.51-.67.35-.26-.16-.26-.6,0-.76" style="fill: #fff;"/>
              <path d="M56.47,321.59c.27-.13.64.12.63.42-.02.3-.41.51-.67.35-.26-.16-.26-.6,0-.76" style="fill: #fff;"/>
              <g style="opacity: .3;">
                <path d="M103.4,289.42c.03.4-3.21.86-8.35,1.75-5.1.92-12.21,2.32-19.1,5.93-3.4,1.82-6.35,4.07-8.7,6.45-2.34,2.39-4.1,4.86-5.27,7.11-2.38,4.5-2.62,7.81-3.09,7.75-.17-.01-.31-.84-.22-2.36.08-1.51.52-3.7,1.55-6.23,1.02-2.53,2.76-5.34,5.19-8.02,2.43-2.67,5.57-5.18,9.25-7.14,3.68-1.93,7.43-3.19,10.88-4,3.46-.81,6.61-1.22,9.26-1.43,5.3-.41,8.57-.17,8.6.18Z" style="fill: #fff;"/>
              </g>
              <g style="opacity: .3;">
                <path d="M63.03,334.52c-.54.52-2.42-.57-3.6-2.83-1.18-2.26-1-4.43-.26-4.57.76-.16,1.71,1.42,2.71,3.3.97,1.89,1.71,3.58,1.15,4.11Z" style="fill: #fff;"/>
              </g>
            </g>
            <path d="M111.24,317.35s.24.94-.35,2.33c-.3.68-.8,1.44-1.57,2.07-.77.63-1.82,1.07-2.97,1.18-1.15.1-2.26-.16-3.13-.65-.87-.49-1.5-1.15-1.91-1.77-.81-1.27-.8-2.24-.74-2.23.1-.03.22.89,1.06,2.01.42.55,1.02,1.13,1.83,1.55.8.42,1.8.63,2.84.55,1.04-.09,1.99-.48,2.7-1.03.72-.55,1.21-1.23,1.54-1.84.63-1.25.6-2.17.7-2.16Z" style="fill: #fff;"/>
          </g>
          <g>
            <path d="M138.51,361.27c2.07.75-.3,31.32-1.89,46.89-.85,8.35-2.12,17.02-6.91,23.91-5.34,7.67-14.8,11.09-24.1,12.07-12.94,1.38-23.08-4.75-28.96-15.04-5.58-9.76-9.58-20.98-11-32.14-1.63-12.85-2.73-21.23-2.38-32.47,0,0,37.66-16.91,75.24-3.23Z" style="fill: #0071e3;"/>
            <path d="M86.69,422.99c.27-.15.65.08.65.38,0,.3-.38.54-.65.4-.27-.14-.29-.58-.04-.76" style="fill: #fff;"/>
            <path d="M100.27,423.45c.27-.15.65.08.65.38,0,.3-.38.54-.65.4-.27-.14-.29-.58-.04-.76" style="fill: #fff;"/>
            <path d="M116.1,410.54c.27-.15.65.08.65.38,0,.3-.38.54-.65.4-.27-.14-.29-.58-.04-.76" style="fill: #fff;"/>
            <path d="M111.82,375.5c.27-.15.65.08.65.38,0,.3-.38.54-.65.4-.27-.14-.29-.58-.04-.76" style="fill: #fff;"/>
            <path d="M125.28,382.18c.27-.15.65.08.65.38,0,.3-.38.54-.65.4-.27-.14-.29-.58-.04-.76" style="fill: #fff;"/>
            <path d="M71.62,417.87c.27-.15.65.08.65.38,0,.3-.38.54-.65.4-.27-.14-.29-.58-.04-.76" style="fill: #fff;"/>
            <path d="M70.22,406.21c.27-.15.65.08.65.38,0,.3-.38.54-.65.4-.27-.14-.29-.58-.04-.76" style="fill: #fff;"/>
            <path d="M70.01,395.73c.27-.15.65.08.65.38,0,.3-.38.54-.65.4-.27-.14-.29-.58-.04-.76" style="fill: #fff;"/>
            <path d="M69.83,384.59c.27-.15.65.08.65.38,0,.3-.38.54-.65.39-.27-.14-.29-.58-.04-.76" style="fill: #fff;"/>
            <path d="M133.71,380.08c.27-.15.65.08.65.38,0,.3-.38.54-.65.4-.27-.14-.29-.58-.04-.76" style="fill: #fff;"/>
            <path d="M117.41,423.65c.27-.15.65.08.65.38,0,.3-.38.54-.65.4-.27-.14-.29-.58-.04-.76" style="fill: #fff;"/>
            <path d="M118.1,434.68c.27-.15.65.08.65.38s-.38.54-.65.4c-.27-.14-.29-.58-.04-.76" style="fill: #fff;"/>
            <path d="M84.42,436.59s-.2-.16-.54-.49c-.34-.34-.84-.85-1.43-1.54-1.19-1.38-2.84-3.53-4-6.62-.58-1.54-1.01-3.3-1.4-5.18-.42-1.87-.81-3.89-1.22-6.01-.8-4.24-1.55-8.93-2.16-13.88-1.23-9.9-1.61-18.93-1.66-25.46-.01-3.27.04-5.91.11-7.73.04-.87.08-1.56.1-2.1.03-.48.05-.73.07-.73.02,0,.03.25.04.73,0,.54,0,1.23,0,2.1,0,1.82,0,4.46.06,7.72.15,6.52.59,15.52,1.82,25.4.61,4.93,1.34,9.62,2.11,13.86.39,2.12.77,4.13,1.17,6.01.37,1.88.76,3.61,1.31,5.14,1.09,3.06,2.67,5.21,3.8,6.62.57.71,1.03,1.24,1.35,1.6.32.36.48.56.46.57Z" style="fill: #fff;"/>
            <path d="M111.45,404.76c.15,0,.67,8.48,1.16,18.96.49,10.48.77,18.98.61,18.99-.15,0-.67-8.48-1.16-18.96-.49-10.48-.77-18.98-.61-18.98Z" style="fill: #fff;"/>
            <path d="M99.03,356.21s.28.27.7.81c.42.54,1.02,1.34,1.74,2.33,1.45,1.98,3.43,4.74,5.58,7.81.27.38.53.76.8,1.14l.1.14s.09.08.11.18c.03.08.05.16.07.24l.02.18c.03.24.04.46.05.69.03.9.02,1.75,0,2.56-.04,1.63-.11,3.09-.17,4.32-.07,1.23-.14,2.22-.2,2.91-.06.69-.11,1.06-.15,1.06-.08,0-.08-1.53-.04-3.98.02-1.28.03-2.73.05-4.31,0-.81,0-1.66-.03-2.53-.01-.22-.02-.44-.05-.64l-.02-.16s-.02-.06-.02-.09c0-.05-.12-.14-.17-.24-.26-.37-.53-.75-.8-1.14-2.15-3.07-4.08-5.86-5.45-7.9-.69-1.02-1.23-1.85-1.6-2.43-.37-.58-.56-.91-.53-.94Z" style="fill: #fff;"/>
            <path d="M111.23,420.76s-.48.1-1.34.18c-.87.08-2.12.16-3.68.24-3.11.16-7.41.26-12.16.15-4.75-.11-9.04-.4-12.14-.69-1.55-.15-2.8-.29-3.66-.41-.86-.12-1.34-.2-1.33-.24s.49-.03,1.35.02c.98.06,2.21.14,3.67.23,3.1.2,7.38.42,12.12.53,4.74.1,9.03.07,12.13,0,1.47-.03,2.7-.05,3.68-.07.87-.01,1.35,0,1.35.04Z" style="fill: #fff;"/>
            <path d="M138.7,381.77s-.25.2-.76.47c-.51.27-1.26.63-2.21,1.01-1.9.79-4.6,1.66-7.66,2.32-3.06.66-5.88,1.01-7.92,1.16-2.04.15-3.31.14-3.31.07,0-.08,1.25-.2,3.28-.46,2.02-.25,4.81-.65,7.84-1.31,3.03-.66,5.73-1.46,7.64-2.15,1.92-.68,3.07-1.2,3.11-1.12Z" style="fill: #fff;"/>
            <g>
              <g>
                <path d="M121.18,393.38c-.5,6.83-6.44,11.96-13.27,11.46-6.83-.5-11.96-6.44-11.47-13.27s6.44-11.96,13.27-11.46c6.83.5,11.96,6.44,11.46,13.27Z" style="fill: #263238;"/>
                <path d="M117.82,393.14c-.36,4.98-4.69,8.72-9.67,8.35-4.98-.36-8.72-4.69-8.35-9.67.36-4.98,4.69-8.72,9.67-8.35,4.98.36,8.72,4.69,8.35,9.67Z" style="fill: #fff;"/>
              </g>
              <path d="M113.47,394.78s-.06-.56-.08-1.49c-.02-.94-.04-2.27-.04-3.89l.1.18c-1.35-.79-2.93-1.71-4.65-2.71h.26c-1.46.82-3.04,1.71-4.69,2.64-.13.21.17-.29.14-.24h0s0,0,0,0h0s0,.03,0,.03v.04s0,.09,0,.09v.18s0,.35,0,.35v.7c-.02.46-.03.92-.03,1.37-.02.9-.03,1.77-.05,2.61l-.13-.23c1.7,1.04,3.25,1.98,4.59,2.81h-.2c1.43-.77,2.61-1.39,3.45-1.81.83-.42,1.32-.65,1.35-.63.03.02-.38.29-1.17.78-.79.48-1.96,1.18-3.43,2.03l-.1.06-.1-.06c-1.36-.79-2.93-1.71-4.65-2.71l-.13-.07v-.15c0-.84.02-1.71.03-2.61,0-.45.01-.91.02-1.37v-.7s.01-.35.01-.35v-.18s0-.09,0-.09v-.04s0-.02,0-.02h0s0-.02,0-.02h0s.27-.45.14-.24c1.66-.92,3.24-1.8,4.71-2.61l.13-.07.13.08c1.7,1.04,3.26,1.99,4.59,2.81l.1.06v.12c-.05,1.69-.11,3.05-.16,3.98-.05.93-.09,1.42-.13,1.4Z" style="fill: #0071e3;"/>
            </g>
            <g style="opacity: .2;">
              <path d="M63.27,364.49s37.69-17.15,75.24-3.23c0,0-17.56,14.39-75.24,3.23Z"/>
            </g>
          </g>
        </g>
        <path d="M138.51,361.27s22.66-18.23,26.64-16.86c3.98,1.37,5.52,3.47,3.68,8.39-1.84,4.92-30.32,32.18-30.32,32.18v-23.71Z" style="fill: #0071e3;"/>
        <path d="M137.62,396.11s.13-.48.24-1.36c.11-.88.23-2.15.35-3.73.25-3.15.48-7.51.61-12.33.13-4.82.14-9.19.1-12.35-.02-1.58-.06-2.86-.1-3.74-.04-.88-.09-1.37-.14-1.37-.05,0-.09.49-.14,1.37-.03,1.04-.08,2.28-.12,3.74-.08,3.33-.19,7.61-.3,12.33-.15,4.72-.29,8.99-.4,12.32-.05,1.45-.1,2.7-.13,3.74-.02.88-.01,1.37.03,1.38Z" style="fill: #263238;"/>
        <g style="opacity: .2;">
          <path d="M76.86,370.72c-1.13,11.82-5.09,24.8-9.36,35.88-.76-3.39-1.42-6.65-1.85-9.64.48-3.39,2.69-7.95,4.09-11.08,2.25-5.05,4.5-10.1,6.75-15.15"/>
        </g>
        <g>
          <path d="M63.27,364.49s-20.72,42.32-12.74,46.87c11.35,6.46,27.04-44.15,27.04-44.15l-7.35-1.46-6.96-1.26Z" style="fill: #0071e3;"/>
          <path d="M61.32,404.76s.38-.43.97-1.28c.58-.85,1.38-2.11,2.3-3.7,1.85-3.18,4.12-7.74,6.27-12.92,2.15-5.19,3.81-9.99,4.88-13.51.54-1.76.94-3.19,1.19-4.19.25-1,.37-1.55.32-1.57-.05-.01-.25.52-.58,1.49-.38,1.11-.85,2.48-1.4,4.11-1.19,3.47-2.92,8.23-5.06,13.39-2.14,5.16-4.33,9.73-6.06,12.95-.85,1.62-1.58,2.91-2.1,3.8-.51.89-.78,1.39-.74,1.42Z" style="fill: #263238;"/>
        </g>
      </g>
    </g>
    <g id="Speech_Bubble">
      <g>
        <path d="M26.66,259.95h36.6c3.31,0,5.99,2.68,5.99,5.99v19.76c0,3.31-2.68,5.99-5.99,5.99h-8.75l-.07,5.98-6.59-5.98h-21.18c-3.31,0-5.99-2.68-5.99-5.99v-19.76c0-3.31,2.68-5.99,5.99-5.99Z" style="fill: #0071e3;"/>
        <g>
          <g>
            <path d="M40.45,272.69l-5.77,2.7,5.77,2.69v2.17l-7.71-3.74v-2.26l7.71-3.74v2.17Z" style="fill: #fff;"/>
            <path d="M58.01,274.26v2.26l-7.71,3.74v-2.17l5.77-2.69-5.77-2.7v-2.17l7.71,3.74Z" style="fill: #fff;"/>
          </g>
          <polygon points="46.72 269.01 42.96 282 44.84 282 48.6 269.01 46.72 269.01" style="fill: #fff;"/>
        </g>
        <path d="M54.81,258.6h-18.8c-.14,0-.25-.11-.25-.25s.11-.25.25-.25h18.8c.14,0,.25.11.25.25s-.11.25-.25.25Z" style="fill: #0071e3;"/>
        <path d="M59.99,258.61h-2.97c-.14,0-.25-.11-.25-.25s.11-.25.25-.25h2.97c.14,0,.25.11.25.25s-.11.25-.25.25Z" style="fill: #0071e3;"/>
      </g>
    </g>
  </g>
</svg>