<?xml version="1.0" encoding="UTF-8"?>
<svg xmlns="http://www.w3.org/2000/svg" version="1.1" viewBox="0 0 500 500">
  <defs>
    <style>
      .cls-1, .cls-2 {
        opacity: .6;
      }

      .cls-3 {
        fill: #fafafa;
      }

      .cls-4 {
        fill: #0071e3;
      }

      .cls-5 {
        fill: #263238;
      }

      .cls-6 {
        fill: #aa6550;
      }

      .cls-7 {
        opacity: .3;
      }

      .cls-8, .cls-9, .cls-2, .cls-10, .cls-11 {
        fill: #fff;
      }

      .cls-9 {
        fill-rule: evenodd;
      }

      .cls-12 {
        fill: #e0e0e0;
      }

      .cls-13, .cls-14 {
        fill: none;
      }

      .cls-15 {
        fill: #b78876;
      }

      .cls-16 {
        opacity: .8;
      }

      .cls-14 {
        stroke: #0071e3;
        stroke-miterlimit: 10;
        stroke-width: 2px;
      }

      .cls-17 {
        fill: #ebebeb;
      }

      .cls-18 {
        display: none;
      }

      .cls-19 {
        fill: #455a64;
      }

      .cls-20 {
        fill: #f5f5f5;
      }

      .cls-10 {
        font-size: 5.4px;
        letter-spacing: 0em;
      }

      .cls-10, .cls-11 {
        font-family: Manrope-Bold, Manrope;
        font-weight: 700;
      }

      .cls-21 {
        opacity: .5;
      }

      .cls-11 {
        font-size: 8.2px;
        letter-spacing: 0em;
      }
    </style>
  </defs>
  <!-- Generator: Adobe Illustrator 28.7.1, SVG Export Plug-In . SVG Version: 1.2.0 Build 142)  -->
  <g>
    <g id="Background_Complete">
      <g>
        <path class="cls-12" d="M85.9,400.6v-33.5c18.4,0,33.5,15.1,33.5,33.5s-15.1,33.5-33.5,33.5-33.1-14.6-33.5-32.7l33.5-.8Z"/>
        <path class="cls-20" d="M77.7,391.5l-33.5.8c0-8.7,3.4-17.9,9.5-24.1,6.1-6.3,14.8-9.9,23.5-10.1l.5,33.5Z"/>
      </g>
      <g>
        <path class="cls-20" d="M436.5,74.5l25.1-3.8c2.1,13.8-7.5,26.8-21.3,28.9-13.8,2.1-26.8-7.5-28.9-21.3-2.1-13.8,7.5-26.8,21.3-28.9,2.2-.3,4.4-.4,6.6-.1l-2.8,25.2Z"/>
        <path class="cls-12" d="M444.7,49.3l-3,19.5,19.1-3.6s-2.8-10.9-16.1-15.9Z"/>
      </g>
      <g>
        <rect class="cls-12" x="51.5" y="60.3" width="13.9" height="55.6"/>
        <rect class="cls-12" x="71.9" y="72.5" width="13.9" height="43.4"/>
        <rect class="cls-12" x="92.7" y="82.4" width="13.9" height="33.5"/>
        <rect class="cls-12" x="111.9" y="96" width="13.9" height="19.9"/>
      </g>
      <g>
        <path class="cls-20" d="M292.2,262.7c-.3-17.1,13.4-31.3,30.4-31.6,17.1-.3,31.2,13.4,31.4,30.6.3,17.1-13.4,31.3-30.4,31.6-17.1.3-31.2-13.4-31.4-30.6ZM337.9,262c-.1-8.2-6.9-14.8-15-14.6-8.2.1-14.7,6.9-14.6,15.1.1,8.2,6.9,14.8,15,14.6,8.2-.1,14.7-6.9,14.6-15.1Z"/>
        <path class="cls-12" d="M292.2,262.7c-.3-17.1,13.4-31.3,30.4-31.6l.3,16.2c-8.2.1-14.7,6.9-14.6,15.1.1,8.2,6.9,14.7,15,14.6l.3,16.2c-17.1.3-31.2-13.4-31.4-30.6Z"/>
        <path class="cls-17" d="M319.8,228.7c20-.3,35.9,15.2,36.2,35.2l-18.9.3c-.2-9.6-7.4-15.6-17-15.5l-.3-20Z"/>
      </g>
    </g>
    <g id="Background_Simple" class="cls-18">
      <path class="cls-20" d="M373.1,173l-1.6-2.6c-13.5-21.9-37.8-35.1-63.4-33.5-3.3.2-6.6.6-9.8,1.3-23.3,4.9-43.6,22.3-52,44.6-4.9,13.1-6.3,28.2-15.7,38.6-12.2,13.5-32.9,14-51.2,13.4-18.2-.6-39,0-51.1,13.5-7.6,8.5-10,20.6-9.4,32,1.6,30.2,22.9,57.2,50,70.6,27.1,13.4,59,14.6,88.7,8.7,41.5-8.3,81.1-31,104.8-66.1,23.7-35.1,29.8-82.9,10.8-120.7,0,0,0,0,0,0Z"/>
      <circle class="cls-20" cx="176.8" cy="171.8" r="34.1"/>
    </g>
    <g id="Floor">
      <path class="cls-5" d="M457.9,467.4c0,.1-93.1.3-207.9.3s-207.9-.1-207.9-.3,93.1-.3,207.9-.3,207.9.1,207.9.3Z"/>
    </g>
    <g id="Character">
      <g>
        <g>
          <path class="cls-15" d="M286.1,215.2l-4.4,6.2-1.2,5,4.5,6.4,8.5-5.2,7.4-7.2c.5-.5.5-1.2.1-1.8l-1.2-1.6.2-.3c.4-1,.1-2.1-.8-2.7l-1.1-.8,4-5.1c.6-.7.6-1.7,0-2.5h0l-10.3,7.7h-4.4c0,0-1.4,1.9-1.4,1.9Z"/>
          <path class="cls-6" d="M300,216.8c0,0-.5.5-1.4,1.2-.5.3-1,.7-1.7,1-.4.1-.8.3-1.3.1-.5,0-.9-.5-1-1-.1-.5,0-1,.3-1.4.2-.4.5-.7.8-.9.5-.5.9-1,1.3-1.4.8-.8,1.3-1.3,1.3-1.2,0,0-.4.6-1.1,1.5-.4.5-.8,1-1.3,1.5-.5.6-1.1,1.2-.9,1.9,0,.3.3.6.7.6.3,0,.7,0,1,0,.6-.3,1.2-.6,1.7-.9,1-.6,1.5-.9,1.6-.9Z"/>
          <path class="cls-6" d="M301.1,219.9c0,0-.5.6-1.3,1.3-.4.4-.9.9-1.6,1.2-.7.4-1.9.5-2.5-.5-.2-.5,0-1.1.2-1.4.2-.4.5-.7.7-1,.5-.6,1-1,1.5-1.4.9-.7,1.6-1,1.6-.9,0,0-.6.4-1.4,1.2-.4.4-.9.8-1.4,1.4-.2.3-.5.6-.7.9-.2.3-.3.7-.1,1,.1.3.5.5.8.5.3,0,.7,0,1-.2.6-.3,1.2-.8,1.6-1.1.9-.7,1.5-1.1,1.5-1Z"/>
          <path class="cls-6" d="M289,223.6c0,0,.7-.5,1.3-1.8.3-.6.5-1.4.4-2.4,0-.9-.2-2-.8-2.9l-.4-.5h.6c.5.2,1.1.2,1.7,0,.8-.1,1.6-.5,2.2-.9.6-.5,1-1.1,1.1-1.7l.2.2c-1.5,0-2.8-.1-3.6-.2s-1.4-.1-1.4-.2c0,0,.5,0,1.4-.1.9,0,2.1,0,3.6,0h.2s0,.2,0,.2c0,.8-.5,1.5-1.2,2.1-.7.5-1.5.9-2.4,1-.6.1-1.3.1-1.9,0l.2-.4c.8,1,.8,2.2.8,3.2,0,1-.2,1.9-.6,2.5-.4.7-.8,1.1-1.1,1.3-.3.3-.5.3-.5.3Z"/>
        </g>
        <g>
          <g>
            <path class="cls-5" d="M245.5,179.1c0,0-.3-.5-.2-1.3,0-.4.2-.9.5-1.5.3-.5.8-1.1,1.4-1.6.6-.6,1.2-1.3,1.6-2.1.5-.9.8-1.9.8-3,0-1.1,0-2.3-.5-3.4-.4-1.1-1.1-2.1-1.7-3.2-.6-1-1.2-2.1-1.6-3.1-.4-1.1-.5-2.1-.2-3.1.4-2,1.5-3.6,2-5.2.6-1.5.6-2.9.3-3.8-.1-.4-.3-.8-.4-1-.1-.2-.2-.3-.2-.3,0,0,.3.4.5,1.3.2.8.2,2.2-.4,3.6-.5,1.5-1.7,3.1-2.2,5.2-.2,1.1-.2,2.3.2,3.4.4,1.1,1,2.2,1.6,3.2.6,1,1.3,2.1,1.7,3.1.4,1,.6,2.1.5,3.1,0,1-.3,2-.7,2.8-.4.8-1,1.5-1.5,2.1-.5.6-1,1.2-1.3,1.7-.3.6-.5,1.1-.5,1.6,0,.5,0,.8.2,1,0,.2.2.3.2.3Z"/>
            <path class="cls-5" d="M217.2,171c-.6,1.8-2.4,3-4.2,3.1-1.9.1-3.7-.9-4.8-2.3-1.1-1.5-1.5-3.5-1.3-5.3.1-.8.3-1.7.2-2.5-.2-1.2-1.1-2.1-1.5-3.3-.7-2.1.8-4.4,2.7-5.3,1.9-.9,4.2-.8,6.3-.4"/>
            <path class="cls-5" d="M246.1,145.2c2,1.8,1.4,4.4.6,6.1-.8,1.8-1.8,3.6-1.7,5.5,0,2,1.3,3.7,1.9,5.6.8,2.4.8,5-.2,7.3-.7,1.7-1.8,3.3-2.5,5-.7,1.7-.9,3.9.3,5.4-1-.1-1.9-.8-2.5-1.8-.5-.9-.7-2-.7-3-.1-4,1.5-7.9.8-11.9-.4-2.3-1.6-4.4-1.6-6.7,0-2.3,1.3-4.4,2.1-6.6.9-2.2,1.3-4.8-.1-6.7"/>
            <path class="cls-5" d="M241,137.9c2.4.2,4.8,1.3,6,3.3,1.3,2,1,5-.8,6.4-1.8,1.4-4.4,1.1-6.3,0-1.4-.8-2.7-2.1-3.3-3.6-.6-1.5-.5-3.4.5-4.7.9-1.4,2.8-2.1,4.3-1.6"/>
            <path class="cls-5" d="M242.9,137.6c-1.2-2.8-3.9-4.8-6.8-5.7s-6.1-.7-9,0c-3,.7-5.7,2-8.5,3.2-2,.9-4.1,1.8-5.7,3.4-1.6,1.5-2.6,3.5-3.2,5.6-1.2,3.9-1.1,6.8.8,10.4.8,1.6.3,3.5,1.1,5.1.7,1.6,3.9,3.4,3,5"/>
            <path class="cls-15" d="M236.5,186.9c.1-8,.1-11,.1-11,0,0,6.9-1.2,8.3-10.2.7-4.5.5-11.8,0-17.8-.4-5.4-3.9-12-9.3-11.4l-16.8,4.3c-1.6.2-2.9,1.6-2.8,3.2h0v42.9"/>
            <path class="cls-5" d="M243.2,140c-.4,2.8-4.9,3.3-7.8,2.8-1.9,2.4-5,3.8-8.1,3.5-.4,0-.8-.1-1.2,0-.4.2-.7.6-.9.9-1.2,1.6-3,2.7-4.9,3.1-.4,2.8-2.7,5.3-5.5,5.9,0,0-.9-.5-.6-4.1.3-3.6,0-11.2,0-11.2l9.8-4.5,11.8-2.2s8.1.9,7.4,5.8Z"/>
            <path class="cls-19" d="M210.6,155c0,0,0-1,.6-2.5.3-.8.9-1.6,1.8-2.4.9-.7,2.1-1.3,3.5-1.5h.2s0-.2,0-.2c.4-1.4,1-3,2.3-4.1,1.2-1.1,3.3-1.7,4.9-.8h.3c0,.1.1-.2.1-.2,0-.1,0-.2.1-.3.9-2.6,3.5-4.3,5.8-4.5.6,0,1.2,0,1.7,0,.6,0,1.2.1,1.8,0,.6-.2,1-.6,1.3-1,.3-.4.6-.7,1-1,1.5-1.1,3.1-1,4.1-.8,1,.3,1.5.6,1.5.6,0,0,0-.1-.3-.3-.2-.1-.6-.4-1.1-.5-1-.3-2.7-.4-4.3.7-.8.5-1.3,1.6-2.3,1.9-.9.3-2.1-.2-3.4,0-2.5.2-5.2,2-6.2,4.8,0,.1,0,.2-.1.4l.4-.2c-1.9-.9-4.1-.3-5.5.9-1.4,1.2-2.1,2.9-2.4,4.4l.2-.2c-1.5.2-2.8.8-3.7,1.6-.9.8-1.5,1.7-1.8,2.5-.3.8-.4,1.5-.4,1.9,0,.5,0,.7,0,.7Z"/>
            <path class="cls-19" d="M226.1,145.5s.2.1.7.2c.5.1,1.2.2,2.1.1,1.8-.1,4.4-1,6.1-3.3h-.3c0,.1.2.2.3.2,1.4.6,2.8.6,4,.4,1.2-.3,2.2-.9,2.9-1.5.7-.6,1.1-1.3,1.4-1.7.2-.5.3-.7.3-.8,0,0-.5,1.1-1.9,2.2-.7.6-1.6,1.1-2.8,1.3-1.1.2-2.5.1-3.7-.4,0,0-.2,0-.3-.1h-.2c0,0-.1,0-.1,0-1.6,2.1-4,3.1-5.7,3.3-1.7.2-2.8,0-2.8,0Z"/>
            <path class="cls-19" d="M231.2,140.2c0,.2,1.3,0,2.9.4,1.5.3,2.7,1,2.7.9,0-.1-1-1-2.6-1.4-1.6-.4-3,0-3,.1Z"/>
            <path class="cls-19" d="M234.6,139.9c.1,0,.6-.3,1.2-.7.6-.4,1.1-.7,1-.9,0-.1-.7,0-1.3.5-.6.5-1,1-.8,1.1Z"/>
            <path class="cls-19" d="M220.6,145.1c0,.1,1.2-.2,2.6-.2,1.4,0,2.5.5,2.6.3,0-.1-1-.8-2.6-.8-1.6,0-2.7.6-2.6.7Z"/>
            <path class="cls-19" d="M218.1,149.9c0,.1,1.7.2,3.7-.5,2-.7,3.2-1.8,3.2-1.9,0-.1-1.5.8-3.3,1.4-1.9.7-3.5.8-3.5,1Z"/>
            <path class="cls-19" d="M212,153.3c.1.1.9-.8,2.3-1.3,1.4-.5,2.6-.3,2.6-.5,0-.1-1.3-.6-2.8,0-1.6.5-2.3,1.8-2.2,1.8Z"/>
            <path class="cls-19" d="M212.2,140.4s.1-.3.5-.8c.3-.5.9-1.1,1.8-1.6,1.8-1,4.7-1.7,7.8-1.8,3.2,0,6,.6,8.1,1.1,2,.5,3.3.9,3.3.8,0,0-.3-.2-.8-.4-.6-.2-1.4-.5-2.4-.8-2-.6-4.9-1.3-8.2-1.2-3.3,0-6.2.8-8,2-.9.6-1.5,1.3-1.8,1.8-.3.5-.3.9-.3.9Z"/>
            <path class="cls-19" d="M211.5,145.3c.1,0,.3-1.1,1.4-2.5,1-1.4,3.1-3,5.7-3.8,2.6-.7,5.1-.7,6.9-.5,1.8.1,2.9.3,2.9.2,0,0-1.1-.3-2.9-.6-1.8-.2-4.4-.4-7.1.4-2.7.8-4.8,2.5-5.8,4.1-.5.8-.8,1.5-.9,2-.1.5-.2.8-.1.8Z"/>
            <path class="cls-19" d="M245.1,149.1s.8-.2,1.7-1.2c.8-1,1.6-2.8,1.1-4.9-.6-2-2.2-3.2-3.4-3.7-1.2-.5-2.1-.3-2.1-.2,0,0,.8,0,1.9.6,1.1.5,2.5,1.7,3,3.4.5,1.8-.2,3.5-.9,4.5-.7,1-1.4,1.4-1.4,1.5Z"/>
            <path class="cls-5" d="M208.4,163.2c0,0-.9-.5-2.2-1.4-.7-.5-1.4-1.1-1.9-2-.5-.9-.8-2-.3-3.1.4-1.1,1.3-2,2.2-2.4.9-.4,1.9-.4,2.7-.3,1.6.3,2.4,1,2.4.9,0,0-.2-.2-.5-.5-.4-.3-1-.6-1.8-.8-.8-.2-1.9-.2-2.9.2-1.1.4-2,1.4-2.5,2.6-.5,1.3-.2,2.7.4,3.6.6,1,1.4,1.6,2.1,2,.7.4,1.3.7,1.7.9.4.2.7.2.7.2Z"/>
            <path class="cls-5" d="M208,163.3s-.2.3-.4.8c-.2.5-.5,1.3-.7,2.3-.2,1-.5,2.2-.4,3.6,0,1.3.5,2.9,1.4,4.2,1,1.3,2.4,2,3.8,2.1,1.4.1,2.7-.5,3.3-1.3.7-.8.9-1.7.9-2.2,0-.6-.1-.9-.2-.9,0,0,0,.3,0,.9,0,.5-.3,1.3-1,2-.6.7-1.7,1.3-3,1.1-1.2-.1-2.6-.8-3.5-2-.9-1.2-1.3-2.6-1.4-3.9-.1-1.3,0-2.5.2-3.4.4-1.9.8-3.1.7-3.2Z"/>
          </g>
          <g>
            <path class="cls-5" d="M220.5,150.3c1.2,2.1.5,4.8-.5,7-1,2.2-2.3,4.4-2.3,6.9,0,4.1,3.9,7.5,3.6,11.5-.2,2.4-2,4.6-4.3,5.3,1.8-1.4,1.9-4.2,1-6.4-.9-2.2-4.7-7.7-5.4-10-2.2-7.5-1.5-8.4,1-11.2"/>
            <path class="cls-19" d="M213.5,156.1c0,0,.5.2,1.4,0,.9-.2,2-.7,3-1.7,1-1,1.4-2.2,1.6-3,.1-.9,0-1.4,0-1.4,0,0-.1.5-.3,1.3-.2.8-.7,1.9-1.6,2.8-.9.9-1.9,1.4-2.7,1.7-.8.3-1.3.3-1.3.4Z"/>
            <path class="cls-19" d="M217.9,178.4s.1,0,.3-.2c.2-.1.4-.4.6-.7.4-.7.9-1.8.8-3.3,0-.7-.3-1.5-.7-2.3-.5-.7-1.1-1.4-1.8-2-.7-.6-1.3-1.3-1.8-2.2-.4-.9-.7-1.9-.7-2.9,0-1,.2-2,.7-2.9.4-.9,1-1.7,1.6-2.4,1.1-1.5,2-3,2.5-4.3.5-1.3.6-2.5.6-3.3,0-.8-.1-1.2-.2-1.2-.1,0,.3,1.8-.8,4.4-.5,1.3-1.4,2.7-2.6,4.1-.6.7-1.2,1.5-1.6,2.5-.5.9-.8,2-.7,3.1,0,1.1.3,2.2.8,3.1.5.9,1.2,1.7,1.9,2.3.7.6,1.3,1.2,1.8,1.9.4.7.7,1.4.7,2.1.1,1.4-.3,2.5-.6,3.1-.4.7-.7,1-.7,1Z"/>
            <path class="cls-19" d="M212.6,155.8s-.2.1-.5.5c-.3.4-.7.9-1,1.7-.6,1.6-.8,4,0,6.5.9,2.4,2.4,4.2,3.6,5.4,1.2,1.2,2,1.8,2,1.8,0,0-.7-.8-1.7-2-1.1-1.2-2.5-3-3.4-5.4-.9-2.3-.7-4.7-.2-6.2.5-1.5,1.2-2.3,1.2-2.4Z"/>
          </g>
        </g>
        <g>
          <path class="cls-4" d="M280.7,221.6l-7.5,3.6-9.5,5.1c-3.9-11.5-3.8-23.8-5.2-28.5-4.4-14.6-12.6-15.9-12.6-15.9h0c-.2,0-.5-.2-.8-.3l-6.9-2.2-.2-3.8-23.4.5-.2,4.7-7.4,1.2c-4.6.8-8.7,3.6-10.8,7.8-.1.3-.3.6-.4.9-4.8,11.8-15.4,37.8-16.2,40.6-2.8,9.6,7.4,18.1,16.3,16.1.6-.1,2.6-.9,5.2-2,0,2.4.9,4.7,2.7,6.3.9.8,1.8,1.3,2.6,1.3l42.9.2c1.2,0,2.4-1,3.4-2.1,1.7.9,3.9.9,6.2.4,0,0,0,0,0,0,0,0,0,0,0,0,3.7-.8,7.6-2.8,8.5-3.7l21.7-20.5-8.4-9.9ZM205.5,228.1l-.4,1.9-2.4.2,2.8-9.5v6.8c0,.2,0,.4,0,.6Z"/>
          <path class="cls-5" d="M216.7,229.2c-.3,0-.6,0-1,.1-.8,0-1.8.2-2.9.3-2.6.2-6,.5-9.9.8h-.4s.1-.3.1-.3c.3-.9.6-1.9.9-2.9,1.3-4.5,2.5-8.6,3.4-11.5.5-1.5.8-2.7,1.1-3.5.3-.8.5-1.2.5-1.2,0,0,0,.5-.3,1.3-.3.9-.6,2.1-1,3.5-.8,3-1.9,7.1-3.3,11.6-.3,1-.6,2-.9,2.9l-.3-.3c4-.3,7.4-.5,9.9-.6,2.5-.1,4-.2,4,0Z"/>
          <path class="cls-5" d="M221.5,240s-.4.2-1,.6c-.8.4-1.7.9-2.9,1.5-2.4,1.2-5.7,3-9.4,4.9-3.7,1.9-7.3,3.2-9.9,3.9-1.3.3-2.4.6-3.1.7-.7.1-1.2.2-1.2.2,0,0,1.6-.5,4.2-1.3,2.6-.8,6.1-2.1,9.8-4,3.7-1.9,7-3.6,9.5-4.8,1.2-.6,2.2-1,2.9-1.3.7-.3,1.1-.4,1.1-.4Z"/>
          <path class="cls-5" d="M248.4,226.4c0,0,.8-1.3,1.7-3.6.9-2.3,1.6-5.7,1.1-9.4-.2-1.8-.7-3.6-1.1-5.2-.4-1.6-.7-3-.9-4.3-.2-1.2-.2-2.2-.2-2.9,0-.7,0-1.1.1-1.1,0,0,0,1.5.4,3.9.2,1.2.6,2.6,1,4.2.4,1.6.9,3.3,1.1,5.2.5,3.8-.3,7.3-1.3,9.6-.5,1.1-1,2-1.4,2.6-.4.6-.6.9-.6.9Z"/>
          <path class="cls-5" d="M248.6,227.2c.1,0-.9,1.7-.6,4.7.1,1.5.6,3.2,1.3,5,.8,1.8,1.8,3.7,2.8,5.8,1,2.1,1.7,4.2,1.8,6.2.2,2-.2,3.9-1,5.2-.7,1.4-1.7,2.2-2.4,2.7-.4.2-.7.4-.9.4-.2,0-.3.1-.3,0,0,0,.4-.2,1.1-.7.7-.5,1.5-1.3,2.2-2.7.7-1.3,1-3.1.8-5-.2-1.9-.9-4-1.8-6.1-1-2.1-2-4-2.7-5.9-.8-1.9-1.2-3.6-1.3-5.2,0-1.5.1-2.8.4-3.6.1-.4.3-.7.4-.9.1-.2.2-.3.2-.3Z"/>
          <path class="cls-5" d="M248.7,188.5c.1,0,.5,1.7.4,3.8,0,2.1-.5,3.8-.7,3.7-.1,0,0-1.7.2-3.7,0-2.1,0-3.7.1-3.7Z"/>
          <path class="cls-5" d="M260.5,243.5c0,0-.3-.7-.4-2-.1-1.3-.1-3,.3-4.9.4-1.9,1.1-3.5,1.7-4.6.6-1.1,1.2-1.7,1.2-1.6.1,0-1.7,2.7-2.4,6.4-.8,3.7-.2,6.8-.4,6.8Z"/>
          <path class="cls-5" d="M209.3,195.9c0,0-.1-.6-.5-1.5-.4-.9-1.3-2-2.5-2.9-1.2-.9-2.5-1.5-3.5-1.7-.2,0-.5,0-.7,0-.2,0-.4,0-.5,0-.3,0-.4.1-.4,0,0,0,.1-.1.4-.3.1,0,.3,0,.5-.1.2,0,.5,0,.7,0,1.1,0,2.5.6,3.8,1.6,1.3.9,2.2,2.2,2.6,3.2.4,1,.2,1.7.2,1.7Z"/>
          <g class="cls-7">
            <path d="M208.6,227.2c-.9-4-1.3-8.2-1.2-12.3l-.4.8-1.4,5-.4,9.3,8.3-.4c-1.3-1.2-3.1-2.1-4.9-2.4Z"/>
          </g>
          <path class="cls-5" d="M237.9,184.1s.2.3,0,1c-.1.7-.8,1.5-1.9,1.9-2.2.7-5.3,1.3-8.8,1.3-3.5,0-6.6-.7-8.8-1.3-1.1-.3-1.9-.7-2.5-.9-.6-.3-.9-.4-.9-.5,0,0,1.3.5,3.5,1.1,2.2.6,5.3,1.2,8.7,1.2,3.4,0,6.6-.5,8.7-1.1,1.1-.3,1.7-1,1.9-1.6.2-.6,0-.9.1-.9Z"/>
          <path class="cls-3" d="M197.8,215.7c-.1,0-.8-1.2-1.4-2.8-.6-1.6-1.1-2.9-.9-3,.1,0,.8,1.2,1.4,2.8.6,1.6,1.1,2.9.9,3Z"/>
          <path class="cls-3" d="M193,229.1c0,.1-1.4.7-3.3,1.3-1.9.6-3.4.9-3.5.8,0-.1,1.4-.7,3.3-1.3,1.9-.6,3.4-.9,3.5-.8Z"/>
          <path class="cls-3" d="M191.8,242.8c-.1,0-.2-1.3-.2-3,0-1.6.2-3,.3-3s.2,1.3.2,3c0,1.6-.2,3-.3,3Z"/>
          <path class="cls-3" d="M208.5,238.7c-.1,0-1.1-.8-2.3-1.9-1.2-1.1-2.3-2-2.2-2.1,0-.1,1.3.6,2.5,1.7,1.3,1.1,2.1,2.2,2,2.3Z"/>
          <path class="cls-3" d="M220.2,231.7c.1,0-.5.9-1.4,1.9-.9.9-1.7,1.6-1.8,1.5-.1,0,.5-.9,1.4-1.9.9-.9,1.7-1.6,1.8-1.5Z"/>
          <path class="cls-3" d="M203.8,197.9c0,.1-1,1-2.5,1.9-1.4.9-2.7,1.6-2.7,1.4,0-.1,1-1,2.5-1.9,1.4-.9,2.7-1.6,2.7-1.4Z"/>
          <path class="cls-3" d="M217.1,194.8c-.1,0-.7-1.3-1.4-2.9-.7-1.6-1.3-3-1.1-3,.1,0,.9,1.2,1.6,2.8.7,1.7,1,3.1.9,3.1Z"/>
          <path class="cls-3" d="M218.3,211.5c0,.1-1.5-.5-3.1-1.6-1.6-1.1-2.7-2.2-2.6-2.3,0-.1,1.3.8,2.9,1.8,1.5,1.1,2.8,1.9,2.8,2Z"/>
          <path class="cls-3" d="M227.9,219.6c0,.1-1.6,1.2-3.8,2.3-2.2,1.1-3.9,2-4,1.8,0-.1,1.6-1.2,3.8-2.3,2.2-1.1,3.9-2,4-1.8Z"/>
          <path class="cls-3" d="M232.3,209.8c-.1,0-.5-1.2-.9-2.7-.4-1.5-.5-2.8-.4-2.8.1,0,.5,1.2.9,2.7.4,1.5.5,2.8.4,2.8Z"/>
          <path class="cls-3" d="M244.4,219.1c-.1,0-.9-1.1-1.7-2.7-.8-1.6-1.3-2.9-1.2-2.9s.9,1.1,1.7,2.7c.8,1.6,1.3,2.9,1.2,2.9Z"/>
          <path class="cls-3" d="M242.7,192.6c0,.1-1,1-2.4,2.1-1.4,1-2.7,1.8-2.7,1.6,0-.1,1-1,2.4-2.1,1.4-1,2.7-1.8,2.7-1.6Z"/>
          <path class="cls-3" d="M231.4,193.4c-.1,0-.6-.6-1-1.6-.4-.9-.7-1.7-.6-1.8.1,0,.6.6,1,1.6.4.9.7,1.7.6,1.8Z"/>
          <path class="cls-3" d="M224.6,183.4c0,.1-.8.3-1.8.3-1,0-1.8,0-1.8-.2,0-.1.8-.3,1.8-.3,1,0,1.8,0,1.8.2Z"/>
          <path class="cls-3" d="M232.5,183.5c-.1,0,.2-.7.8-1.4.5-.7,1.1-1.2,1.2-1.1.1,0-.2.7-.8,1.4-.5.7-1.1,1.2-1.2,1.1Z"/>
          <path class="cls-3" d="M254.3,204c-.1,0-.4-1.4-.6-3.1-.2-1.7-.2-3.2,0-3.2.1,0,.4,1.4.6,3.1.2,1.7.2,3.2,0,3.2Z"/>
          <path class="cls-3" d="M256.9,216.4c0,.1-1.1-.7-2-1.9-1-1.2-1.5-2.3-1.4-2.4.1,0,.9.9,1.8,2.1.9,1.2,1.7,2.1,1.6,2.2Z"/>
          <path class="cls-3" d="M253.3,229.2c-.1,0,.4-1.3,1.2-2.8.8-1.5,1.6-2.6,1.7-2.5.1,0-.4,1.3-1.2,2.8-.8,1.5-1.6,2.6-1.7,2.5Z"/>
          <path class="cls-3" d="M257.6,247.7c-.1,0-.8-1.4-1.5-3.3-.7-1.9-1.1-3.4-1-3.5.1,0,.8,1.4,1.5,3.3.7,1.9,1.1,3.4,1,3.5Z"/>
          <path class="cls-3" d="M270.6,241c0,.1-1.2-.3-2.5-.9-1.3-.6-2.4-1.2-2.3-1.4,0-.1,1.2.3,2.5.9,1.3.6,2.4,1.2,2.3,1.4Z"/>
          <path class="cls-3" d="M277.9,234.1c-.1,0-.2-1.4.1-3.2.3-1.7,1-3,1.1-3,.1,0-.3,1.4-.6,3.1-.3,1.7-.5,3.1-.7,3.1Z"/>
          <path class="cls-3" d="M235,229.6c-.1,0,.3-1.3,1.1-2.9.7-1.5,1.4-2.7,1.5-2.6.1,0-.3,1.3-1.1,2.9-.7,1.5-1.4,2.7-1.5,2.6Z"/>
          <path class="cls-3" d="M214.3,253.3c-.1,0-1-.9-1.9-2.2-.9-1.3-1.6-2.4-1.5-2.5.1,0,1,.9,1.9,2.2.9,1.3,1.6,2.4,1.5,2.5Z"/>
          <path class="cls-3" d="M224.1,250.7c-.1,0,.3-1.5,1-3.2.7-1.7,1.3-3,1.5-3,.1,0-.3,1.5-1,3.2-.7,1.7-1.3,3-1.5,3Z"/>
          <path class="cls-3" d="M239.9,253.4c0,.1-1.5-.2-3.2-1.2-1.6-.9-2.7-2-2.6-2.1,0-.1,1.3.7,2.9,1.6,1.6.9,3,1.5,2.9,1.6Z"/>
          <path class="cls-3" d="M246.4,243.2c-.1,0-.8-1.3-1.2-3.2-.4-1.9-.4-3.4-.3-3.4.1,0,.4,1.5.8,3.3.4,1.8.8,3.3.7,3.3Z"/>
          <g class="cls-7">
            <path d="M201.3,251.3c2.2,1.2,5,1.3,7.5.7,2.5-.6,4.7-1.9,6.9-3.2,1.3-.8,2.5-1.6,4-1.9,1.6-.3,3.2,0,4.8.3,3.7.8,7.7,1.4,11.4.4,3.7-.9,7.2-3.8,7.6-7.6.2-1.5-.3-3.4-1.8-3.9-.6-.2-2.4-.9-3-.8-15.9,1.3-37.5,14.2-37.5,14.6"/>
          </g>
        </g>
        <g>
          <g>
            <polygon class="cls-15" points="273.2 431.6 277.2 462.9 263 463.8 255.8 433.8 273.2 431.6"/>
            <g>
              <path class="cls-4" d="M261.7,457.8s10.8,5.7,14.8-1.1l1.7,2.8,8.5,20.2c.5,1.3.1,2.9-1.1,3.6-1,.5-2.1.5-3-.2-4.6-3.3-21.4-15.6-21.5-17.6l-.6-5.2c-.1-1.1.4-2.1,1.3-2.6h0Z"/>
              <path class="cls-2" d="M285.1,483.5l-24.3-19.7.2,1.1c0,1.2.7,1.6,1.3,2.3,2,2.1,7.5,6.6,20.2,15.9.7.5,1.7.7,2.6.4h0Z"/>
              <g class="cls-1">
                <path class="cls-8" d="M263.4,460c.7.4,1.1,1.3.8,2.1-.3.7-1.3,1.1-2.1.8-.7-.4-1.2-1.5-.8-2.2.4-.7,1.6-1.1,2.2-.6"/>
              </g>
              <path class="cls-5" d="M277.4,472.7c.2,0,.6-1.4,2-2.4,1.4-1,3-.8,3-1,0,0-.4-.2-1-.2-.6,0-1.5.2-2.3.8-.8.5-1.3,1.3-1.6,1.9-.2.6-.2,1-.2,1Z"/>
              <path class="cls-5" d="M279.8,476c.1,0,.9-.9,2.2-1.5,1.3-.6,2.5-.5,2.5-.7,0-.1-1.3-.5-2.8.2-1.5.7-2.1,2-1.9,2Z"/>
              <path class="cls-5" d="M273.2,468.7c.1.1,1.3-1.4,3.2-2.5,2-1.1,3.8-1.3,3.8-1.5,0-.1-2-.2-4.1,1-2.1,1.2-3.1,3-2.9,3Z"/>
              <path class="cls-5" d="M271.9,462.4c0,.1,1.5-.7,3.4-1,1.9-.4,3.5,0,3.5-.3,0-.1-1.6-.7-3.6-.3-2,.4-3.4,1.5-3.3,1.6Z"/>
              <path class="cls-5" d="M276.3,461.2s0-.4-.3-1c-.3-.6-.7-1.4-1.6-2.3-.4-.4-.9-.9-1.7-1-.4,0-.9.2-1.1.6-.2.4-.1.9,0,1.3.6,1.6,2.5,2.7,4.4,2.3,1.9-.4,3.2-2,3.5-3.6,0-.4,0-.9-.3-1.3-.3-.4-.9-.4-1.3-.2-.7.4-1,1-1.4,1.4-.6,1-.9,1.9-1.1,2.6-.1.6-.1,1,0,1,.1,0,.2-1.5,1.5-3.3.3-.4.7-1,1.2-1.2.3-.1.5,0,.7,0,.2.2.2.5.2.8-.2,1.3-1.4,2.8-3,3.1-1.6.3-3.3-.6-3.7-1.9-.1-.3-.1-.7,0-.9.1-.2.3-.4.6-.4.6,0,1.1.5,1.5.8,1.7,1.5,2.1,3,2.2,2.9Z"/>
            </g>
          </g>
          <g>
            <polygon class="cls-15" points="229.6 430.3 230 462.3 212.7 461.7 210.2 430.6 229.6 430.3"/>
            <g>
              <g>
                <path class="cls-4" d="M212.4,457.8h0s-19.2,7.2-19.4,10.7h37.2c0,0,0-9.8,0-9.8l-1.4.3c-5.5,1.3-11.2.8-16.4-1.2Z"/>
                <g class="cls-1">
                  <path class="cls-8" d="M225.9,460.6c.7.2,1.2,1,1.1,1.7-.2.7-1,1.2-1.7,1.1s-1.4-1.1-1.1-1.8c.2-.7,1.2-1.3,1.9-.9"/>
                </g>
                <g class="cls-1">
                  <path class="cls-8" d="M230.2,468.4v-3s-35.7,1.2-35.7,1.2c0,0-1.7.7-1.5,1.9h37.2Z"/>
                </g>
                <path class="cls-5" d="M211.8,457.6c0,.2.9.3,1.8.8.9.6,1.4,1.3,1.5,1.3.2,0-.1-1.1-1.2-1.8-1.1-.7-2.2-.5-2.1-.3Z"/>
                <path class="cls-5" d="M207.9,459.2c0,.2.7.5,1.4,1.2.6.7.8,1.6,1,1.6.2,0,.3-1-.5-2-.8-.9-1.8-1-1.8-.8Z"/>
                <path class="cls-5" d="M205.7,463.9c.2,0,.4-.9,0-1.9-.5-1-1.3-1.4-1.4-1.2-.1.1.4.7.8,1.5.4.8.4,1.6.6,1.6Z"/>
              </g>
              <path class="cls-5" d="M212.2,457.5c0,0,.7.2,1.9,0,.6,0,1.2-.3,1.9-.6.4-.2.7-.3,1.1-.6.2-.1.4-.2.6-.4.2-.2.3-.7,0-1-.2-.3-.5-.4-.8-.4-.3,0-.5,0-.7,0-.4.1-.8.2-1.2.4-.7.3-1.3.7-1.7,1.1-.9.8-1.2,1.5-1.1,1.5,0,0,.5-.5,1.4-1.2.4-.3,1-.7,1.7-.9.3-.1.7-.2,1.1-.3.4-.1.7-.1.8,0,0,0,0,0,0,.2,0,.1-.2.2-.4.3-.3.2-.7.4-1,.6-.6.3-1.3.5-1.8.7-1.1.3-1.8.3-1.8.4Z"/>
              <path class="cls-5" d="M212.5,457.8c0,0,.4-.6.5-1.8,0-.6,0-1.3-.3-2-.1-.4-.3-.8-.5-1.1-.2-.4-.5-.9-1.2-.9-.4,0-.7.3-.8.5-.1.3-.1.5-.2.7,0,.4,0,.9,0,1.3.1.8.4,1.4.8,1.9.7,1,1.5,1.2,1.5,1.1,0,0-.6-.4-1.1-1.4-.3-.5-.5-1.1-.6-1.7,0-.3,0-.7,0-1.1,0-.4.2-.7.4-.7.2,0,.5.3.7.6.2.3.3.7.5,1,.2.7.3,1.3.4,1.9,0,1.1-.1,1.8,0,1.8Z"/>
            </g>
          </g>
          <g>
            <path class="cls-5" d="M263.4,293.6c-.8-17.3-14.1-36.3-14.1-36.3l-20.5-1.7h0c0,0-.4,0-.4,0h0l-23.6,1.9s-10.4,22.6-7.7,49.6,11.8,126.1,11.8,126.1h21.6l.5-143.5,21.9,148.4h21.6s-10.4-127.1-11.1-144.5Z"/>
            <polygon class="cls-19" points="206.3 430.8 209.3 445.4 231.3 445.3 232.7 431.9 206.3 430.8"/>
            <polygon class="cls-19" points="251.4 435.4 256.2 451.9 276.7 449.1 275.7 430.5 251.4 435.4"/>
            <path class="cls-19" d="M231.9,289.6s-.1,0-.3,0c-.2,0-.5-.1-.9-.4-.7-.5-1.3-1.5-1.6-2.9-.5-2.8-1-6.6-1.4-10.9-.4-4.3-.8-8.1-1-10.9-.1-1.4-.2-2.5-.2-3.3,0-.8,0-1.2,0-1.2,0,0,.1.4.2,1.2,0,.9.2,2,.4,3.3.3,2.9.7,6.7,1.1,10.9.5,4.3.9,8.1,1.3,10.9.3,1.4.8,2.4,1.4,2.9.6.5,1.1.5,1.1.5Z"/>
            <path class="cls-19" d="M230.1,258.8s.2-.1.5-.2c.3,0,.9,0,1.5.3.6.3,1.1,1,1.3,1.8,0,.4,0,.9-.2,1.4-.2.4-.7.8-1.2.9-.9.4-2.1.2-2.7-.6-.6-.7-.6-1.6-.5-2.2.2-.6.5-1.1.8-1.3.3-.2.5-.3.5-.3,0,0-.7.5-.9,1.6,0,.5,0,1.3.5,1.8.5.5,1.4.7,2.1.4.8-.3,1.2-1.1,1.1-1.8-.1-.7-.6-1.3-1-1.6-1-.6-1.8-.3-1.8-.4Z"/>
          </g>
        </g>
        <g>
          <g>
            <path class="cls-5" d="M219,228.4l-2.1-10.2c-.2-.8.5-1.6,1.3-1.6h26.3c.8.1,1.4.8,1.3,1.6l-2.7,23.3c-.1.9-.9,1.6-1.8,1.6h-17.2c-.8-.1-1.5-.7-1.7-1.5l-3.4-13.2Z"/>
            <path class="cls-15" d="M216.7,223.1h0c1.1,0,2.2.7,2.6,1.8.4,1.1,1.1,2.4,1.8,2.8,1.3.7,3.5,1.3,4.7.7,1.2-.6,5.9-4.8,6.7-4.3.8.5,1.5,1.5.7,2.5-.8.9-5.2,3.8-4.3,4.7.8.9,10-3.2,11.4-2.8,1.4.4,2.2,1.2,1.4,1.8-.8.6-7,2.9-7.4,3.7,0,0,9.4-2.5,9.8-1.9.4.6.9,1.5,0,1.9-.9.4-9,2.5-9.8,2.8-.7.4-3.1,1.1-3.6,1.1s-2.1.6-3.8,1.2c-1.9.7-4,.6-5.8-.2l-1-.4c-1.5-.6-2.4-2.1-2.3-3.7l.2-3.2-1-2.6v-5.8Z"/>
          </g>
          <path class="cls-3" d="M232.4,220.6c0,.5-.4,1-1,1s-1-.4-1-1,.4-1,1-1,1,.4,1,1Z"/>
        </g>
      </g>
    </g>
    <g id="Data">
      <g>
        <g>
          <g>
            <path class="cls-4" d="M25.7,333.6s.1-.1.4-.3c.3-.2.7-.5,1.2-.9,1.1-.8,2.7-2,4.7-3.5,4.2-3,10.2-7.4,17.8-13,15.3-11.1,36.8-26.7,61.8-44.9v.3c-5.1-13.9-8.2-30-8.2-46.8,0-5.3.3-10.6.8-15.7.6-5.1,1.4-10.2,2.6-15.1,2.2-9.8,5.4-19,9.3-27.4,7.8-16.7,18.2-30.1,28.1-39.8,10-9.8,19.3-16.3,26-20.3,1.7-1,3.2-1.8,4.5-2.6,1.3-.7,2.5-1.3,3.4-1.7.9-.5,1.6-.8,2.1-1.1.5-.2.7-.3.7-.3,0,0-.2.1-.7.4-.5.3-1.2.6-2.1,1.1-.9.5-2,1-3.3,1.8-1.3.8-2.8,1.6-4.5,2.6-6.6,4-15.9,10.5-25.8,20.3-9.8,9.8-20.2,23.1-27.9,39.8-3.9,8.3-7,17.5-9.2,27.3-1.2,4.9-1.9,9.9-2.5,15-.5,5.1-.9,10.4-.8,15.7,0,16.7,3.1,32.7,8.1,46.6v.2c0,0,0,.1,0,.1-25.1,18.1-46.6,33.7-61.9,44.7-7.6,5.5-13.7,9.9-17.9,12.9-2.1,1.5-3.7,2.6-4.8,3.4-.5.4-1,.7-1.2.9-.3.2-.4.3-.4.3Z"/>
            <path class="cls-4" d="M140.6,72.6s-.2.1-.6.3c-.4.2-1,.5-1.7.8-.7.4-1.7.8-2.7,1.3-1.1.5-2.3,1.2-3.7,2-5.5,3-13.1,7.9-21.6,15.2-4.2,3.7-8.6,7.9-12.9,12.9-4.3,5-8.6,10.5-12.6,16.7-8.1,12.3-14.9,27.3-19.6,43.6-4.7,16.4-6.9,32.6-7.6,47.3-.7,14.8-.2,28.1.9,39.2,1.2,11.1,3.2,20,5.1,25.9.9,3,1.8,5.3,2.4,6.8.3.8.5,1.3.7,1.7.2.4.2.6.2.6,0,0,0-.2-.3-.6-.2-.4-.4-1-.7-1.7-.6-1.5-1.5-3.8-2.5-6.8-2-5.9-4.1-14.8-5.3-25.9-1.2-11.1-1.8-24.5-1.1-39.3.7-14.8,2.9-31,7.6-47.4,4.7-16.4,11.5-31.4,19.7-43.8,4-6.2,8.3-11.8,12.7-16.7,4.3-5,8.8-9.2,13-12.9,8.5-7.3,16.2-12.1,21.7-15.1,1.4-.7,2.6-1.4,3.7-1.9,1.1-.5,2-.9,2.8-1.3.7-.3,1.3-.6,1.7-.8.4-.2.6-.2.6-.2Z"/>
            <path class="cls-4" d="M173.1,31s0,0,.1.2c0,.1.2.3.3.5.3.5.7,1.2,1.3,2,1.1,1.8,2.8,4.4,4.8,7.7,4.1,6.6,10,15.9,16.9,26.9h-.3c8.6-2.5,18.4-4.4,28.7-5.5,10.1-1.1,19.8-1.2,28.5-.7,8.8.5,16.6,1.5,23.2,2.8.8.1,1.6.3,2.4.4.8.2,1.5.3,2.3.5,1.5.3,2.8.6,4.1.9,2.6.7,4.8,1.2,6.5,1.7,1.8.5,3.1.9,4.1,1.2.4.1.8.3,1.1.3.2,0,.4.1.4.1,0,0-.1,0-.4,0-.3,0-.6-.2-1.1-.3-1-.3-2.4-.7-4.1-1.1-1.8-.5-4-1-6.6-1.6-1.3-.3-2.7-.6-4.1-.9-.7-.2-1.5-.3-2.3-.5-.8-.1-1.6-.3-2.4-.4-6.5-1.2-14.4-2.2-23.1-2.7-8.7-.4-18.4-.3-28.5.8-10.3,1.1-20.1,3-28.7,5.3h-.2s0-.1,0-.1c-6.8-11-12.6-20.4-16.7-27-2-3.3-3.6-5.9-4.7-7.7-.5-.9-.9-1.6-1.2-2.1-.1-.2-.2-.4-.3-.5,0-.1,0-.2,0-.2Z"/>
            <path class="cls-4" d="M426.9,164.9s0,0-.1-.3c0-.2-.2-.5-.3-.8-.2-.8-.6-1.9-1-3.3-.4-1.4-.9-3.2-1.6-5.1-.3-1-.7-2.1-1.1-3.2-.2-.6-.4-1.1-.6-1.7-.2-.6-.5-1.2-.7-1.8-1-2.5-2-5.2-3.3-8-.6-1.4-1.2-2.9-2-4.4-.7-1.5-1.5-3-2.3-4.6-3.2-6.2-7.2-12.7-11.9-19.3-4.8-6.5-9.8-12.3-14.6-17.3-1.2-1.2-2.4-2.4-3.6-3.6-1.2-1.2-2.4-2.2-3.5-3.3-2.2-2.1-4.5-4-6.5-5.7-.5-.4-1-.8-1.5-1.3-.5-.4-1-.8-1.4-1.1-.9-.7-1.8-1.4-2.6-2.1-1.6-1.3-3.1-2.4-4.3-3.3-1.2-.9-2.1-1.6-2.7-2.1-.3-.2-.5-.4-.7-.5-.2-.1-.2-.2-.2-.2s0,0,.3.2c.2.1.4.3.7.5.7.5,1.6,1.1,2.8,2,1.2.9,2.7,1.9,4.3,3.2.8.6,1.7,1.3,2.7,2.1.5.4,1,.7,1.4,1.1.5.4,1,.8,1.5,1.2,2,1.7,4.3,3.5,6.5,5.7,1.1,1.1,2.3,2.1,3.5,3.3,1.2,1.2,2.4,2.4,3.6,3.6,4.9,5,9.9,10.8,14.7,17.3,4.7,6.5,8.7,13.2,11.9,19.3.8,1.6,1.5,3.1,2.3,4.6.7,1.5,1.3,3,2,4.4,1.3,2.8,2.3,5.6,3.2,8,.2.6.5,1.2.7,1.8.2.6.4,1.2.6,1.7.4,1.1.7,2.2,1,3.2.7,2,1.1,3.7,1.5,5.2.4,1.4.7,2.5.9,3.3,0,.4.2.6.2.9,0,.2,0,.3,0,.3Z"/>
            <path class="cls-4" d="M389.4,442.5s0,0-.2-.3c-.1-.2-.2-.5-.4-.8-.4-.8-.9-1.9-1.6-3.3-1.4-2.9-3.4-7.1-5.9-12.4-5-10.6-12.1-25.5-20.4-42.9v-.2c0,0,0-.1,0-.1,7.2-5.4,14.6-11.9,21.7-19.2,1.2-1.1,2.3-2.3,3.4-3.5,1.1-1.2,2.2-2.4,3.3-3.6,1-1.2,2.1-2.4,3.1-3.6,1-1.2,2-2.4,3-3.6,1.9-2.4,3.8-4.8,5.5-7.2.9-1.2,1.7-2.4,2.6-3.6.8-1.2,1.6-2.4,2.4-3.6,6.3-9.5,11.1-18.6,14.7-26.4,1.8-3.9,3.3-7.5,4.6-10.7,1.2-3.2,2.2-6,3-8.2.7-2.3,1.3-4,1.7-5.3.2-.6.3-1,.5-1.4.1-.3.2-.5.2-.5,0,0,0,.2-.1.5,0,.3-.2.8-.4,1.4-.4,1.2-.9,3-1.6,5.3-.8,2.3-1.7,5.1-2.9,8.3-1.3,3.2-2.7,6.8-4.5,10.7-3.6,7.8-8.3,17-14.6,26.5-.8,1.2-1.6,2.4-2.4,3.6-.9,1.2-1.7,2.4-2.6,3.6-1.7,2.5-3.6,4.8-5.5,7.3-.9,1.2-2,2.4-3,3.6-1,1.2-2,2.4-3.1,3.6-1.1,1.2-2.2,2.4-3.3,3.6-1.1,1.2-2.2,2.4-3.4,3.6-7.1,7.3-14.6,13.8-21.8,19.2v-.3c8.3,17.4,15.3,32.3,20.3,43,2.5,5.3,4.4,9.5,5.8,12.4.7,1.4,1.2,2.6,1.5,3.3.2.4.3.6.4.9,0,.2.1.3.1.3Z"/>
          </g>
          <g class="cls-16">
            <path class="cls-8" d="M25.7,333.6s.1-.1.4-.3c.3-.2.7-.5,1.2-.9,1.1-.8,2.7-2,4.7-3.5,4.2-3,10.2-7.4,17.8-13,15.3-11.1,36.8-26.7,61.8-44.9v.3c-5.1-13.9-8.2-30-8.2-46.8,0-5.3.3-10.6.8-15.7.6-5.1,1.4-10.2,2.6-15.1,2.2-9.8,5.4-19,9.3-27.4,7.8-16.7,18.2-30.1,28.1-39.8,10-9.8,19.3-16.3,26-20.3,1.7-1,3.2-1.8,4.5-2.6,1.3-.7,2.5-1.3,3.4-1.7.9-.5,1.6-.8,2.1-1.1.5-.2.7-.3.7-.3,0,0-.2.1-.7.4-.5.3-1.2.6-2.1,1.1-.9.5-2,1-3.3,1.8-1.3.8-2.8,1.6-4.5,2.6-6.6,4-15.9,10.5-25.8,20.3-9.8,9.8-20.2,23.1-27.9,39.8-3.9,8.3-7,17.5-9.2,27.3-1.2,4.9-1.9,9.9-2.5,15-.5,5.1-.9,10.4-.8,15.7,0,16.7,3.1,32.7,8.1,46.6v.2c0,0,0,.1,0,.1-25.1,18.1-46.6,33.7-61.9,44.7-7.6,5.5-13.7,9.9-17.9,12.9-2.1,1.5-3.7,2.6-4.8,3.4-.5.4-1,.7-1.2.9-.3.2-.4.3-.4.3Z"/>
            <path class="cls-8" d="M140.6,72.6s-.2.1-.6.3c-.4.2-1,.5-1.7.8-.7.4-1.7.8-2.7,1.3-1.1.5-2.3,1.2-3.7,2-5.5,3-13.1,7.9-21.6,15.2-4.2,3.7-8.6,7.9-12.9,12.9-4.3,5-8.6,10.5-12.6,16.7-8.1,12.3-14.9,27.3-19.6,43.6-4.7,16.4-6.9,32.6-7.6,47.3-.7,14.8-.2,28.1.9,39.2,1.2,11.1,3.2,20,5.1,25.9.9,3,1.8,5.3,2.4,6.8.3.8.5,1.3.7,1.7.2.4.2.6.2.6,0,0,0-.2-.3-.6-.2-.4-.4-1-.7-1.7-.6-1.5-1.5-3.8-2.5-6.8-2-5.9-4.1-14.8-5.3-25.9-1.2-11.1-1.8-24.5-1.1-39.3.7-14.8,2.9-31,7.6-47.4,4.7-16.4,11.5-31.4,19.7-43.8,4-6.2,8.3-11.8,12.7-16.7,4.3-5,8.8-9.2,13-12.9,8.5-7.3,16.2-12.1,21.7-15.1,1.4-.7,2.6-1.4,3.7-1.9,1.1-.5,2-.9,2.8-1.3.7-.3,1.3-.6,1.7-.8.4-.2.6-.2.6-.2Z"/>
            <path class="cls-8" d="M173.1,31s0,0,.1.2c0,.1.2.3.3.5.3.5.7,1.2,1.3,2,1.1,1.8,2.8,4.4,4.8,7.7,4.1,6.6,10,15.9,16.9,26.9h-.3c8.6-2.5,18.4-4.4,28.7-5.5,10.1-1.1,19.8-1.2,28.5-.7,8.8.5,16.6,1.5,23.2,2.8.8.1,1.6.3,2.4.4.8.2,1.5.3,2.3.5,1.5.3,2.8.6,4.1.9,2.6.7,4.8,1.2,6.5,1.7,1.8.5,3.1.9,4.1,1.2.4.1.8.3,1.1.3.2,0,.4.1.4.1,0,0-.1,0-.4,0-.3,0-.6-.2-1.1-.3-1-.3-2.4-.7-4.1-1.1-1.8-.5-4-1-6.6-1.6-1.3-.3-2.7-.6-4.1-.9-.7-.2-1.5-.3-2.3-.5-.8-.1-1.6-.3-2.4-.4-6.5-1.2-14.4-2.2-23.1-2.7-8.7-.4-18.4-.3-28.5.8-10.3,1.1-20.1,3-28.7,5.3h-.2s0-.1,0-.1c-6.8-11-12.6-20.4-16.7-27-2-3.3-3.6-5.9-4.7-7.7-.5-.9-.9-1.6-1.2-2.1-.1-.2-.2-.4-.3-.5,0-.1,0-.2,0-.2Z"/>
            <path class="cls-8" d="M426.9,164.9s0,0-.1-.3c0-.2-.2-.5-.3-.8-.2-.8-.6-1.9-1-3.3-.4-1.4-.9-3.2-1.6-5.1-.3-1-.7-2.1-1.1-3.2-.2-.6-.4-1.1-.6-1.7-.2-.6-.5-1.2-.7-1.8-1-2.5-2-5.2-3.3-8-.6-1.4-1.2-2.9-2-4.4-.7-1.5-1.5-3-2.3-4.6-3.2-6.2-7.2-12.7-11.9-19.3-4.8-6.5-9.8-12.3-14.6-17.3-1.2-1.2-2.4-2.4-3.6-3.6-1.2-1.2-2.4-2.2-3.5-3.3-2.2-2.1-4.5-4-6.5-5.7-.5-.4-1-.8-1.5-1.3-.5-.4-1-.8-1.4-1.1-.9-.7-1.8-1.4-2.6-2.1-1.6-1.3-3.1-2.4-4.3-3.3-1.2-.9-2.1-1.6-2.7-2.1-.3-.2-.5-.4-.7-.5-.2-.1-.2-.2-.2-.2s0,0,.3.2c.2.1.4.3.7.5.7.5,1.6,1.1,2.8,2,1.2.9,2.7,1.9,4.3,3.2.8.6,1.7,1.3,2.7,2.1.5.4,1,.7,1.4,1.1.5.4,1,.8,1.5,1.2,2,1.7,4.3,3.5,6.5,5.7,1.1,1.1,2.3,2.1,3.5,3.3,1.2,1.2,2.4,2.4,3.6,3.6,4.9,5,9.9,10.8,14.7,17.3,4.7,6.5,8.7,13.2,11.9,19.3.8,1.6,1.5,3.1,2.3,4.6.7,1.5,1.3,3,2,4.4,1.3,2.8,2.3,5.6,3.2,8,.2.6.5,1.2.7,1.8.2.6.4,1.2.6,1.7.4,1.1.7,2.2,1,3.2.7,2,1.1,3.7,1.5,5.2.4,1.4.7,2.5.9,3.3,0,.4.2.6.2.9,0,.2,0,.3,0,.3Z"/>
            <path class="cls-8" d="M410.5,441.3s0,0-.2-.2c-.2-.2-.4-.4-.6-.7-.6-.6-1.4-1.6-2.4-2.8-2.1-2.4-5.1-6-9-10.4-7.6-8.9-18.4-21.5-30.9-36.1v-.2c-.1,0,0-.2,0-.2,5.5-7.1,11-15.3,16-24.2.8-1.4,1.6-2.9,2.3-4.3.7-1.4,1.5-2.9,2.2-4.3.7-1.4,1.4-2.9,2-4.3.7-1.4,1.4-2.8,1.9-4.3,1.2-2.9,2.4-5.6,3.4-8.4.5-1.4,1-2.8,1.6-4.1.5-1.4.9-2.7,1.4-4.1,3.6-10.8,5.8-20.8,7.3-29.3.8-4.2,1.2-8.1,1.6-11.5.3-3.4.6-6.3.7-8.7.1-2.4.2-4.2.3-5.5,0-.6,0-1.1,0-1.4,0-.3,0-.5,0-.5,0,0,0,.2,0,.5,0,.3,0,.8,0,1.4,0,1.3,0,3.2-.2,5.5-.2,2.4-.4,5.3-.7,8.8-.4,3.4-.8,7.3-1.5,11.5-1.4,8.5-3.6,18.6-7.2,29.4-.5,1.4-.9,2.7-1.4,4.1-.5,1.4-1,2.8-1.6,4.1-1,2.8-2.2,5.6-3.4,8.5-.6,1.4-1.3,2.8-1.9,4.3-.7,1.4-1.3,2.9-2,4.3-.7,1.4-1.5,2.9-2.2,4.3-.7,1.4-1.5,2.9-2.3,4.3-5,8.9-10.5,17.1-16,24.2v-.3c12.4,14.6,23.1,27.2,30.7,36.2,3.8,4.5,6.8,8,8.8,10.5,1,1.2,1.8,2.2,2.3,2.8.3.3.4.6.6.7.1.2.2.3.2.3Z"/>
          </g>
        </g>
        <g>
          <path class="cls-4" d="M302.4,70.1c0,2.4-1.9,4.3-4.3,4.3s-4.3-1.9-4.3-4.3,1.9-4.3,4.3-4.3,4.3,1.9,4.3,4.3Z"/>
          <path class="cls-4" d="M430.8,165.1c0,2.4-1.9,4.3-4.3,4.3s-4.3-1.9-4.3-4.3,1.9-4.3,4.3-4.3,4.3,1.9,4.3,4.3Z"/>
          <path class="cls-4" d="M208.9,365.7c0,2.4-1.9,4.3-4.3,4.3s-4.3-1.9-4.3-4.3,1.9-4.3,4.3-4.3,4.3,1.9,4.3,4.3Z"/>
          <circle class="cls-4" cx="149.8" cy="362.6" r="4.3"/>
          <circle class="cls-4" cx="385.1" cy="272.3" r="4.3"/>
          <path class="cls-4" d="M67.5,167.3c0,2.4-1.9,4.3-4.3,4.3s-4.3-1.9-4.3-4.3,1.9-4.3,4.3-4.3,4.3,1.9,4.3,4.3Z"/>
          <circle class="cls-4" cx="391.4" cy="199.9" r="4.3"/>
          <path class="cls-4" d="M114.1,183.5c0,2.4-1.9,4.3-4.3,4.3s-4.3-1.9-4.3-4.3,1.9-4.3,4.3-4.3,4.3,1.9,4.3,4.3Z"/>
          <circle class="cls-4" cx="113.1" cy="126.7" r="4.3"/>
          <path class="cls-4" d="M69.2,289.2c0,1.2-1,2.1-2.1,2.1s-2.1-1-2.1-2.1,1-2.1,2.1-2.1,2.1,1,2.1,2.1Z"/>
          <path class="cls-4" d="M105.5,227c0,1.2-1,2.1-2.1,2.1s-2.1-1-2.1-2.1,1-2.1,2.1-2.1,2.1,1,2.1,2.1Z"/>
          <path class="cls-4" d="M147.1,302.2c0,1.2-1,2.1-2.1,2.1s-2.1-1-2.1-2.1,1-2.1,2.1-2.1,2.1,1,2.1,2.1Z"/>
          <path class="cls-4" d="M125.2,226c0,1.2-1,2.1-2.1,2.1s-2.1-1-2.1-2.1,1-2.1,2.1-2.1,2.1,1,2.1,2.1Z"/>
          <path class="cls-4" d="M155.9,177.7c0,1.2-1,2.1-2.1,2.1s-2.1-1-2.1-2.1,1-2.1,2.1-2.1,2.1,1,2.1,2.1Z"/>
          <circle class="cls-4" cx="79.6" cy="227" r="2.1"/>
          <path class="cls-4" d="M367.8,311.6c0,1.2-1,2.1-2.1,2.1s-2.1-1-2.1-2.1,1-2.1,2.1-2.1,2.1,1,2.1,2.1Z"/>
          <path class="cls-4" d="M352.9,300.4c0,1.2-1,2.1-2.1,2.1s-2.1-1-2.1-2.1,1-2.1,2.1-2.1,2.1,1,2.1,2.1Z"/>
          <path class="cls-4" d="M383.9,321.8c0,1.2-1,2.1-2.1,2.1s-2.1-1-2.1-2.1,1-2.1,2.1-2.1,2.1,1,2.1,2.1Z"/>
          <path class="cls-4" d="M299.4,323.8c0,1.2-1,2.1-2.1,2.1s-2.1-1-2.1-2.1,1-2.1,2.1-2.1,2.1,1,2.1,2.1Z"/>
          <path class="cls-4" d="M313,356.8c0,1.2-1,2.1-2.1,2.1s-2.1-1-2.1-2.1,1-2.1,2.1-2.1,2.1,1,2.1,2.1Z"/>
          <path class="cls-4" d="M289.2,346.8c0,1.2-1,2.1-2.1,2.1s-2.1-1-2.1-2.1,1-2.1,2.1-2.1,2.1,1,2.1,2.1Z"/>
          <path class="cls-4" d="M150.3,153.7c0,1.2-1,2.1-2.1,2.1s-2.1-1-2.1-2.1,1-2.1,2.1-2.1,2.1,1,2.1,2.1Z"/>
          <path class="cls-4" d="M201,128.7c0,1.2-1,2.1-2.1,2.1s-2.1-1-2.1-2.1,1-2.1,2.1-2.1,2.1,1,2.1,2.1Z"/>
          <path class="cls-4" d="M263.8,122.8c0,1.2-1,2.1-2.1,2.1s-2.1-1-2.1-2.1,1-2.1,2.1-2.1,2.1,1,2.1,2.1Z"/>
          <path class="cls-4" d="M362.6,71.3c0,1.2-1,2.1-2.1,2.1s-2.1-1-2.1-2.1,1-2.1,2.1-2.1,2.1,1,2.1,2.1Z"/>
          <path class="cls-4" d="M197.6,67.8c0,1.2-1,2.1-2.1,2.1s-2.1-1-2.1-2.1,1-2.1,2.1-2.1,2.1,1,2.1,2.1Z"/>
          <path class="cls-4" d="M173.1,304.1s0,0-.3-.2c-.2-.2-.4-.4-.7-.8-.6-.7-1.5-1.7-2.7-2.9-.6-.6-1.2-1.3-1.9-2.1-.7-.8-1.4-1.7-2.1-2.7-.8-1-1.6-2-2.4-3.1-.8-1.1-1.7-2.3-2.6-3.6-3.5-5.1-7.4-11.3-10.7-18.8-3.3-7.5-6-16.1-7.5-25.4-.4-2.3-.6-4.6-.9-6.9,0-1.1-.1-2.3-.2-3.4,0-.6,0-1.1,0-1.7,0-.6,0-1.1,0-1.7,0-1.1,0-2.2,0-3.3,0-1.1,0-2.2.1-3.2,0-1.1,0-2.1.2-3.2,0-1,.2-2.1.3-3.1.9-8.1,2.5-15.3,4.4-21.2,1.8-5.9,3.8-10.5,5.3-13.6.8-1.6,1.4-2.7,1.8-3.5.2-.4.4-.7.5-.9.1-.2.2-.3.2-.3,0,0,0,.1-.2.3-.1.2-.3.5-.5.9-.4.8-1,2-1.7,3.6-1.4,3.1-3.4,7.7-5.1,13.6-1.8,5.9-3.4,13.1-4.3,21.1,0,1-.2,2-.3,3.1,0,1-.2,2.1-.2,3.2,0,1.1,0,2.1-.1,3.2,0,1.1,0,2.2,0,3.3,0,.6,0,1.1,0,1.7,0,.6,0,1.1,0,1.7,0,1.1.1,2.3.2,3.4.3,2.3.4,4.6.9,6.9,1.5,9.3,4.1,17.9,7.4,25.3,3.3,7.5,7.1,13.7,10.6,18.8.9,1.3,1.7,2.5,2.5,3.6.8,1.1,1.7,2.1,2.4,3.1.8,1,1.5,1.9,2.1,2.7.7.8,1.3,1.5,1.9,2.2,1.1,1.3,2,2.3,2.6,3,.3.3.5.6.7.8.1.2.2.3.2.3Z"/>
          <path class="cls-4" d="M79.6,232.3s0,0,0-.3c0-.2,0-.5,0-.9,0-.8,0-1.9,0-3.3,0-.7,0-1.5,0-2.4,0-.9.1-1.8.2-2.8.1-2,.2-4.3.5-6.8.1-1.3.3-2.6.4-4,.2-1.4.4-2.8.6-4.3.4-3,1-6.1,1.6-9.4,1.3-6.6,3.1-13.8,5.4-21.2,2.4-7.4,5.1-14.3,7.8-20.5,1.4-3.1,2.7-6,4.1-8.6.7-1.3,1.3-2.6,2-3.8.7-1.2,1.3-2.4,2-3.5,1.2-2.2,2.5-4.2,3.5-5.9.5-.9,1-1.7,1.5-2.4.5-.7.9-1.4,1.3-2,.8-1.2,1.4-2.1,1.8-2.7.2-.3.4-.5.5-.7.1-.2.2-.2.2-.2,0,0,0,0-.1.3-.1.2-.3.4-.4.7-.4.7-1,1.6-1.8,2.8-.4.6-.8,1.3-1.3,2-.4.7-.9,1.6-1.4,2.4-1,1.7-2.2,3.7-3.4,5.9-.6,1.1-1.3,2.3-1.9,3.5-.7,1.2-1.3,2.5-2,3.9-1.4,2.6-2.7,5.6-4.1,8.6-2.7,6.2-5.4,13-7.8,20.4-2.3,7.4-4.1,14.6-5.4,21.1-.6,3.3-1.2,6.4-1.6,9.4-.2,1.5-.5,2.9-.6,4.3-.2,1.4-.3,2.7-.5,4-.3,2.5-.5,4.8-.6,6.8,0,1-.2,1.9-.2,2.8,0,.9,0,1.6-.1,2.4,0,1.4-.1,2.5-.2,3.3,0,.3,0,.6,0,.9,0,.2,0,.3,0,.3Z"/>
          <path class="cls-4" d="M284.3,108.6s-.3,0-.8-.2c-.5-.2-1.2-.4-2.1-.7-.9-.3-2.1-.7-3.4-1-1.3-.4-2.8-.8-4.5-1.2-.8-.2-1.7-.4-2.6-.6-.9-.2-1.9-.4-2.9-.6-2-.4-4.2-.7-6.4-1-4.5-.5-9.6-.9-14.9-.9-5.3,0-10.3.5-14.8,1.1-2.3.4-4.4.7-6.4,1.1-1,.2-2,.4-2.9.6-.9.2-1.8.4-2.6.7-1.7.4-3.2.9-4.5,1.2-1.3.4-2.5.7-3.4,1.1-.9.3-1.6.5-2.1.7-.5.2-.7.2-.8.2,0,0,.2-.1.7-.3.5-.2,1.2-.5,2.1-.8.9-.3,2-.8,3.4-1.1,1.3-.4,2.8-.9,4.5-1.3.8-.2,1.7-.4,2.6-.7.9-.2,1.9-.4,2.9-.6,2-.5,4.2-.8,6.4-1.2,4.6-.6,9.6-1.1,14.9-1.2,5.3,0,10.4.4,14.9.9,2.3.3,4.4.6,6.4,1.1,1,.2,2,.4,2.9.6.9.2,1.8.4,2.7.6,1.7.4,3.2.9,4.5,1.3,1.3.4,2.5.8,3.4,1.1.9.3,1.6.6,2.1.8.5.2.7.3.7.3Z"/>
          <path class="cls-4" d="M323.3,154.2s-.2-.2-.5-.5c-.3-.4-.8-.9-1.4-1.6-.3-.4-.6-.7-1-1.2-.4-.4-.8-.8-1.2-1.3-.9-.9-1.9-2.1-3.1-3.2-.6-.6-1.2-1.2-1.8-1.8-.6-.6-1.4-1.2-2.1-1.8-1.4-1.3-3.1-2.5-4.8-3.8-3.5-2.5-7.5-5.1-11.9-7.3-4.4-2.2-8.9-3.9-12.9-5.2-2.1-.6-4-1.2-5.9-1.6-.9-.2-1.8-.4-2.7-.6-.9-.2-1.7-.3-2.5-.4-1.6-.3-3.1-.4-4.3-.6-.6,0-1.2-.2-1.8-.2-.5,0-1.1,0-1.5,0-.9,0-1.6-.1-2.1-.1-.5,0-.7,0-.7,0,0,0,.3,0,.7,0,.5,0,1.2,0,2.1,0,.5,0,1,0,1.5,0,.6,0,1.2.1,1.8.2,1.3.1,2.8.2,4.4.5.8.1,1.7.3,2.5.4.9.1,1.8.4,2.7.6,1.9.4,3.9,1,5.9,1.5,4.1,1.3,8.6,3,13,5.2,4.4,2.3,8.5,4.8,11.9,7.4,1.7,1.3,3.3,2.6,4.8,3.9.7.6,1.4,1.2,2.1,1.9.6.6,1.2,1.2,1.8,1.8,1.2,1.1,2.1,2.3,3,3.2.4.5.8.9,1.2,1.4.3.4.7.8.9,1.2.5.7,1,1.2,1.3,1.7.3.4.4.6.4.6Z"/>
          <path class="cls-4" d="M344.7,127s0,0-.2-.2c-.2-.1-.3-.3-.6-.6-.5-.5-1.3-1.3-2.2-2.2-.5-.5-1-1-1.6-1.6-.6-.6-1.3-1.2-2-1.8-1.4-1.3-3-2.8-4.9-4.3-.9-.8-1.9-1.6-3-2.4-1-.8-2.2-1.6-3.3-2.4-2.3-1.7-4.8-3.3-7.5-5.1-5.5-3.4-11.7-6.7-18.4-9.6-6.8-2.9-13.5-5-19.7-6.6-3.1-.7-6.1-1.4-8.9-1.9-1.4-.2-2.8-.5-4.1-.7-1.3-.2-2.6-.3-3.8-.5-2.4-.3-4.6-.4-6.5-.6-1,0-1.9-.1-2.7-.2-.8,0-1.6,0-2.3,0-1.3,0-2.4,0-3.1,0-.3,0-.6,0-.8,0-.2,0-.3,0-.3,0,0,0,0,0,.3,0,.2,0,.5,0,.8,0,.8,0,1.8,0,3.1,0,.7,0,1.4,0,2.3,0,.8,0,1.7,0,2.7.1,1.9.1,4.1.2,6.5.5,1.2.1,2.5.3,3.8.4,1.3.2,2.7.4,4.1.7,2.8.4,5.8,1.1,8.9,1.8,6.2,1.6,13,3.7,19.8,6.6,6.8,2.9,13,6.3,18.5,9.7,2.7,1.8,5.3,3.4,7.5,5.2,1.1.9,2.3,1.6,3.3,2.5,1,.8,2,1.7,2.9,2.4,1.9,1.5,3.5,3.1,4.9,4.4.7.7,1.4,1.3,2,1.8.6.6,1.1,1.1,1.6,1.6.9,1,1.6,1.7,2.2,2.3.2.2.4.4.6.6.1.1.2.2.2.2Z"/>
          <path class="cls-4" d="M414.2,225.8s0,0,0-.3c0-.2,0-.5,0-.8,0-.7,0-1.7,0-3,0-.7,0-1.4,0-2.2,0-.8,0-1.7-.1-2.6-.1-1.9-.1-4-.4-6.3-.1-1.2-.2-2.4-.3-3.6-.1-1.3-.3-2.6-.5-3.9-.3-2.7-.8-5.6-1.3-8.7-1.1-6.1-2.7-12.7-4.8-19.5-2.1-6.8-4.6-13.1-7.2-18.7-1.3-2.8-2.5-5.5-3.8-7.9-.6-1.2-1.2-2.4-1.8-3.5-.6-1.1-1.2-2.2-1.8-3.2-1.1-2-2.3-3.8-3.3-5.4-.5-.8-.9-1.5-1.4-2.2-.4-.7-.8-1.3-1.2-1.8-.7-1.1-1.3-1.9-1.7-2.5-.2-.3-.3-.5-.4-.7,0-.2-.1-.2-.1-.2,0,0,3.6,4.5,8.4,12.6.6,1,1.2,2.1,1.8,3.2.6,1.1,1.2,2.3,1.9,3.5,1.3,2.4,2.6,5.1,3.9,7.9,2.5,5.6,5.1,12,7.2,18.8,2.1,6.8,3.6,13.5,4.8,19.5.5,3.1,1,5.9,1.3,8.7.2,1.4.3,2.7.5,4,0,1.3.2,2.5.3,3.7.6,9.3.3,15.1.3,15.1Z"/>
          <path class="cls-4" d="M392.1,199.9s0,.2,0,.5c0,.3.1.8.2,1.4.1,1.3.4,3.1.6,5.5.5,4.8.7,11.7.4,20.2-.1,4.3-.5,8.9-1.1,13.9-.7,5-1.4,10.3-2.7,15.8-.3,1.4-.6,2.8-1,4.2-.4,1.4-.7,2.8-1.1,4.3-.8,2.8-1.6,5.8-2.7,8.7-2,5.8-4.3,11.8-7.4,17.6-3,5.8-6.4,11.2-10,16.2-3.6,5-7.4,9.6-11.2,13.8-7.6,8.3-15.3,15.1-22.2,20.2-6.8,5.1-12.7,8.8-16.9,11.2-2.1,1.2-3.7,2-4.8,2.6-.5.3-1,.5-1.3.7-.3.1-.4.2-.4.2,0,0,.1,0,.4-.3.3-.2.7-.4,1.2-.7,1.1-.6,2.8-1.4,4.8-2.7,4.1-2.4,10-6.1,16.8-11.3,6.8-5.2,14.4-11.9,22-20.3,3.8-4.2,7.6-8.7,11.1-13.8,3.6-5,6.9-10.4,9.9-16.2,3-5.8,5.4-11.7,7.4-17.5,1-2.9,1.8-5.8,2.7-8.6.4-1.4.7-2.8,1.1-4.2.4-1.4.7-2.8,1-4.2,1.3-5.5,2-10.8,2.7-15.8.6-5,1-9.6,1.1-13.9.4-8.5.1-15.4-.3-20.2-.1-2.4-.4-4.2-.5-5.5,0-.6,0-1.1-.1-1.4,0-.3,0-.5,0-.5Z"/>
          <path class="cls-4" d="M346.6,156.8s0,0,.3.3c.2.2.4.5.8.9.6.8,1.7,2,2.8,3.5,2.4,3.1,5.7,7.8,9.1,14,1.7,3.1,3.4,6.6,5.1,10.4,1.6,3.8,3.2,8,4.5,12.5,1.3,4.5,2.5,9.2,3.3,14.3.8,5,1.4,10.3,1.6,15.6.1,5.4,0,10.7-.6,15.7-.6,5.1-1.4,9.9-2.5,14.4-2.2,9.1-5.3,17-8.5,23.3-3.2,6.3-6.3,11.1-8.5,14.4-1.1,1.6-2.1,2.8-2.7,3.7-.3.4-.5.7-.7.9-.2.2-.3.3-.3.3,0,0,0-.1.2-.3.2-.2.4-.6.7-1,.6-.9,1.5-2.1,2.6-3.7,2.2-3.2,5.3-8.1,8.4-14.4,3.1-6.3,6.2-14.2,8.3-23.2,1-4.5,1.9-9.3,2.4-14.4.5-5,.7-10.3.6-15.6-.1-5.4-.7-10.6-1.5-15.6-.8-5-2-9.7-3.3-14.2-1.3-4.5-2.9-8.6-4.4-12.4-1.7-3.8-3.3-7.3-5-10.4-3.4-6.2-6.6-10.9-8.9-14.1-1.1-1.6-2.1-2.8-2.8-3.6-.3-.4-.5-.7-.7-.9-.2-.2-.2-.3-.2-.3Z"/>
          <path class="cls-4" d="M304.1,389.8s-.2,0-.5.1c-.4,0-.9.2-1.6.3-1.4.3-3.4.7-6.1,1.2-5.3.9-13.1,2.1-22.7,2.8-9.6.7-21.2.9-33.9,0-6.4-.5-13-1.2-19.9-2.4-6.9-1.1-13.9-2.6-21.1-4.5-7.1-2-14-4.3-20.3-7.3-6.3-2.9-12.2-6.2-17.6-9.6-5.4-3.5-10.2-7.2-14.6-10.8-4.4-3.6-8.3-7.2-11.8-10.5-6.9-6.7-12.2-12.6-15.7-16.6-1.8-2-3.1-3.6-4-4.7-.4-.5-.8-1-1-1.3-.2-.3-.3-.4-.3-.4,0,0,.1.1.4.4.3.3.6.7,1.1,1.2.9,1.1,2.3,2.7,4.1,4.7,3.6,4,8.8,9.8,15.8,16.5,3.5,3.3,7.4,6.9,11.8,10.5,4.4,3.6,9.2,7.2,14.6,10.7,5.4,3.5,11.2,6.7,17.5,9.6,6.3,2.9,13.1,5.3,20.2,7.2,7.1,2,14.1,3.4,21,4.5,6.8,1.1,13.5,1.9,19.9,2.4,12.7,1,24.2.8,33.9.2,9.6-.6,17.4-1.7,22.7-2.6,2.7-.4,4.7-.8,6.1-1.1.7-.1,1.2-.2,1.6-.3.4,0,.5,0,.5,0Z"/>
          <path class="cls-4" d="M248.8,372.9s-5.2.4-13.7-.2c-1.1,0-2.2-.2-3.3-.3-1.1,0-2.3-.3-3.6-.4-2.5-.3-5.1-.7-7.8-1.2-5.5-1.1-11.5-2.6-17.6-4.6-6.1-2.1-11.8-4.5-16.8-7-2.5-1.3-4.8-2.5-7-3.8-1.1-.6-2.1-1.2-3.1-1.8-1-.6-1.9-1.2-2.8-1.8-7.1-4.7-11-8.2-11-8.2,0,0,0,0,.2.1.2.1.3.2.6.4.5.4,1.3.9,2.2,1.6.5.4,1,.8,1.6,1.2.6.4,1.2.9,1.9,1.3,1.4.9,2.9,2.1,4.7,3.2.9.6,1.8,1.2,2.8,1.8,1,.6,2,1.2,3.1,1.8,2.1,1.3,4.5,2.4,7,3.7,5,2.4,10.6,4.9,16.7,6.9,6.1,2,12,3.5,17.5,4.6,2.7.5,5.3,1,7.8,1.3,1.2.2,2.4.3,3.6.5,1.1.1,2.2.2,3.3.3,2.1.2,4,.3,5.7.3.8,0,1.6,0,2.3.1.7,0,1.4,0,2,0,1.1,0,2.1,0,2.7,0,.3,0,.5,0,.7,0,.2,0,.2,0,.2,0Z"/>
          <path class="cls-4" d="M214.8,346.4s-.3,0-.9-.1c-.6-.1-1.4-.3-2.5-.4-.5-.1-1.1-.2-1.8-.3-.7-.1-1.4-.3-2.1-.5-1.5-.4-3.2-.7-5.1-1.4-.9-.3-1.9-.6-2.9-.9-1-.3-2.1-.7-3.1-1.1-2.2-.7-4.4-1.7-6.8-2.8-4.7-2.2-9.8-4.8-14.8-8.1-5-3.3-9.4-6.9-13.3-10.3-1.9-1.8-3.7-3.5-5.2-5.2-.8-.8-1.6-1.6-2.3-2.4-.7-.8-1.4-1.6-2-2.3-1.3-1.5-2.3-2.9-3.3-4.1-.5-.6-.9-1.2-1.3-1.7-.4-.5-.7-1.1-1-1.5-.6-.9-1-1.6-1.4-2.1-.3-.5-.5-.7-.5-.8,0,0,.2.2.5.7.4.5.9,1.2,1.5,2,.3.4.7.9,1.1,1.5.4.5.9,1.1,1.3,1.7,1,1.2,2,2.6,3.3,4.1.6.7,1.3,1.5,2,2.3.7.8,1.5,1.6,2.3,2.4,1.6,1.7,3.4,3.3,5.2,5.1,3.8,3.4,8.3,7,13.3,10.3,5,3.2,10,5.9,14.7,8.1,2.4,1,4.6,2,6.8,2.8,1.1.4,2.1.8,3.1,1.1,1,.3,2,.6,2.9.9,1.8.6,3.6,1,5.1,1.4.8.2,1.4.4,2.1.5.6.1,1.2.3,1.8.4,1,.2,1.9.4,2.5.5.6.1.9.2.9.2Z"/>
          <path class="cls-4" d="M253.3,418.4s-.1,0-.3,0c-.2,0-.6,0-.9,0-.9,0-2.1.2-3.7.3-.8,0-1.7.1-2.6.2-1,0-2,0-3.2,0-2.3,0-4.8.2-7.7,0-1.4,0-2.9,0-4.5-.1-1.6,0-3.2-.2-4.8-.3-3.3-.2-6.9-.7-10.6-1.2-7.4-1.1-15.6-2.9-23.9-5.4-8.3-2.6-16-5.7-22.8-8.9-3.4-1.7-6.6-3.2-9.5-4.9-1.5-.8-2.9-1.6-4.2-2.4-1.3-.8-2.6-1.6-3.8-2.4-2.4-1.5-4.5-3-6.4-4.3-.9-.7-1.8-1.2-2.6-1.8-.8-.6-1.5-1.1-2.1-1.6-1.2-1-2.2-1.7-2.9-2.3-.3-.3-.5-.4-.7-.6-.2-.1-.2-.2-.2-.2,0,0,0,0,.3.2.2.1.5.3.8.6.7.5,1.7,1.3,2.9,2.2.6.5,1.3,1,2.1,1.6.8.6,1.7,1.1,2.6,1.8,1.9,1.3,3.9,2.8,6.4,4.2,1.2.7,2.5,1.5,3.8,2.3,1.3.8,2.8,1.6,4.2,2.4,2.9,1.7,6.1,3.2,9.5,4.9,6.8,3.2,14.5,6.2,22.8,8.8,8.3,2.5,16.4,4.2,23.8,5.4,3.7.5,7.3,1,10.6,1.2,1.7.1,3.3.3,4.8.4,1.5,0,3,.1,4.5.2,2.8.2,5.4,0,7.7,0,1.1,0,2.2,0,3.1,0,1,0,1.8-.1,2.6-.2,1.6,0,2.8-.1,3.7-.2.4,0,.7,0,1,0,.2,0,.3,0,.3,0Z"/>
          <path class="cls-4" d="M109.8,183.5c0,.1-9.6-3.4-21.2-7.9-11.7-4.5-21.1-8.2-21-8.4,0-.1,9.6,3.4,21.2,7.9,11.7,4.5,21.1,8.2,21,8.3Z"/>
          <path class="cls-4" d="M148.8,152.7s0,0-.2.3c-.2.2-.4.4-.6.7-.5.6-1.4,1.5-2.4,2.7-2.1,2.4-4.8,6-7.7,10.8-2.9,4.8-5.8,10.9-8.2,17.9-2.4,7-4.2,15-5.2,23.5-.7,6.4-1,12.7-.8,18.4v.3s-.2,0-.2,0c-12.7,0-23.6,0-31.4,0-3.9,0-6.9,0-9.1,0-1,0-1.8,0-2.4,0-.3,0-.5,0-.6,0-.1,0-.2,0-.2,0s0,0,.2,0c.2,0,.4,0,.6,0,.6,0,1.4,0,2.4,0,2.2,0,5.2,0,9.1,0,7.8,0,18.7,0,31.4,0l-.2.3c-.3-5.8,0-12,.7-18.5,1-8.5,2.9-16.6,5.3-23.6,2.4-7.1,5.4-13.1,8.3-17.9,3-4.8,5.8-8.4,7.9-10.7,1-1.2,1.9-2,2.5-2.6.3-.3.5-.5.7-.7.2-.1.2-.2.2-.2Z"/>
          <line class="cls-13" x1="105.9" y1="249.5" x2="144.5" y2="243.5"/>
          <path class="cls-4" d="M171.7,305.6s-.3.4-.8,1.1c-.6.7-1.4,1.6-2.4,2.7-2.1,2.3-5,5.4-8.4,8.6-3.4,3.3-6.6,6.1-9,8.1-1.2,1-2.2,1.8-2.8,2.3-.7.5-1.1.8-1.1.8,0,0,.3-.4,1-.9.7-.6,1.6-1.5,2.7-2.4,2.3-2,5.5-4.9,8.8-8.1,3.4-3.3,6.4-6.3,8.5-8.5,1-1,1.9-1.9,2.5-2.6.6-.6.9-.9,1-.9Z"/>
          <path class="cls-4" d="M163,341.3c.1,0-5.7,9.6-12.9,21.2-7.3,11.6-13.2,21-13.3,20.9-.1,0,5.7-9.6,12.9-21.2,7.2-11.6,13.2-21,13.3-20.9Z"/>
          <path class="cls-4" d="M211.4,348.3s-.1.5-.5,1.5c-.4,1-.9,2.4-1.5,4-1.3,3.4-3.1,8.1-4.9,13.4-1.9,5.3-3.5,10-4.6,13.5-.6,1.7-1,3-1.4,4.1-.3,1-.5,1.5-.6,1.5,0,0,0-.6.4-1.5.3-1,.7-2.4,1.2-4.2,1.1-3.5,2.6-8.3,4.5-13.6,1.9-5.3,3.7-10,5.1-13.4.7-1.7,1.3-3.1,1.7-4,.4-.9.7-1.4.7-1.4Z"/>
          <path class="cls-4" d="M299.7,390.6s0-.1-.2-.4c-.1-.3-.3-.8-.4-1.3-.4-1.2-.9-2.8-1.5-4.7-1.2-4-2.8-9.5-4.6-15.6-1.8-6.1-3.4-11.6-4.5-15.6-.5-1.9-1-3.5-1.3-4.7-.1-.5-.2-.9-.3-1.3,0-.3,0-.5,0-.5,0,0,0,.1.2.4.1.3.3.8.4,1.3.4,1.2.9,2.8,1.5,4.7,1.2,4,2.8,9.5,4.6,15.6,1.8,6.1,3.4,11.6,4.5,15.6.5,1.9,1,3.5,1.3,4.8.1.5.2.9.3,1.3,0,.3,0,.5,0,.5Z"/>
          <path class="cls-4" d="M309.9,355.8c-.1,0-3.1-7.4-6.6-16.6-3.5-9.2-6.2-16.7-6.1-16.8.1,0,3.1,7.4,6.6,16.6,3.5,9.2,6.2,16.7,6.1,16.8Z"/>
          <path class="cls-4" d="M381.8,321.4s-.5-.2-1.4-.6c-.9-.4-2.1-1-3.7-1.8-3.1-1.6-7.3-4-11.7-6.9-4.4-2.9-8.2-5.8-10.9-8-1.3-1.1-2.4-2-3.1-2.7-.7-.6-1.1-1-1.1-1,0,0,.5.3,1.2.9.8.7,1.9,1.5,3.2,2.5,2.7,2.1,6.6,5,11,7.9,4.4,2.9,8.5,5.3,11.6,7,1.5.8,2.7,1.5,3.6,2,.8.5,1.3.7,1.3.8Z"/>
          <path class="cls-4" d="M428.3,283.1c0,.1-10.3-2.3-23-5.4-12.7-3.1-22.9-5.8-22.9-5.9s10.3,2.3,23,5.4c12.7,3.1,22.9,5.8,22.9,5.9Z"/>
          <path class="cls-4" d="M426.9,164.9s-.1,0-.4.2c-.3.1-.8.3-1.3.5-1.2.4-2.8,1-4.7,1.7-3.9,1.4-9.4,3.4-15.3,5.6-6,2.3-11.3,4.4-15.2,6-1.9.8-3.4,1.4-4.6,1.9-.5.2-.9.4-1.3.5-.3.1-.4.2-.5.1,0,0,.1,0,.4-.2.3-.2.7-.4,1.2-.6,1.1-.5,2.6-1.2,4.5-2,3.8-1.7,9.2-3.9,15.1-6.2,6-2.3,11.4-4.2,15.4-5.5,2-.7,3.6-1.2,4.7-1.5.5-.1.9-.3,1.3-.4.3,0,.5-.1.5,0Z"/>
          <path class="cls-4" d="M359.5,71.8c.1,0-5.7,8.5-13.1,18.8-7.3,10.3-13.4,18.6-13.5,18.5-.1,0,5.7-8.5,13.1-18.8,7.3-10.3,13.4-18.6,13.5-18.5Z"/>
          <path class="cls-4" d="M248.1,84.1s0-.2,0-.5c0-.4,0-.8,0-1.4,0-1.3.1-3,.2-5.2.2-4.4.3-10.4.2-17-.1-6.7-.5-12.7-.9-17-.2-2.1-.3-3.8-.4-5.1,0-.6,0-1-.1-1.4,0-.3,0-.5,0-.5,0,0,0,.2.1.5,0,.4.1.8.2,1.4.2,1.2.4,3,.6,5.1.5,4.3.9,10.4,1,17,.1,6.7,0,12.7-.3,17.1-.1,2.2-.3,3.9-.4,5.2,0,.6-.1,1-.1,1.4,0,.3,0,.5,0,.5Z"/>
          <path class="cls-4" d="M198.6,128.6s-.3-.4-.8-1.1c-.5-.7-1.2-1.7-2-3-1.7-2.6-3.8-6.2-6.1-10.3-2.2-4.1-4.1-7.9-5.4-10.6-.6-1.4-1.1-2.5-1.5-3.3-.3-.8-.5-1.2-.5-1.2,0,0,.3.4.6,1.2.4.9,1,1.9,1.6,3.2,1.4,2.7,3.3,6.5,5.5,10.5,2.2,4.1,4.4,7.7,5.9,10.3.7,1.2,1.4,2.3,1.9,3.1.4.7.7,1.1.6,1.2Z"/>
          <path class="cls-4" d="M288.7,106.6s0-.2.1-.6c.1-.4.3-.9.5-1.6.4-1.4,1-3.4,1.8-5.8,1.5-4.9,3.4-11.8,5.1-19.4.8-3.7,1.6-7.2,2.2-10.4h0c0-5.1-.2-9.5-.2-12.7,0-1.5,0-2.7,0-3.7,0-.8,0-1.3,0-1.3,0,0,0,.5.1,1.3,0,.9,0,2.1.2,3.7.1,3.2.3,7.6.4,12.8h0s0,0,0,0c-.6,3.2-1.3,6.8-2.2,10.5-1.7,7.7-3.7,14.5-5.3,19.4-.8,2.5-1.5,4.4-1.9,5.8-.2.6-.4,1.1-.6,1.6-.1.4-.2.5-.2.5Z"/>
          <path class="cls-4" d="M147.1,362.6c0,.1-6.5.3-14.4.3s-14.4-.1-14.4-.3,6.5-.3,14.4-.3,14.4.1,14.4.3Z"/>
        </g>
      </g>
      <g>
        <circle class="cls-4" cx="94.6" cy="197.3" r="51.2"/>
        <g>
          <path class="cls-8" d="M89.2,204.2c-2.3,4.4-7.3,6.7-12.1,5.8-4.7-.9-8.3-4.7-9.1-9.4-.2-1-.2-2-.2-3.1h25.3c0-1.8.1-3.5,0-5.2-.6-6.8-6.5-12.2-13.3-12.4-6.6-.2-12.3,4.2-13.9,10.7-.6,2.7-.5,5.4-.4,8.1,0,1.7.4,3.3,1,4.8,2,4.9,5.4,8.2,10.7,9.1,5.2.9,9.5-.9,12.9-4.9,1.2-1.4,2.1-3.1,2.6-4.9-1.9-.2-2.6.1-3.3,1.5ZM72.6,184.5c3.9-2.8,8.1-3,12.3-.6,4,2.2,6.1,6.5,5.7,11.1h-22.7c0-4.2,1.3-7.9,4.7-10.5Z"/>
          <path class="cls-8" d="M108,196.2c3.8-5,7.6-10,11.5-15.1-1.9-.3-3.4.2-4.5,1.8-2.6,3.6-5.4,7.2-8.1,10.7-.1.2-.2.3-.4.5-.2-.2-.3-.3-.4-.5-1-1.3-2-2.7-3-4-1.8-2.3-3.6-4.7-5.3-7-1-1.3-2.7-1.9-4.2-1.4,3.8,5,7.6,10,11.4,15-4,5.3-8,10.5-12,15.8,2,.3,3.4-.2,4.6-1.8,2.1-2.9,4.4-5.8,6.5-8.7.8-1.1,1.6-2.1,2.5-3.2.2.2.3.3.4.5,3,3.9,6,7.8,8.9,11.7,1,1.3,2.6,1.9,4.2,1.4-4-5.3-8-10.5-12-15.8Z"/>
        </g>
      </g>
      <g>
        <circle class="cls-4" cx="210.1" cy="62.7" r="51.2"/>
        <g>
          <path class="cls-8" d="M170.4,50.5c.5,0,1,0,1.5,0,.2,0,.3,0,.4.2,1.6,2.4,3.2,4.8,4.8,7.2,2.8,4.2,5.7,8.5,8.5,12.7,2.4,3.6,4.8,7.2,7.2,10.8,1,1.5,2,3,3,4.5,0,0,.1.2.1.3-.3-.4-.6-.8-.9-1.1-2.8-3.8-5.7-7.5-8.5-11.3-1.1-1.4-2-2.9-3-4.4-3.8-5.6-7.7-11.2-11.5-16.8,0,0,0-.1-.2-.2,0,7,0,14.1,0,21.2h-1.4v-23Z"/>
          <path class="cls-8" d="M191.1,62.2v10.1h14.1v1.2h-15.5c0,0,0-.1,0-.2,0-7.5,0-15,0-22.5,0-.2,0-.2.2-.2,5,0,10,0,14.9,0h.2v1.2h-14v9.2h13.1v1.2h-13.1Z"/>
          <path class="cls-8" d="M232.4,38.4c-.2.4-.5.7-.7,1.1-3.9,5.7-7.8,11.4-11.7,17-1.1,1.7-2.3,3.3-3.4,5-.1.2-.1.3,0,.5,2.7,3.8,5.5,7.6,8.2,11.4,0,0,0,.1.1.2-.4,0-.7,0-1,0-.5,0-.8-.1-1.1-.6-2.4-3.3-4.8-6.7-7.2-10,0,0-.1-.1-.2-.2,0,0-.1.2-.2.3-2.5,3.4-5,6.9-7.4,10.3-.1.2-.2.2-.4.2-.5,0-.9,0-1.4,0,0,0,0-.1,0-.2,2.8-3.8,5.5-7.6,8.3-11.4.2-.3.2-.2,0-.5-2.6-3.6-5.1-7.1-7.7-10.7,0,0,0-.1-.1-.2,0,0,.1,0,.2,0,.4,0,.9,0,1.3,0,0,0,.2,0,.3.1,1.6,2.2,3.2,4.4,4.8,6.6.8,1.1,1.5,2.1,2.3,3.2,0,0,0,0,0,.1,2.8-3.8,5.5-7.5,8.4-11.3,2.8-3.7,5.8-7.4,8.6-11,0,0,0,0,0,0Z"/>
          <path class="cls-8" d="M242.9,50.6c0,.4,0,.7,0,1.1,0,0,0,.1-.1.1,0,0-.1,0-.2,0h-7.8v21.8h-1.4v-21.7h-8.1c0-.4,0-.8,0-1.1,0,0,0,0,0,0,0,0,.1,0,.2,0h17.3Z"/>
          <path class="cls-8" d="M248.2,70.6h.7c.3.7,1.3,1,2,.5.4-.3.4-.9,0-1.1-.3-.2-.7-.2-1.1-.4-.2,0-.4-.1-.6-.2-1-.4-.9-1.7-.4-2.2.7-.7,2.2-.6,2.8,0,.2.2.3.5.3.8h-.7c-.3-.7-.9-.9-1.6-.6-.3.1-.5.3-.5.6,0,.3.2.5.5.6.3.1.7.2,1,.3.2,0,.4.1.6.2,1,.4,1.1,1.7.3,2.3-.7.6-2.1.6-2.8,0-.3-.3-.5-.6-.5-1Z"/>
          <path class="cls-8" d="M244.2,70.6c0,0,0,0,.1,0,.2,0,.4,0,.6,0,0,0,0,0,0,.1,0,.4.4.6.8.6.4,0,.6-.3.7-.7,0-.1,0-.2,0-.3,0-1,0-2.1,0-3.1v-.2h.7s0,0,0,.1c0,1.2,0,2.3,0,3.5,0,.6-.2,1.1-.9,1.3-.6.2-1.3.2-1.8-.3-.3-.3-.4-.6-.4-1Z"/>
          <path class="cls-8" d="M242.3,71.4c0-.3.2-.5.5-.5.3,0,.5.2.5.5,0,.3-.2.5-.5.5-.3,0-.5-.2-.5-.5Z"/>
        </g>
      </g>
    </g>
    <g id="Plant">
      <g>
        <path class="cls-4" d="M355.2,422.8c.6-2.1,1.9-4.1,3.9-4.9,2.1-.9,4.4-.4,6.5.4,2.1.8,4.2,1.8,6.4,1.9,2.2.1,4.8-.9,5.4-3.1.6-2-.6-4.2-2.1-5.6-3.2-3.1-8-4.4-12.3-3.3-4.3,1-8,4.4-9.4,8.5"/>
        <g>
          <g class="cls-21">
            <path d="M355.2,422.8c.6-2.1,1.9-4.1,3.9-4.9,2.1-.9,4.4-.4,6.5.4,2.1.8,4.2,1.8,6.4,1.9,2.2.1,4.8-.9,5.4-3.1.6-2-.6-4.2-2.1-5.6-3.2-3.1-8-4.4-12.3-3.3-4.3,1-8,4.4-9.4,8.5"/>
          </g>
          <path class="cls-4" d="M337.5,431.8c-3.3-3.1-3.1-8.5-1.5-12.8,1.6-4.2,5.2-7.5,9.2-9.6,7.7-4.1,17.4-4.5,25.4-.8-3.9.1-7.7,2.4-9.7,5.7-1.8,3-2.2,6.6-3.7,9.8-1.7,3.5-4.7,6.3-8.3,7.8-3.6,1.4-7.8,1.4-11.4,0"/>
          <path class="cls-4" d="M335.9,413.1c-3.6-4.3-4.1-11.2-3.6-16.8.5-5.6,1.8-11.2.9-16.8-.5-3.3-1.8-6.4-2.2-9.7-.4-3.3.2-7,2.7-9.2,2.9-2.4,7.6-1.9,10.6.4,3.1,2.3,4.8,5.9,6.1,9.5,2.8,7.9,3.9,16.7,1.6,24.8-2.3,8.1-7.8,15.3-15.9,17.7"/>
          <path class="cls-5" d="M334.2,448.3s0-.2,0-.5c0-.3,0-.8,0-1.4,0-1.2.2-3,.4-5.2.3-2.2.7-4.8,1.4-7.6.7-2.8,1.8-5.9,3.5-8.8,1.6-2.9,3.6-5.5,5.7-7.6,2-2.1,4.1-3.7,5.9-4.9.9-.6,1.8-1.1,2.5-1.5.8-.4,1.5-.7,2-1,.5-.2,1-.4,1.3-.5.3-.1.5-.2.5-.2,0,0-.1,0-.4.2-.3.1-.7.3-1.3.6-.5.3-1.2.6-2,1-.7.5-1.6.9-2.5,1.6-1.8,1.2-3.9,2.9-5.9,5-2,2.1-4,4.6-5.6,7.5-3.3,5.8-4.3,12-4.9,16.3-.3,2.2-.5,3.9-.5,5.2,0,.6,0,1.1,0,1.4,0,.3,0,.5,0,.5Z"/>
          <g>
            <path class="cls-4" d="M302.8,396.2c-6.7,4.1-6.7,7.7-5.6,11.2,1.1,3.5,5.2,5.9,8.7,4.6,1.9-.7,3.3-2.4,4.5-4.1,1.2-1.7,2.3-3.5,4-4.7,1.7-1.2,4.1-1.7,5.8-.5"/>
            <g class="cls-21">
              <path d="M302.8,396.2c-6.7,4.1-6.7,7.7-5.6,11.2,1.1,3.5,5.2,5.9,8.7,4.6,1.9-.7,3.3-2.4,4.5-4.1,1.2-1.7,2.3-3.5,4-4.7,1.7-1.2,4.1-1.7,5.8-.5"/>
            </g>
            <path class="cls-4" d="M297.8,400.6c1.8-2.4,6.1-3.1,8.8-1.9,2.7,1.2,4.7,3.6,6.5,6,1.8,2.4,3.5,4.9,6,6.6,2.5,1.7,6,2.3,8.4.6,1.6-1.1,2.6-3,2.9-5,.3-1.9,0-3.9-.4-5.9-.6-2.8-1.6-5.8-3.8-7.6-2.5-2-6-2.1-9.2-2-3.7.1-7.4.4-10.9,1.7-3.5,1.3-7,4-8.4,7.4"/>
            <path class="cls-5" d="M328.6,442.9s0,0,0-.1c0-.1,0-.3,0-.4,0-.4,0-1,0-1.7,0-1.5-.1-3.6-.2-6.1,0-2.6-.2-5.7-.4-9.1-.2-3.4-.4-7.2-1-11.1-.3-2-.6-3.9-1.1-5.6-.5-1.8-1.3-3.4-2.1-4.9-.8-1.5-1.7-2.9-2.6-4.1-.9-1.2-1.9-2.2-2.8-3.1-1.9-1.7-3.7-2.8-5-3.4-.3-.1-.6-.3-.9-.4-.3,0-.5-.2-.7-.3-.2,0-.3-.1-.4-.2,0,0-.1,0-.1,0,0,0,0,0,.1,0,.1,0,.2,0,.4.1.2,0,.4.1.7.2.3,0,.6.2.9.4,1.3.6,3.2,1.6,5.1,3.4,1,.9,1.9,1.9,2.9,3.1.9,1.2,1.8,2.6,2.6,4.1.8,1.5,1.5,3.2,2.1,5,.6,1.8.9,3.7,1.1,5.7.5,3.9.8,7.7.9,11.1.2,3.4.3,6.5.3,9.1,0,2.6,0,4.7,0,6.1,0,.7,0,1.3,0,1.7,0,.2,0,.3,0,.4,0,0,0,.1,0,.1Z"/>
          </g>
          <path class="cls-5" d="M331,445.9s-.4-1-.7-2.9c-.3-1.9-.6-4.7-.3-8.1.3-3.4,1.2-7.4,2.6-11.8,1.4-4.3,3.3-8.9,4.8-13.9.8-2.5,1.5-4.9,1.9-7.4.5-2.4.8-4.8,1-7,.4-4.5.3-8.6.2-12-.1-3.4-.3-6.2-.4-8.1,0-.9,0-1.7-.1-2.2,0-.2,0-.4,0-.6,0-.1,0-.2,0-.2,0,0,0,0,0,.2,0,.1,0,.3,0,.6,0,.5.1,1.3.2,2.2.1,1.9.4,4.7.5,8.1.1,3.4.2,7.5-.2,12-.2,2.3-.5,4.6-.9,7.1-.5,2.4-1.1,4.9-1.9,7.4-1.6,5-3.5,9.6-4.9,13.9-1.4,4.3-2.3,8.3-2.6,11.7-.3,3.4-.1,6.2.2,8.1.2.9.3,1.7.4,2.2,0,.2.1.4.1.6,0,.1,0,.2,0,.2Z"/>
          <polygon class="cls-19" points="347.7 449 316.1 449 315.4 442.9 347.7 442.9 347.7 449"/>
          <polygon class="cls-19" points="319.5 448.3 323.4 466.5 340.6 466.5 344.3 448.3 319.5 448.3"/>
          <path class="cls-19" d="M347.7,449c0,0-6.9.1-15.5.1-8.6,0-15.5-.1-15.5-.2,0,0,6.9-.1,15.5-.1,8.6,0,15.5.1,15.5.2Z"/>
          <path class="cls-5" d="M342.2,457.9c0,0-.9-.9-2.8-1.6-.9-.4-2.1-.6-3.4-.7-1.3,0-2.7.3-4.2.8-1.4.5-2.8,1.1-4.1,1.4-1.3.3-2.5.3-3.5.1-1-.2-1.8-.5-2.3-.7-.2-.1-.4-.3-.5-.3-.1,0-.2-.1-.2-.1,0,0,.3.2.8.4.5.2,1.3.5,2.2.6,1,.1,2.2.1,3.4-.2,1.3-.3,2.6-.9,4.1-1.4,1.4-.5,2.9-.8,4.3-.8,1.3,0,2.5.4,3.5.8.9.4,1.6.9,2.1,1.2.2.2.4.3.5.4.1.1.2.2.2.2Z"/>
          <path class="cls-8" d="M342,459.2c0,0-.9-.8-2.7-1.6-.9-.4-2-.6-3.3-.7-1.3,0-2.6.3-4,.7-1.4.5-2.7,1-3.9,1.3-1.2.3-2.4.5-3.4.4-1,0-1.7-.3-2.2-.6-.2-.1-.4-.2-.5-.3-.1,0-.2-.1-.2-.1,0,0,.3.2.7.4.5.2,1.2.4,2.2.5,1,0,2.1,0,3.3-.4,1.2-.3,2.5-.9,3.9-1.4,1.4-.5,2.8-.8,4.1-.7,1.3,0,2.4.4,3.3.8.9.4,1.5.9,2,1.2.2.2.4.3.5.4.1,0,.2.2.1.2Z"/>
          <path class="cls-8" d="M342.5,456.7c0,0-1-.9-2.9-1.7-.9-.4-2.1-.8-3.5-.8-1.3,0-2.8.2-4.3.8-1.5.5-2.9,1.1-4.2,1.4-1.4.2-2.6.2-3.6,0-1-.2-1.8-.5-2.3-.7-.3-.1-.4-.3-.6-.4-.1,0-.2-.1-.2-.2,0,0,.3.2.8.4.5.2,1.3.5,2.3.6,1,.1,2.2.2,3.6,0,1.3-.3,2.7-.9,4.2-1.4,1.5-.5,3-.9,4.4-.7,1.4,0,2.6.5,3.5.9,1,.4,1.6.9,2.1,1.3.2.2.4.3.5.4.1.1.2.2.2.2Z"/>
        </g>
        <path class="cls-5" d="M347.9,449c0,0-7.1.2-15.8.2s-15.8,0-15.8-.2,7.1-.2,15.8-.2,15.8,0,15.8.2Z"/>
      </g>
      <g>
        <circle class="cls-4" cx="115.6" cy="338.1" r="51.2" transform="translate(-205.2 180.8) rotate(-45)"/>
        <path class="cls-8" d="M115.5,305.7c2.4,0,4.4,1.6,4.7,3.9,0,.6,0,1.2,0,1.8,0,.3,0,.4.3.6,2.4,1.4,4.9,2.8,7.3,4.2,1,.6,2,1.1,2.9,1.7.3.2.4.1.6,0,1.4-1.2,3-1.6,4.8-.9,1.7.6,2.7,2,3,3.8.3,2.2-1.1,4.3-3.2,4.9-.3.1-.4.2-.4.6,0,3.9,0,7.8,0,11.7,0,.3.1.5.4.6,2.1.7,3.3,2.7,3.2,4.8-.2,2.1-1.8,3.8-3.9,4.1-1.5.2-2.9-.2-4-1.3-.2-.2-.3-.2-.5,0-3.4,2-6.9,4-10.3,5.9-.2.1-.2.2-.2.5.8,2.9-1.2,5.4-3.7,5.8-3,.5-5.2-1.7-5.4-4.1,0-.5,0-1,0-1.6,0-.3,0-.4-.2-.5-1.9-1.1-3.8-2.2-5.7-3.3-1.5-.9-3.1-1.8-4.6-2.7-.3-.1-.4-.1-.6,0-1.4,1.2-3,1.5-4.7.9-1.7-.6-2.7-1.9-3-3.7-.4-2.2,1-4.4,3.1-5.1.3-.1.4-.2.4-.6,0-3.9,0-7.8,0-11.8,0-.3,0-.4-.4-.5-1.9-.6-3.4-2.5-3.2-4.9.2-1.9,1.5-3.6,3.7-4.1,1.6-.3,2.9,0,4.1,1.1.2.2.3.2.6,0,3.4-2,6.8-4,10.3-5.9.3-.1.3-.3.3-.6-.6-2.7,1.3-5.2,3.7-5.6.3,0,.5,0,.7,0ZM115.6,341.9c4.6,0,9.2,0,13.8,0,.3,0,.5-.1.6-.4.2-.6.5-1.1.9-1.6.2-.3.2-.5,0-.8-2.8-4.8-5.5-9.5-8.3-14.3-1.8-3.2-3.7-6.4-5.5-9.5-.2-.3-.4-.3-.7-.3-.6,0-1.2,0-1.7,0-.4,0-.6,0-.8.4-1.7,3-3.5,6-5.2,9-2.9,5-5.7,9.9-8.6,14.9-.1.2-.1.3,0,.6.4.5.7,1.1,1,1.7.1.3.3.4.6.4,4.6,0,9.1,0,13.7,0ZM115.6,344c-4.6,0-9.1,0-13.7,0-.1,0-.2,0-.3,0,0,0-.2,0-.2.1,0,0,0,.2.1.2,0,0,.1,0,.2.1,3.4,2,6.8,3.9,10.2,5.9.2.1.4.1.6,0,1.9-1.7,4.6-1.6,6.4.1.2.2.3.2.6,0,2.8-1.6,5.6-3.3,8.5-4.9.6-.4,1.2-.7,1.8-1.1,0,0,.2-.2.1-.3,0,0-.2-.2-.3-.2-.1,0-.2,0-.3,0-4.5,0-9.1,0-13.6,0ZM97.9,332.1c0,1.9,0,3.8,0,5.8,0,.2,0,.4.1.6.1-.1.3-.3.4-.4,4.3-7.4,8.5-14.8,12.8-22.2.3-.6.7-1.2,1-1.8,0,0,0-.2,0-.3,0,0-.2,0-.3,0,0,0,0,0-.1,0-3.4,2-6.8,4-10.3,5.9-.2.1-.4.3-.3.6,0,.2,0,.3,0,.5.2,2.2-1.1,4.1-3.2,4.8-.3.1-.4.3-.4.6,0,2,0,3.9,0,5.9ZM133.3,332.1c0-2,0-4,0-5.9,0-.3,0-.4-.4-.5-2.3-.8-3.6-3-3.1-5.4,0-.3,0-.4-.3-.6-3.4-2-6.8-3.9-10.3-5.9,0,0-.1,0-.2-.1,0,0-.2,0-.2,0,0,0,0,.1,0,.2,0,.1.2.3.2.4,4.5,7.8,9,15.7,13.6,23.5,0,.2.2.3.3.5.1.2.3.1.3,0,0-.1,0-.2,0-.3,0-1.9,0-3.9,0-5.8Z"/>
        <g>
          <path class="cls-8" d="M133.6,370.8c.2.4.5.9.8,1.4,0,0-.2.2-.2.3-.3-.2-.7-.4-.9-.7-.3-.4-.6-.5-1.1-.4-.8.2-1.6.2-2.3,0-1.5-.2-2.5-1.2-2.6-2.7-.1-1.4-.1-2.9,0-4.3.1-1.6,1.3-2.7,2.8-2.9,2.1-.3,3.7.5,4.1,2.2.6,2.4.7,4.8-.6,7.2ZM133.8,366.5s0,0-.1,0c0-.6,0-1.1,0-1.7-.2-1.7-1.2-2.7-2.8-2.7-1.6,0-2.8.8-3,2.5-.1,1.3-.1,2.7,0,4,.1,1.3,1.2,2.1,2.5,2.2,1.6,0,2.7-.5,3-1.9.2-.8.2-1.6.3-2.3Z"/>
          <path class="cls-8" d="M95,367c-.8,0-1.5,0-2.2,0-.2,0-.4-.2-.6-.4.2-.1.4-.4.6-.4.8,0,1.6,0,2.4,0,.2,0,.6.3.6.5,0,.8,0,1.7-.2,2.4-.5,1.6-2.1,2.5-3.9,2.3-2-.2-3.2-1.3-3.3-3.1,0-1.3,0-2.6,0-3.9.1-1.7,1.4-2.9,3-3.1,2.1-.2,3.7.6,4.3,2.2,0,.1,0,.3,0,.6-.2-.2-.5-.3-.7-.5-.9-1.5-2.4-2-4-1.5-1,.3-1.6,1.1-1.7,2.2,0,1.3-.1,2.6,0,3.9.1,1.7,1.2,2.5,3.1,2.5,1.6,0,2.7-1.1,2.8-2.7,0-.3,0-.7,0-1.1Z"/>
          <path class="cls-8" d="M111.2,370.5c0,1,0,1.9,0,2.8,0,.3-.2.5-.3.8-.1-.3-.3-.6-.3-.8,0-2.7,0-5.5,0-8.2,0-.3.2-.6.3-.9.2.2.4.5.6.6.6-.2,1.3-.6,2-.7,1.4-.3,2.8.6,3.1,2,.2,1,.3,2.1.1,3-.4,2.4-2.8,3.2-4.8,1.8-.1,0-.3-.2-.6-.4ZM111.2,367.7c0,.5.1,1,.2,1.5.3,1.1,1.2,1.7,2.4,1.7,1.1,0,1.9-.6,2.1-1.8.1-.9.1-1.8,0-2.6-.2-1.1-.9-1.7-1.9-1.8-1.2,0-2.1.4-2.4,1.5-.2.5-.2,1.1-.3,1.6Z"/>
          <path class="cls-8" d="M107.1,370.7c-.9.7-1.9,1.1-3.2.7-.9-.2-1.6-1-1.7-1.8,0-.8.4-1.6,1.3-2,.8-.3,1.8-.4,2.6-.6.4,0,1.1-.4,1-.5,0-.5-.2-1.1-.5-1.5-.8-.8-2.5-.5-3.2.3-.2.2-.5.3-.7.4,0-.3,0-.6.2-.9.6-.9,2-1.2,3.4-.9,1,.3,1.6,1,1.6,2.2,0,1.4,0,2.8,0,4.2,0,.3-.2.6-.3.8-.2-.2-.4-.4-.6-.7ZM107.2,367.5c-1.1.2-2.2.4-3.2.7-.6.2-1,.6-1,1.3,0,.7.6,1.1,1.2,1.2,1.9.5,3.5-1.1,3-3.2Z"/>
          <path class="cls-8" d="M119.5,365.1c1-.9,2-1.3,3.1-1,1.2.3,2.1,1.1,2.2,2.3,0,1.5,0,3,0,4.5,0,.2-.2.4-.3.5-.1-.2-.3-.4-.4-.6,0-1.3,0-2.5,0-3.8,0-1.6-1-2.4-2.5-2.3-1,0-1.8.7-1.9,1.7-.1,1.1-.1,2.2-.1,3.3,0,.4,0,.8,0,1.2,0,.1-.2.3-.3.4-.1-.1-.2-.3-.3-.4,0,0,0-.2,0-.3,0-2.9,0-5.7,0-8.6,0,0,0-.2,0-.3,0-.2.2-.3.3-.4.1.2.3.3.3.5,0,1,0,1.9,0,3.1Z"/>
          <path class="cls-8" d="M137.7,370.7c1.4,0,2.7,0,4,0,.3,0,.6,0,.9,0,.2,0,.3.2.4.4-.1.1-.3.3-.4.3-1.7,0-3.4,0-5.1,0-.2,0-.5-.4-.5-.6,0-2.9,0-5.7,0-8.6,0-.2.3-.4.4-.6.1.2.3.4.3.6,0,2.4,0,4.9,0,7.3,0,.3,0,.7,0,1.1Z"/>
          <path class="cls-8" d="M98.7,364.6c.8-.2,1.5-.4,2.2-.5.1,0,.3.2.5.3-.1.1-.3.3-.4.3-2.1.4-2.4.7-2.4,2.8,0,1.1,0,2.2,0,3.3,0,.2-.2.4-.4.6,0-.2-.3-.4-.3-.6,0-2,0-3.9,0-5.9,0-.3.2-.5.3-.8.2.2.4.4.4.5Z"/>
        </g>
      </g>
      <g>
        <circle class="cls-4" cx="392.6" cy="307.3" r="51.2"/>
        <g>
          <path class="cls-8" d="M393.2,324h-1.8c-.2-1.7-.4-3.3-.5-5,0-.8-.3-1.4-1-2-5.4-4.7-9.1-10.4-10.2-17.5-.9-5.6.2-10.8,2.6-15.8,1.5-3.1,3.4-6,5.6-8.7,1.4-1.8,2.8-3.6,4.3-5.5,3.8,5.1,8.2,9.7,10.6,15.7,4,10,2.5,19.2-4.2,27.5-1.3,1.6-3,3-4.4,4.6-.3.3-.5.8-.6,1.2-.2,1.8-.4,3.6-.5,5.5ZM392.4,289.2c0,0-.1,0-.2,0-.1,2.4-.2,4.9-.4,7.3-.3,6-.5,12.1-.8,18.1,0,1.2.3,2,1.3,2.5.9-.6,1.3-1.3,1.2-2.5-.2-2.9-.3-5.8-.4-8.7-.2-5.6-.5-11.1-.7-16.7Z"/>
          <g>
            <path class="cls-8" d="M372.8,336.2c0-2.1,0-4.2,0-6.3,0-.8,0-.8.8-.9v-.5c-.6,0-1.2,0-1.8,0-.3,0-.4.1-.5.4-.9,2.2-1.8,4.3-2.7,6.5,0,0,0,.2-.2.3,0-.1-.1-.2-.2-.3-.9-2.1-1.7-4.1-2.6-6.2-.3-.6-.3-.6-.9-.6h-1.6v.5c0,0,.2,0,.2,0,.4,0,.5.1.5.5,0,2.3,0,4.5,0,6.8,0,.7,0,.7-.7.8,0,0,0,0,0,0v.4h2.2v-.4c-.6-.2-.6-.2-.6-.8,0-2,0-4,0-6,0-.1,0-.2,0-.3,0,0,0,0,0,0,0,0,0,.2.1.2.5,1.3,1.1,2.5,1.6,3.8.5,1.1.9,2.3,1.4,3.4,0,.1.2.3.3.3.1,0,.2-.2.3-.3,0,0,0-.1,0-.2.9-2.3,1.9-4.5,2.8-6.8,0,0,0-.2.1-.3,0,.1,0,.3,0,.4,0,1.9,0,3.8,0,5.7,0,.7,0,.7-.6.9v.4h2.6c0,0,0-.2,0-.2,0,0,0-.1,0-.2-.8-.1-.7-.1-.8-.9Z"/>
            <path class="cls-8" d="M396.4,331.1c-.7,0-1.4,0-2.1-.1-.8,0-1.6,0-2.3.5-1.3.9-1.4,2.7-.2,3.8,0,0,.1,0,.2.1-.3.4-.6.8-.9,1.2-.2.3-.1.7.2.8.1,0,.2,0,.4,0,0,0-.1.1-.2.1-1,1-.8,2.5.6,3,1.4.5,2.7.4,4-.4.3-.2.5-.4.7-.7.6-.9.5-2.3-.9-2.7-.3-.1-.7-.2-1.1-.2-.8,0-1.7,0-2.5,0,0,0-.2,0-.3,0,.2-.3.5-.6.7-.9.7.3,1.5.3,2.2,0,1.6-.5,2.2-2.1,1.5-3.5-.1-.2-.3-.4-.5-.6.5,0,.9,0,1.3.1v-.7c-.3,0-.5,0-.7,0ZM392.6,337.6c0,0,.2,0,.3,0,.5,0,1.1,0,1.6,0,.7,0,1,.2,1.2.7.2.5,0,1.2-.4,1.5-.5.4-1,.5-1.6.6-.3,0-.6-.1-.9-.2-.6-.2-.9-.6-.9-1.2,0-.6.2-1,.7-1.4ZM394.4,335.1c-.6.3-1.2.2-1.8-.2-.6-.5-.8-1.8-.3-2.5.5-.7,1.4-.9,2.1-.5.6.3.9.9.9,1.6,0,.7-.3,1.3-1,1.7Z"/>
            <path class="cls-8" d="M421.6,334.8c0-1-.6-1.6-1.5-1.9-.1,0-.3,0-.5-.2.2-.1.3-.2.4-.3,1.2-.9,1.2-2.6,0-3.4-.4-.3-.9-.5-1.4-.5-1.3,0-2.7,0-4,0,0,0,0,0,0,0v.4c.5,0,.7.2.7.6,0,2.3,0,4.7,0,7,0,.3-.2.5-.5.5,0,0-.2,0-.3,0v.5c1.5,0,2.9,0,4.3,0,.6,0,1.2-.2,1.7-.5.9-.5,1.2-1.3,1.2-2.2ZM416.4,329.8c0-.5.2-.7.7-.7.5,0,.9,0,1.3,0,.8.1,1.2.8,1.2,1.6,0,.9-.4,1.5-1.3,1.5-.6,0-1.2,0-1.9,0,0,0,0-.2,0-.2,0-.8,0-1.6,0-2.4ZM418.8,336.8c-.6,0-1.3,0-1.9,0-.3,0-.4-.2-.4-.5,0-1.1,0-2.1,0-3.2.8,0,1.6,0,2.3,0,1,0,1.5.8,1.6,1.7,0,.9-.6,1.7-1.5,1.9Z"/>
            <path class="cls-8" d="M409.9,328.6c-.8-.1-1.7,0-2.5,0-.5,0-1,0-1.6,0,0,.1,0,.2,0,.3,0,0,0,.1,0,.2.6,0,.8.2.8.6,0,2.3,0,4.6,0,6.9,0,.3-.2.5-.5.6,0,0-.2,0-.2,0v.5c1.1,0,2.3,0,3.4,0,.8,0,1.6-.2,2.2-.6,1.3-.8,2-2,2-3.5.2-2.5-1.2-4.4-3.6-4.8ZM411.9,335c-.5,1.2-1.5,1.9-2.9,1.9-.2,0-.4,0-.5,0-.4,0-.6-.2-.6-.6,0-1.1,0-2.2,0-3.2,0-1,0-2.1,0-3.1,0-.5.2-.7.7-.7.4,0,.9,0,1.3.1,1.3.3,2,1.3,2.3,2.5.2,1.1.2,2.1-.2,3.1Z"/>
            <path class="cls-8" d="M388.9,336.3c0-1.1,0-2.2,0-3.3,0-.9-.3-1.5-1.2-1.9-.9-.4-2.2-.2-2.9.5-.1.1-.3.3-.4.4,0,0,0,0,0,0,0-.2-.1-.4-.1-.5-.1-.4-.3-.5-.6-.3-.2.1-.5.3-.7.4-.2,0-.2.2-.2.4q.7,0,.7.8v3.5q0,.6-.6.8v.5h2.4v-.5c-.6,0-.6-.1-.6-.7,0-.8,0-1.7,0-2.5,0-.8.3-1.4,1-1.9,1.1-.7,2.3-.1,2.3,1.1,0,1.2,0,2.4,0,3.6,0,.2-.1.4-.4.4,0,0-.2,0-.3,0v.4h2.4v-.4c-.6-.1-.7-.1-.7-.7Z"/>
            <path class="cls-8" d="M378.1,331c-2,0-3.4,1.4-3.4,3.4,0,2,1.4,3.4,3.3,3.4,2,0,3.4-1.4,3.4-3.4,0-2-1.4-3.4-3.4-3.4ZM379.9,335.8c-.3.8-1,1.2-1.8,1.2-.9,0-1.6-.3-1.9-1.1-.5-1.1-.6-2.3.1-3.3.8-1.3,2.7-1.2,3.5.1.3.5.4,1.1.5,1.7-.1.5-.2,1-.4,1.4Z"/>
            <path class="cls-8" d="M401.5,331c-2,0-3.4,1.4-3.4,3.4,0,2,1.4,3.4,3.4,3.4,1.9,0,3.4-1.4,3.4-3.4,0-2-1.4-3.4-3.4-3.4ZM403.3,335.8c-.3.8-1,1.2-1.8,1.2-.9,0-1.5-.4-1.9-1.2-.5-1-.5-2,0-3,.4-.9,1.2-1.3,2.2-1.2.9.1,1.6.8,1.8,1.8,0,.3,0,.5,0,.8,0,0,0,0,0,0-.1.5-.2,1-.4,1.4Z"/>
          </g>
        </g>
      </g>
      <path class="cls-4" d="M314.5,199.2c1.2,2.3.3,5.2-2,6.4-2.3,1.2-5.2.3-6.4-2-1.2-2.3-.3-5.2,2-6.4,2.3-1.2,5.2-.3,6.4,2Z"/>
      <line class="cls-14" x1="310.4" y1="201.3" x2="388" y2="145.1"/>
      <g>
        <circle class="cls-14" cx="387.3" cy="159.7" r="63.1" transform="translate(.5 320.7) rotate(-45)"/>
        <g>
          <circle class="cls-4" cx="387.3" cy="159.7" r="51.2" transform="translate(.5 320.7) rotate(-45)"/>
          <g>
            <g id="Layer_1">
              <path class="cls-9" d="M355,137.5c-2.2,0-3.8,2-3.4,4.1l6.3,34.2c.3,1.7,1.8,2.9,3.4,2.9h10.2c1.9,0,3.5-1.6,3.5-3.5v-25.6l5.4,26.3c.3,1.6,1.8,2.8,3.4,2.8h10.2c1.9,0,3.5-1.6,3.5-3.5v-25.6l5.4,26.3c.3,1.6,1.8,2.8,3.4,2.8h10.2c1.9,0,3.5-1.6,3.5-3.5v-30.2c0-1.9-1.6-3.5-3.5-3.5h-16.4c-1.3,0-2.5.7-3.1,1.8-.6-1.1-1.8-1.8-3.1-1.8h-16.4c-1.1,0-2,.5-2.6,1.2v-1.7c0-1.9-1.6-3.5-3.5-3.5h-16.5Z"/>
            </g>
            <text class="cls-11" transform="translate(371.8 192.5)"><tspan x="0" y="0">Mercury</tspan></text>
            <text class="cls-10" transform="translate(376.7 198.1)"><tspan x="0" y="0">Platform</tspan></text>
          </g>
        </g>
      </g>
    </g>
  </g>
</svg>