<?xml version="1.0" encoding="UTF-8"?>
<svg xmlns="http://www.w3.org/2000/svg" version="1.1" viewBox="0 0 923 584">
  <defs>
    <style>
      .cls-1 {
      fill: #333;
      fill-rule: evenodd;
      }
    </style>
  </defs>
  <!-- Generator: Adobe Illustrator 28.6.0, SVG Export Plug-In . SVG Version: 1.2.0 Build 709)  -->
  <g>
    <g id="Layer_1">
      <path class="cls-1"
        d="M110,57c-25,0-43.9,22.7-39.3,47.3l72,389.9c3.5,19,20,32.7,39.3,32.7h116c22.1,0,40-17.9,40-40V194.9l61.3,300c3.8,18.6,20.2,32,39.2,32h116.7c22.1,0,40-17.9,40-40V194.9l61.3,300c3.8,18.6,20.2,32,39.2,32h116.7c22.1,0,40-17.9,40-40V142.5c0-22.1-17.9-40-40-40h-187.1c-15.3,0-28.3,8.5-35.1,20.7-6.8-12.4-20-20.7-35.1-20.7h-187.1c-12.2,0-22.8,5.4-30.1,13.7v-19.1c0-22.1-17.9-40-40-40H110Z" />
    </g>
  </g>
</svg>